<?xml version="1.0" standalone="no"?>
<!DOCTYPE svg PUBLIC "-//W3C//DTD SVG 1.1//EN" "http://www.w3.org/Graphics/SVG/1.1/DTD/svg11.dtd" >
<svg xmlns="http://www.w3.org/2000/svg" xmlns:xlink="http://www.w3.org/1999/xlink" version="1.1">
<metadata>
Created by FontForge 20170731 at Tue Mar 31 13:49:28 2020
 By Aleksey,,,
Copyright 2019 The Manrope Project Authors (https://github.com/sharanda/manrope)
</metadata>
<defs>
<font id="Manrope-SemiBold" horiz-adv-x="1230" >
  <font-face 
    font-family="Manrope SemiBold"
    font-weight="600"
    font-stretch="normal"
    units-per-em="2000"
    panose-1="0 0 7 0 0 0 0 0 0 0"
    ascent="1600"
    descent="-400"
    x-height="1080"
    cap-height="1440"
    bbox="-324 -590 2508 2340"
    underline-thickness="50"
    underline-position="-150"
    unicode-range="U+000D-FB02"
  />
<missing-glyph horiz-adv-x="1480" 
d="M200 1440h1080v-26h-1080v26zM200 1330h1080v-32h-1080v32zM200 1220h1080v-36h-1080v36zM200 1108h1080v-42h-1080v42zM200 996h1080v-44h-1080v44zM200 886h1080v-48h-1080v48zM200 776h1080v-56h-1080v56zM200 666h1080v-60h-1080v60zM200 556h1080v-66h-1080v66z
M200 444h1080v-70h-1080v70zM200 334h1080v-74h-1080v74zM200 224h1080v-80h-1080v80zM200 114h1080v-114h-1080v114z" />
    <glyph glyph-name="parenleft_c_parenright.liga" unicode="&#x28;c&#x29;" horiz-adv-x="1917" 
d="M558.5 10.5q-183.5 107.5 -291 291t-107.5 400.5t107.5 400.5t291 291t400.5 107.5t400 -107.5t290.5 -291t107.5 -400.5t-107.5 -400.5t-290.5 -291t-400 -107.5t-400.5 107.5zM1259.5 182.5q137.5 80.5 218 218.5t80.5 302q0 163 -80.5 300.5t-218 218t-300.5 80.5
q-164 0 -302 -80.5t-218.5 -218t-80.5 -300.5q0 -164 80.5 -302t218.5 -218.5t302 -80.5q163 0 300.5 80.5zM802 308.5q-72 31.5 -127 100.5q-95 119 -95 294q2 176 95 292q55 68 129 100.5t176 32.5q58 0 105 -12t94 -41q54 -32 92 -82.5t54 -114.5l-163 -45
q-21 62 -73 102q-49 39 -118 39q-50 0 -92 -20.5t-72 -58.5q-52 -68 -52 -191q0 -120 52 -193q58 -78 166 -78q75 0 120 36q23 19 38 41.5t28 53.5l166 -38q-19 -57 -52.5 -104t-76.5 -79q-46 -34 -99.5 -50t-124.5 -16q-98 0 -170 31.5z" />
    <glyph glyph-name="space_less_three_space.liga" unicode="&#x20;&#x3c;&#x33;&#x20;" horiz-adv-x="2326" 
d="M1096.5 -16q-31.5 14 -55.5 39l-370 390q-56 60 -83.5 133.5t-27.5 149.5q0 107 49 202t137.5 153.5t199.5 58.5q110 0 217 -70q104 70 216 70t200.5 -58.5t137.5 -154t49 -201.5q0 -77 -28 -149.5t-84 -133.5l-369 -390q-24 -25 -55.5 -39t-66.5 -14t-66.5 14z
M1582.5 606q16.5 43 16.5 89q0 63 -28.5 120t-79 92t-112.5 35q-53 0 -108 -29.5t-108 -88.5q-112 118 -217 118q-63 0 -112.5 -35t-77 -91.5t-27.5 -119.5q0 -47 16.5 -90.5t49.5 -77.5l368 -389l370 389q33 35 49.5 78z" />
    <glyph glyph-name="uniE003" unicode="&#x28;&#x3e;&#x29;" horiz-adv-x="2300" 
d="M1646.5 -137q227.5 133 360.5 360.5t133 496.5t-133 496.5t-360.5 360.5t-496.5 133t-496.5 -133t-360.5 -360.5t-133 -496.5t133 -496.5t360.5 -360.5t496.5 -133t496.5 133zM752.5 35q-181.5 106 -287.5 287.5t-106 398.5q0 216 106 397t288 287t398 106
q215 0 396.5 -106t287.5 -287.5t106 -396.5q0 -216 -106 -398t-287 -288t-397 -106q-217 0 -398.5 106zM1421 720l-408 -340v680z" />
    <glyph glyph-name="f_f" unicode="ff" horiz-adv-x="1395" 
d="M1138.5 1262q-36.5 -36 -36.5 -104v-78h273v-168h-273v-912h-209v912h-445v-912h-209v912h-179v168h179v38q0 58 3.5 99t18.5 85t47 79q38 42 85.5 61.5t89.5 23.5t102 4h136v-172h-126q-74 0 -110.5 -36t-36.5 -104v-78h445v38q0 58 3.5 99t18.5 85t47 79
q38 42 85.5 61.5t89.5 23.5t102 4h136v-172h-126q-74 0 -110.5 -36z" />
    <glyph glyph-name="f_f_l" unicode="ffl" horiz-adv-x="1989" 
d="M1829 1470v-1470h-209v912h-518v-912h-209v912h-445v-912h-209v912h-179v168h179v38q0 58 3.5 99t18.5 85t47 79q38 42 85.5 61.5t89.5 23.5t102 4h136v-172h-126q-74 0 -110.5 -36t-36.5 -104v-78h445v38q0 58 3.5 99t18.5 85t47 79q38 42 85.5 61.5t89.5 23.5t102 4
h136v-172h-126q-74 0 -110.5 -36t-36.5 -104v-78h518v390h209z" />
    <glyph glyph-name="t_t.liga" unicode="tt" horiz-adv-x="1569" 
d="M1161 435v-57q0 -51 4 -82.5t18 -54.5q24 -40 67.5 -57.5t106.5 -17.5q55 0 126 11v-177q-95 -18 -171 -18q-113 0 -196.5 36t-124.5 113q-24 47 -31.5 96t-7.5 120v78v487h-515v-477v-57q0 -51 4 -82.5t18 -54.5q24 -40 67.5 -57.5t106.5 -17.5q54 0 125 11v-177
q-93 -18 -171 -18q-112 0 -195.5 36t-124.5 113q-25 47 -32.5 96.5t-7.5 120.5v77v487h-207v168h207v300h210v-300h515v300h209v-300h322v-168h-322v-477z" />
    <glyph glyph-name="fi" unicode="fi" horiz-adv-x="1300" 
d="M484.5 1262q-36.5 -36 -36.5 -104v-78h273v-168h-273v-912h-209v912h-179v168h179v38q0 58 3.5 99t18.5 85t47 79q38 42 85.5 61.5t89.5 23.5t102 4h136v-172h-126q-74 0 -110.5 -36zM931 1460h209v-203h-209v203zM931 1080h209v-1080h-209v1080z" />
    <glyph glyph-name="fl" unicode="fl" horiz-adv-x="1335" 
d="M1175 1470v-1470h-209v912h-518v-912h-209v912h-179v168h179v38q0 58 3.5 99t18.5 85t47 79q38 42 85.5 61.5t89.5 23.5t102 4h136v-172h-126q-74 0 -110.5 -36t-36.5 -104v-78h518v390h209z" />
    <glyph glyph-name="hyphen_hyphen.liga" unicode="&#x2d;&#x2d;" horiz-adv-x="1080" 
d="M120 715h840v-168h-840v168z" />
    <glyph glyph-name="hyphen_greater.liga" unicode="&#x2d;&#x3e;" horiz-adv-x="2016" 
d="M280 547v168h1165l-288 288l102 104l477 -477l-477 -477l-102 104l290 290h-1167z" />
    <glyph glyph-name="less_hyphen.liga" unicode="&#x3c;&#x2d;" horiz-adv-x="2016" 
d="M859 257l-102 -104l-477 477l477 477l102 -104l-288 -288h1165v-168h-1167z" />
    <glyph glyph-name=".notdef" horiz-adv-x="1480" 
d="M200 1440h1080v-26h-1080v26zM200 1330h1080v-32h-1080v32zM200 1220h1080v-36h-1080v36zM200 1108h1080v-42h-1080v42zM200 996h1080v-44h-1080v44zM200 886h1080v-48h-1080v48zM200 776h1080v-56h-1080v56zM200 666h1080v-60h-1080v60zM200 556h1080v-66h-1080v66z
M200 444h1080v-70h-1080v70zM200 334h1080v-74h-1080v74zM200 224h1080v-80h-1080v80zM200 114h1080v-114h-1080v114z" />
    <glyph glyph-name=".null" horiz-adv-x="1200" 
 />
    <glyph glyph-name="uni000D" unicode="&#xd;" horiz-adv-x="1200" 
 />
    <glyph glyph-name="space" unicode=" " horiz-adv-x="400" 
 />
    <glyph glyph-name="exclam" unicode="!" horiz-adv-x="689" 
d="M449 1440v-1080h-209v1080h209zM240 203h209v-203h-209v203z" />
    <glyph glyph-name="quotedbl" unicode="&#x22;" horiz-adv-x="884" 
d="M120 1440h209v-360h-209v360zM475 1440h209v-360h-209v360z" />
    <glyph glyph-name="numbersign" unicode="#" horiz-adv-x="1855" 
d="M497 406h-377l53 199h378l69 263h-377l54 197h376l101 375h205l-101 -375h275l101 375h205l-101 -375h377l-52 -197h-378l-71 -263h377l-52 -199h-378l-108 -405h-204l107 405h-275l-108 -405h-204zM1029 605l71 263h-275l-70 -263h274z" />
    <glyph glyph-name="dollar" unicode="$" 
d="M1104 200.5q-53 -92.5 -150 -150.5t-227 -74v-175h-209v178q-180 29 -298 143.5t-147 290.5l207 33q20 -85 71 -148t126 -97t166 -34q89 0 159 29.5t109 82t39 119.5q0 72 -43 116.5t-142 76.5l-338 104q-147 46 -223.5 137t-76.5 223q0 110 47.5 196.5t136 141
t207.5 70.5v176h209v-180q166 -29 275 -135.5t146 -276.5l-213 -38q-14 78 -59.5 137.5t-115.5 92t-155 32.5q-76 0 -137.5 -27t-96.5 -74t-35 -105q0 -66 51 -112.5t161 -78.5l265 -77q182 -54 263 -145t81 -242q0 -117 -53 -209.5z" />
    <glyph glyph-name="percent" unicode="%" horiz-adv-x="1801" 
d="M299.5 798q-82.5 48 -131 131t-48.5 181q0 96 49.5 179t132.5 132t178 49q98 0 180.5 -48t131 -131t48.5 -181t-48.5 -181t-131 -131t-180.5 -48t-180.5 48zM180 140l1301 1300l140 -141l-1301 -1299zM569 955.5q41 24.5 65.5 65.5t24.5 89t-24.5 89t-65.5 65.5t-89 24.5
t-89 -24.5t-65.5 -65.5t-24.5 -89t24.5 -89t65.5 -65.5t89 -24.5t89 24.5zM1140.5 18q-82.5 48 -131 131t-48.5 181q0 96 49.5 179t132.5 132t178 49q98 0 180.5 -48t131 -131t48.5 -181t-48.5 -181t-131 -131t-180.5 -48t-180.5 48zM1410 175.5q41 24.5 65.5 65.5t24.5 89
t-24.5 89t-65.5 65.5t-89 24.5q-47 0 -88 -24.5t-65.5 -65.5t-24.5 -89t24.5 -89t65.5 -65.5t88 -24.5q48 0 89 24.5z" />
    <glyph glyph-name="ampersand" unicode="&#x26;" horiz-adv-x="1325" 
d="M383.5 6.5q-104.5 36.5 -172.5 110.5q-105 115 -111 291q-1 83 23.5 159.5t74.5 134.5q35 43 107 85q-68 73 -99 136.5t-31 147.5q0 122 64 219.5t175 140.5q87 36 207 36q95 0 177.5 -27.5t140.5 -83.5q37 -34 63.5 -78t41.5 -91l-206 -48q-16 48 -56 81q-58 50 -163 50
q-71 0 -128 -27q-104 -51 -104 -173q0 -49 16.5 -82t53.5 -74q25 -27 100 -95l392 -365q4 39 4 95l-1 187h187v-247q0 -133 -16 -196l180 -167l-135 -145l-145 138q-44 -45 -101 -76.5t-117 -47.5q-81 -25 -192 -25q-125 0 -229.5 36.5zM695.5 174.5q32.5 4.5 62.5 17.5
q70 29 113 70l-410 376q-65 -23 -103 -69q-45 -58 -45 -144q0 -97 56 -164q38 -45 107 -68t143 -23q44 0 76.5 4.5z" />
    <glyph glyph-name="quotesingle" unicode="'" horiz-adv-x="489" 
d="M120 1440h209v-360h-209v360z" />
    <glyph glyph-name="parenleft" unicode="(" horiz-adv-x="888" 
d="M449 -69q-84 170 -127.5 357.5t-41.5 371.5q-2 184 41.5 371.5t127.5 357.5t200 304l156 -116q-174 -207 -253.5 -435t-80.5 -482q2 -523 334 -917l-156 -116q-116 134 -200 304z" />
    <glyph glyph-name="parenright" unicode=")" horiz-adv-x="888" 
d="M83 -257q332 394 334 917q-1 254 -80.5 482t-253.5 435l156 116q116 -134 200 -304t127.5 -357.5t41.5 -371.5q2 -184 -41.5 -371.5t-127.5 -357.5t-200 -304z" />
    <glyph glyph-name="asterisk" unicode="*" horiz-adv-x="911" 
d="M141 855l152 186l-233 65l58 179l225 -88l-12 243h188l-12 -243l226 88l58 -179l-234 -65l152 -186l-152 -110l-132 200l-132 -200z" />
    <glyph glyph-name="plus" unicode="+" horiz-adv-x="1147" 
d="M490 637h-370v168h370v368h168v-368h369v-168h-369v-370h-168v370z" />
    <glyph glyph-name="comma" unicode="," horiz-adv-x="581" 
d="M211.5 -119.5q25.5 30.5 25.5 85.5q0 10 -2 34h-115v241h221v-261q0 -106 -44.5 -165t-128.5 -59q-20 0 -48 5l13 93q53 -4 78.5 26.5z" />
    <glyph glyph-name="hyphen" unicode="-" horiz-adv-x="840" 
d="M120 715h600v-168h-600v168z" />
    <glyph glyph-name="period" unicode="." horiz-adv-x="573" 
d="M176 221h221v-221h-221v221z" />
    <glyph glyph-name="slash" unicode="/" horiz-adv-x="836" 
d="M715 1440l-384 -1440h-211l384 1440h211z" />
    <glyph glyph-name="zero" unicode="0" horiz-adv-x="1284" 
d="M383 34.5q-114 64.5 -178.5 178.5t-64.5 259v496q0 145 64.5 259t178.5 178.5t259 64.5t259 -64.5t178.5 -178.5t64.5 -259v-496q0 -145 -64.5 -259t-178.5 -178.5t-259 -64.5t-259 64.5zM787.5 208.5q66.5 38.5 105 105t38.5 145.5v524q0 79 -38.5 145t-105 104.5
t-145.5 38.5t-145.5 -38.5t-105 -104.5t-38.5 -145v-524q0 -79 38.5 -145.5t105 -105t145.5 -38.5t145.5 38.5z" />
    <glyph glyph-name="one" unicode="1" horiz-adv-x="844" 
d="M391 1210l-271 -165v233l271 162h213v-1440h-213v1210z" />
    <glyph glyph-name="two" unicode="2" horiz-adv-x="1174" 
d="M423 200h651v-199h-974l1 186l627 562q72 64 101.5 124t29.5 126q0 76 -34 138.5t-95 98t-137 35.5q-78 0 -141 -37t-98.5 -99.5t-34.5 -134.5h-214q0 138 63 244.5t175 166t254 59.5q134 0 243 -61.5t171.5 -170t62.5 -242.5q0 -96 -25 -164.5t-73.5 -125.5t-135.5 -134
z" />
    <glyph glyph-name="three" unicode="3" horiz-adv-x="1144" 
d="M846.5 821.5q85.5 -62.5 131.5 -160t46 -214.5q0 -135 -64 -243t-174 -169.5t-243 -61.5q-107 0 -201.5 40.5t-163 116t-98.5 176.5l202 56q28 -92 99 -142t162 -49q78 1 138.5 36.5t94.5 98t34 141.5t-34 142t-95 98.5t-140 35.5q-69 0 -136 -36l-98 165l440 389h-610
v199h866v-199l-356 -342q114 -15 199.5 -77.5z" />
    <glyph glyph-name="four" unicode="4" horiz-adv-x="1205" 
d="M750 251h-650v198l468 991h239l-468 -991h411v390h212v-390h143v-198h-143v-251h-212v251z" />
    <glyph glyph-name="five" unicode="5" horiz-adv-x="1167" 
d="M839.5 863.5q106.5 -61.5 167 -169.5t60.5 -241q0 -131 -68.5 -242t-183.5 -176t-248 -65q-109 0 -205 45.5t-164.5 126.5t-97.5 185l201 54q16 -62 57.5 -109.5t98 -73.5t116.5 -26q78 0 142.5 38t102.5 102.5t38 140.5q0 77 -38.5 142t-103.5 102.5t-141 37.5
q-82 0 -144 -33t-100 -83l-182 64l44 757h777v-197h-590l-24 -396q53 38 117 58t129 20q133 0 239.5 -61.5z" />
    <glyph glyph-name="six" unicode="6" horiz-adv-x="1243" 
d="M901.5 864q106.5 -62 167 -170t60.5 -241q0 -132 -67 -243t-180.5 -175.5t-246.5 -64.5q-138 0 -251 66.5t-178.5 183.5t-65.5 263v459q0 156 65 275.5t182.5 185.5t268.5 66q115 0 214.5 -43.5t172.5 -127.5l-153 -143q-42 54 -103.5 85t-130.5 31q-87 0 -156 -42
t-108 -111.5t-39 -148.5v-172q61 61 141.5 95t168.5 34q132 0 238.5 -62zM776.5 209q64.5 38 102.5 102.5t38 141.5t-37.5 141.5t-102 102.5t-141.5 38t-142 -38t-103 -102.5t-38 -141.5q0 -76 38 -141t102.5 -103t141.5 -38t141.5 38z" />
    <glyph glyph-name="seven" unicode="7" horiz-adv-x="1046" 
d="M721 1241h-641v199h866v-199l-505 -1241h-226z" />
    <glyph glyph-name="eight" unicode="8" horiz-adv-x="1203" 
d="M1038 619.5q45 -92.5 45 -201.5q0 -131 -61.5 -233t-171.5 -158.5t-249 -56.5q-140 0 -249 56.5t-170.5 158.5t-61.5 233q0 109 44 201t130 153q-67 57 -102.5 132.5t-35.5 164.5q0 121 56.5 212t157.5 140t231 49t230.5 -49t157 -140t56.5 -212q0 -91 -34.5 -166
t-103.5 -131q86 -60 131 -152.5zM438.5 1219.5q-60.5 -51.5 -60.5 -150.5q0 -98 60.5 -149t162.5 -51t162 51t60 149q0 99 -60 150.5t-162 51.5t-162.5 -51.5zM790.5 234q70.5 65 70.5 184q0 120 -70.5 185.5t-189.5 65.5t-189.5 -65.5t-70.5 -185.5t70.5 -184.5
t189.5 -64.5t189.5 65z" />
    <glyph glyph-name="nine" unicode="9" horiz-adv-x="1243" 
d="M859 1402.5q113 -66.5 178.5 -183.5t65.5 -263v-459q0 -156 -65 -275.5t-182.5 -185.5t-268.5 -66q-115 0 -214.5 43.5t-172.5 127.5l153 143q42 -54 103.5 -85t130.5 -31q87 0 156 42t108 111.5t39 148.5v172q-61 -61 -141.5 -95t-168.5 -34q-132 0 -238.5 62t-167 170
t-60.5 241q0 132 67 243t180.5 175.5t246.5 64.5q138 0 251 -66.5zM749 742q65 38 103 102.5t38 141.5q0 76 -38 141t-102.5 103t-141.5 38t-141.5 -38t-102.5 -102.5t-38 -141.5t37.5 -141.5t102 -102.5t141.5 -38t142 38z" />
    <glyph glyph-name="colon" unicode=":" horiz-adv-x="656" 
d="M220 361h221v-221h-221v221zM221 940h221v-221h-221v221z" />
    <glyph glyph-name="semicolon" unicode=";" horiz-adv-x="661" 
d="M311.5 -119.5q25.5 30.5 25.5 85.5q0 10 -2 34h-115v241h221v-261q0 -106 -44.5 -165t-128.5 -59q-20 0 -48 5l13 93q53 -4 78.5 26.5zM220 1080h221v-221h-221v221z" />
    <glyph glyph-name="less" unicode="&#x3c;" horiz-adv-x="1259" 
d="M280 630l477 477l130 -130l-354 -347l354 -347l-130 -130z" />
    <glyph glyph-name="equal" unicode="=" horiz-adv-x="1500" 
d="M240 987h1020v-168h-1020v168zM240 621h1020v-168h-1020v168z" />
    <glyph glyph-name="greater" unicode="&#x3e;" horiz-adv-x="1260" 
d="M372 283l355 347l-355 347l131 130l476 -477l-476 -477z" />
    <glyph glyph-name="question" unicode="?" horiz-adv-x="1087" 
d="M420 530.5q12 61.5 43 115.5q22 44 50.5 73.5t79.5 70.5q66 52 105 93q38 42 52.5 86t14.5 100q0 80 -39 128q-58 73 -183 73q-50 0 -93 -13.5t-71 -39.5q-61 -51 -59 -148h-220q8 95 48.5 177t107.5 132q56 45 130 68t150 23q111 0 204 -34.5t154 -105.5q45 -51 69 -118
t24 -138q0 -173 -144 -324q-32 -33 -79 -73q-38 -33 -61 -56t-38 -49q-25 -42 -30 -75t-5 -105h-222q0 78 12 139.5zM409 242h221v-242h-221v242z" />
    <glyph glyph-name="at" unicode="@" horiz-adv-x="1821" 
d="M1315.5 1194.5q170.5 -95.5 257.5 -255t87 -348.5q0 -422 -317 -422q-72 0 -133 27t-96 77q-41 -48 -100 -70t-125 -22q-100 0 -178 44t-121.5 123t-43.5 182q0 105 45.5 184.5t124 122.5t176.5 43q51 0 106.5 -17t97.5 -47v36h134l-3 -359q0 -77 30 -116t89 -39
q76 0 105 62.5t29 180.5q0 189 -82 310t-209.5 176t-269.5 55q-179 0 -310 -74t-200.5 -205.5t-69.5 -301.5q0 -176 73 -308t204.5 -203.5t301.5 -71.5q70 0 139.5 15.5t127.5 43.5l57 -156q-152 -71 -333 -71q-215 0 -385.5 94.5t-267 260t-96.5 372.5q0 241 98.5 416
t268 266t379.5 91q239 0 409.5 -95.5zM1022.5 394.5q45.5 43.5 45.5 136.5q0 88 -42 134t-120 46q-89 0 -135 -47.5t-46 -132.5q0 -86 46 -133t130 -47q76 0 121.5 43.5z" />
    <glyph glyph-name="A" unicode="A" horiz-adv-x="1317" 
d="M1060 0l-107 325h-591l-105 -325h-217l468 1440h301l468 -1440h-217zM426 521h463l-233 710z" />
    <glyph glyph-name="B" unicode="B" horiz-adv-x="1250" 
d="M1133.5 626q57.5 -90 57.5 -206q0 -127 -51 -222t-148 -146.5t-232 -51.5h-620v1440h566q132 0 226.5 -54.5t142.5 -143t48 -189.5q0 -98 -40.5 -174t-112.5 -118q106 -45 163.5 -135zM352 852h351q58 0 105 24t74 69t27 106q0 56 -25.5 99.5t-72.5 68t-108 24.5h-351
v-391zM856.5 226.5q56.5 27.5 88.5 78t32 119.5q0 65 -29 118t-83 83t-124 30h-389v-456h376q72 0 128.5 27.5z" />
    <glyph glyph-name="C" unicode="C" horiz-adv-x="1461" 
d="M375 64q-154 94 -234.5 263.5t-80.5 392.5t80.5 392.5t234.5 263.5t366 94q163 0 292.5 -56.5t217 -161t130.5 -247.5l-212 -57q-44 154 -152 238.5t-276 84.5q-150 0 -253 -68t-154.5 -192t-52.5 -291t51 -291t155.5 -192t253.5 -68q168 0 276 84.5t152 238.5l212 -57
q-43 -143 -130.5 -247.5t-217 -161t-292.5 -56.5q-212 0 -366 94z" />
    <glyph glyph-name="D" unicode="D" horiz-adv-x="1381" 
d="M591 1440q112 0 179 -9q165 -21 281.5 -119t176.5 -252t60 -340t-60 -340t-176.5 -252t-281.5 -119q-67 -9 -179 -9h-451v1440h451zM755 209q106 20 175.5 93t102.5 181t33 237q0 131 -33.5 239.5t-103.5 180.5t-174 91q-53 10 -164 10h-237v-1042h237q111 0 164 10z" />
    <glyph glyph-name="E" unicode="E" horiz-adv-x="1160" 
d="M140 1440h920v-197h-711v-404h591v-197h-591v-445h711v-197h-920v1440z" />
    <glyph glyph-name="F" unicode="F" horiz-adv-x="1033" 
d="M140 1440h853v-209h-644v-406h524v-210h-524v-615h-209v1440z" />
    <glyph glyph-name="G" unicode="G" horiz-adv-x="1446" 
d="M383.5 60q-151.5 90 -237.5 259.5t-86 400.5q0 229 84.5 398.5t236 260t348.5 90.5q248 0 401.5 -115.5t210.5 -328.5l-212 -38q-45 132 -144 207.5t-244 76.5q-150 1 -252.5 -67t-154 -192.5t-52.5 -291.5q-1 -168 51.5 -292t157 -191.5t257.5 -67.5q181 0 285.5 105.5
t126.5 305.5h-280v168h502q4 -33 4 -85q0 -202 -77.5 -359t-226 -245.5t-353.5 -88.5q-194 0 -345.5 90z" />
    <glyph glyph-name="H" unicode="H" horiz-adv-x="1419" 
d="M140 1440h209v-621h720v621h210v-1440h-210v622h-720v-622h-209v1440z" />
    <glyph glyph-name="I" unicode="I" horiz-adv-x="529" 
d="M160 1440h209v-1440h-209v1440z" />
    <glyph glyph-name="J" unicode="J" horiz-adv-x="977" 
d="M150 53.5q-108 82.5 -150 227.5l207 49q9 -45 38.5 -82t72 -58.5t89.5 -21.5q52 0 101 25.5t73 76.5q16 32 19.5 72.5t3.5 118.5v979h212v-979v-73q0 -76 -8.5 -125.5t-38.5 -100.5q-55 -96 -147 -143.5t-208 -47.5q-156 0 -264 82.5z" />
    <glyph glyph-name="K" unicode="K" horiz-adv-x="1259" 
d="M140 1440h209v-672l603 672h260l-637 -703l684 -737h-268l-642 688v-688h-209v1440z" />
    <glyph glyph-name="L" unicode="L" horiz-adv-x="1051" 
d="M160 1440h209v-1243h652v-197h-861v1440z" />
    <glyph glyph-name="M" unicode="M" horiz-adv-x="1701" 
d="M140 1440h189l522 -1083l519 1083h191v-1439h-198v985l-465 -986h-95l-466 986v-986h-197v1440z" />
    <glyph glyph-name="N" unicode="N" horiz-adv-x="1413" 
d="M140 1440h212l709 -1070v1070h212v-1440h-212l-709 1071v-1071h-212v1440z" />
    <glyph glyph-name="O" unicode="O" horiz-adv-x="1481" 
d="M375 64q-154 94 -234.5 263.5t-80.5 392.5t80.5 392.5t234.5 263.5t366 94t365.5 -94t234 -263.5t80.5 -392.5t-80.5 -392.5t-234 -263.5t-365.5 -94t-366 94zM993.5 236q102.5 68 154 192.5t51.5 291.5t-51.5 290.5t-154 191.5t-252.5 69t-252.5 -67t-154 -192.5
t-52.5 -291.5t51 -290.5t155 -191.5t253 -69t252.5 67z" />
    <glyph glyph-name="P" unicode="P" horiz-adv-x="1254" 
d="M722 1440q60 0 111 -8q118 -18 199 -80.5t121.5 -158.5t40.5 -214q0 -119 -41 -214.5t-122 -158t-198 -81.5q-51 -8 -111 -8h-373v-517h-209v1440h582zM805 724q89 22 132.5 94t43.5 161t-43.5 161t-132.5 93q-37 10 -91 10h-365v-528h365q52 0 91 9z" />
    <glyph glyph-name="Q" unicode="Q" horiz-adv-x="1481" 
d="M1385 447q-36 -126 -105 -221l121 -121l-132 -134l-121 121q-165 -122 -407 -122q-212 0 -366 94t-234.5 263.5t-80.5 392.5t80.5 392.5t234.5 263.5t366 94t365.5 -94t234 -263.5t80.5 -392.5q0 -147 -36 -273zM999 239l-132 132l134 134l124 -124q74 137 74 339
q0 167 -51.5 290.5t-154 191.5t-252.5 69t-252.5 -67t-154 -192.5t-52.5 -291.5q-1 -168 51.5 -292t157 -191.5t256.5 -67.5q148 0 252 70z" />
    <glyph glyph-name="R" unicode="R" horiz-adv-x="1301" 
d="M982 0l-251 517h-382v-517h-209v1440h582q60 0 111 -8q118 -18 199 -80.5t121.5 -158.5t40.5 -214q0 -147 -62.5 -258t-182.5 -163l272 -558h-239zM349 715h365q52 0 91 9q89 22 132.5 94t43.5 161t-43.5 161t-132.5 93q-37 10 -91 10h-365v-528z" />
    <glyph glyph-name="S" unicode="S" horiz-adv-x="1287" 
d="M382 23.5q-125 53.5 -205.5 154t-103.5 235.5l218 33q22 -87 76.5 -150t133.5 -96t173 -33q87 0 161 28t117.5 80t43.5 122q0 74 -47.5 118.5t-133.5 70.5l-369 109q-137 40 -227 122t-90 239q0 130 67.5 223.5t184.5 142t264 47.5q145 -1 261 -51.5t192.5 -145
t105.5 -225.5l-224 -38q-16 81 -65.5 140.5t-122.5 90.5t-158 31q-78 0 -143 -26t-103 -73t-38 -106q0 -80 61.5 -121.5t162.5 -69.5l266 -75q98 -27 175.5 -64t138 -116.5t60.5 -208.5q0 -140 -74.5 -239.5t-200 -150.5t-277.5 -51q-155 0 -280 53.5z" />
    <glyph glyph-name="T" unicode="T" horiz-adv-x="1207" 
d="M499 1243h-479v197h1167v-197h-479v-1243h-209v1243z" />
    <glyph glyph-name="U" unicode="U" horiz-adv-x="1428" 
d="M415.5 39.5q-130.5 69.5 -203 196.5t-72.5 294v909l212 1v-899q0 -117 51.5 -202t134.5 -128.5t176 -43.5t176 44t134.5 129t51.5 201v899h212v-910q0 -167 -72.5 -294t-203 -196.5t-298.5 -69.5t-298.5 69.5z" />
    <glyph glyph-name="V" unicode="V" horiz-adv-x="1257" 
d="M10 1440h217l399 -1229l404 1229h217l-468 -1440h-301z" />
    <glyph glyph-name="W" unicode="W" horiz-adv-x="1925" 
d="M27 1440h219l303 -1089l303 1088l220 1l303 -1089l303 1089h220l-419 -1440h-208l-309 1077l-309 -1077h-208z" />
    <glyph glyph-name="X" unicode="X" horiz-adv-x="1278" 
d="M511 729l-478 711h256l351 -534l349 534h257l-478 -711l490 -729h-256l-362 551l-363 -551h-257z" />
    <glyph glyph-name="Y" unicode="Y" horiz-adv-x="1186" 
d="M487 595l-487 845h244l349 -605l349 605h244l-487 -845v-595h-212v595z" />
    <glyph glyph-name="Z" unicode="Z" horiz-adv-x="1294" 
d="M100 33l735 1210h-695v197h1054v-34l-731 -1208h718v-198h-1081v33z" />
    <glyph glyph-name="bracketleft" unicode="[" horiz-adv-x="836" 
d="M280 1788h416v-188h-228v-1840h228v-188h-416v2216z" />
    <glyph glyph-name="backslash" unicode="\" horiz-adv-x="835" 
d="M715 0h-211l-384 1440h211z" />
    <glyph glyph-name="bracketright" unicode="]" horiz-adv-x="836" 
d="M556 -428h-416v188h228v1840h-228v188h416v-2216z" />
    <glyph glyph-name="asciicircum" unicode="^" horiz-adv-x="1353" 
d="M1164 995l-130 -131l-347 355l-346 -355l-130 130l476 477z" />
    <glyph glyph-name="underscore" unicode="_" horiz-adv-x="1320" 
d="M0 -65h1320v-168h-1320v168z" />
    <glyph glyph-name="grave" unicode="`" horiz-adv-x="1045" 
d="M332 1950h164l142 -350h-164z" />
    <glyph glyph-name="a" unicode="a" horiz-adv-x="1139" 
d="M1011.5 799.5q7.5 -55.5 7.5 -134.5v-665h-185v157q-67 -95 -162.5 -141t-226.5 -46q-116 0 -198 43.5t-124.5 117t-42.5 163.5q0 239 255 320q77 23 174.5 39.5t270.5 40.5l33 4q-5 114 -62 166.5t-182 52.5q-91 0 -160 -42t-95 -128l-195 60q40 143 154.5 223t297.5 80
q149 0 255 -51t155 -155q23 -49 30.5 -104.5zM632 171.5q65 30.5 104.5 79.5t52.5 104q20 58 22 169l-26 -4q-146 -21 -218.5 -34t-130.5 -30q-70 -24 -109.5 -62t-39.5 -98q0 -67 49.5 -111t145.5 -44q85 0 150 30.5z" />
    <glyph glyph-name="b" unicode="b" horiz-adv-x="1216" 
d="M903.5 1036.5q111.5 -73.5 172 -203t60.5 -292.5q0 -162 -60 -292t-171 -204.5t-258 -74.5q-100 0 -181 33.5t-141 95.5v-99h-186v1440h210v-434q118 104 294 104q149 0 260.5 -73.5zM781.5 209q66.5 50 99.5 136t33 196q0 109 -33 195t-101 135.5t-169 49.5
q-143 0 -214.5 -102.5t-71.5 -277.5q0 -177 72.5 -279.5t220.5 -102.5q97 0 163.5 50z" />
    <glyph glyph-name="c" unicode="c" horiz-adv-x="1137" 
d="M322.5 43q-117.5 73 -179.5 202t-63 295q1 167 64.5 296.5t182 201.5t278.5 72q117 0 213.5 -40t162 -114t92.5 -175l-208 -60q-31 90 -101.5 141t-161.5 51q-148 0 -223.5 -101.5t-76.5 -271.5q1 -172 78 -272.5t222 -100.5q98 0 161.5 45.5t97.5 134.5l212 -50
q-53 -159 -175 -243t-296 -84q-162 0 -279.5 73z" />
    <glyph glyph-name="d" unicode="d" horiz-adv-x="1217" 
d="M1077 1440v-1440h-186v99q-60 -62 -141 -95.5t-181 -33.5q-147 0 -258 74.5t-171 204.5t-60 292q0 163 60.5 292.5t172 203t260.5 73.5q176 0 294 -104v434h210zM818.5 261.5q72.5 102.5 72.5 279.5q0 175 -71.5 277.5t-214.5 102.5q-101 0 -169 -49.5t-101 -135.5
t-33 -195q0 -110 33 -196t99.5 -136t163.5 -50q148 0 220.5 102.5z" />
    <glyph glyph-name="e" unicode="e" horiz-adv-x="1193" 
d="M395 248.5q78 -81.5 214 -81.5q97 0 169 44t112 128l205 -65q-62 -143 -190 -223.5t-286 -80.5q-160 0 -282 70.5t-189.5 198t-67.5 292.5q0 175 66 306t186 202t277 71q155 0 268 -69t173.5 -197.5t60.5 -303.5q0 -19 -2 -59h-805q13 -151 91 -232.5zM406.5 853.5
q-77.5 -71.5 -97.5 -209.5h586q-17 143 -85.5 212t-192.5 69q-133 0 -210.5 -71.5z" />
    <glyph glyph-name="f" unicode="f" horiz-adv-x="741" 
d="M484.5 1262q-36.5 -36 -36.5 -104v-78h273v-168h-273v-912h-209v912h-179v168h179v38q0 58 3.5 99t18.5 85t47 79q38 42 85.5 61.5t89.5 23.5t102 4h136v-172h-126q-74 0 -110.5 -36z" />
    <glyph glyph-name="g" unicode="g" horiz-adv-x="1216" 
d="M1076 1080v-1109q0 -95 -14 -160q-33 -160 -158 -240.5t-319 -80.5q-134 0 -248.5 61.5t-179.5 174.5l193 98q34 -66 97.5 -99.5t139.5 -33.5q135 0 208 72t71 210v102q-119 -105 -297 -105q-147 0 -258 74.5t-171 204.5t-60 292q0 163 60.5 292.5t172 203t260.5 73.5
q99 0 179 -33t139 -94v97h185zM818.5 261.5q72.5 102.5 72.5 279.5q0 175 -71.5 277.5t-214.5 102.5q-101 0 -169 -49.5t-101 -135.5t-33 -195q0 -110 33 -196t99.5 -136t163.5 -50q148 0 220.5 102.5z" />
    <glyph glyph-name="h" unicode="h" 
d="M948.5 1023.5q95.5 -85.5 128.5 -199.5t33 -224v-600h-212v531q0 159 -59 269.5t-214 110.5q-123 0 -198.5 -84t-75.5 -265v-562h-212v1440h187v-489q61 76 151 117t206 41q170 0 265.5 -85.5z" />
    <glyph glyph-name="i" unicode="i" horiz-adv-x="529" 
d="M160 1460h209v-203h-209v203zM160 1080h209v-1080h-209v1080z" />
    <glyph glyph-name="j" unicode="j" horiz-adv-x="551" 
d="M195 1460h210v-203h-210v203zM35 -282q82 0 121 40t39 123v1199h210v-1284q0 -132 -73 -204t-207 -72h-145v198h55z" />
    <glyph glyph-name="k" unicode="k" horiz-adv-x="1048" 
d="M140 1440h212v-880l424 520h266l-448 -540l494 -540h-284l-452 520v-520h-213z" />
    <glyph glyph-name="l" unicode="l" horiz-adv-x="529" 
d="M160 1470h209v-1470h-209v1470z" />
    <glyph glyph-name="m" unicode="m" horiz-adv-x="1764" 
d="M1474 1059.5q83 -47.5 126.5 -134t43.5 -202.5l-1 -723h-209l1 673q0 76 -27 132t-76.5 86t-114.5 30q-61 0 -111 -28t-79.5 -83.5t-29.5 -134.5l-1 -675h-209l1 669q0 77 -27 134t-76.5 87.5t-115.5 30.5q-65 0 -115 -31t-77.5 -86.5t-27.5 -128.5v-675h-210v1080h186
v-116q53 67 133.5 105t176.5 38q110 0 190 -46t124 -129q50 82 136.5 128.5t191.5 46.5q114 0 197 -47.5z" />
    <glyph glyph-name="n" unicode="n" 
d="M948.5 1023.5q95.5 -85.5 128.5 -199.5t33 -224v-600h-212v531q0 159 -59 269.5t-214 110.5q-123 0 -198.5 -84t-75.5 -265v-562h-212v1080h187v-129q61 76 151 117t206 41q170 0 265.5 -85.5z" />
    <glyph glyph-name="o" unicode="o" horiz-adv-x="1219" 
d="M330 42.5q-120 72.5 -185 202t-65 296.5q0 168 66 297t186 200.5t277 71.5q159 0 279.5 -72t185.5 -201.5t65 -295.5q0 -168 -65.5 -297.5t-185.5 -201.5t-279 -72t-279 72.5zM838 268.5q79 101.5 79 272.5q0 173 -79 272.5t-229 99.5q-152 0 -229.5 -100t-77.5 -272
q0 -174 79 -274t228 -100q150 0 229 101.5z" />
    <glyph glyph-name="p" unicode="p" horiz-adv-x="1216" 
d="M903.5 1036.5q111.5 -73.5 172 -203t60.5 -292.5q0 -162 -60 -292t-171 -204.5t-258 -74.5q-178 0 -298 106v-556h-210v1560h186v-97q59 61 139 94t179 33q149 0 260.5 -73.5zM781.5 209q66.5 50 99.5 136t33 196q0 109 -33 195t-101 135.5t-169 49.5
q-143 0 -214.5 -102.5t-71.5 -277.5q0 -177 72.5 -279.5t220.5 -102.5q97 0 163.5 50z" />
    <glyph glyph-name="q" unicode="q" horiz-adv-x="1217" 
d="M1077 1080v-1560h-210v556q-120 -106 -298 -106q-147 0 -258 74.5t-171 204.5t-60 292q0 163 60.5 292.5t172 203t260.5 73.5q99 0 179 -33t139 -94v97h186zM818.5 261.5q72.5 102.5 72.5 279.5q0 175 -71.5 277.5t-214.5 102.5q-101 0 -169 -49.5t-101 -135.5t-33 -195
q0 -110 33 -196t99.5 -136t163.5 -50q148 0 220.5 102.5z" />
    <glyph glyph-name="r" unicode="r" horiz-adv-x="773" 
d="M530 1070q59 17 120 17q33 0 73 -7v-196q-34 10 -79 10q-42 0 -82.5 -10.5t-74.5 -32.5q-136 -87 -136 -306v-545h-211v1080h186v-172q40 71 100 111q45 34 104 51z" />
    <glyph glyph-name="s" unicode="s" horiz-adv-x="1072" 
d="M232 58q-124 87 -152 245l214 33q20 -85 92.5 -133t180.5 -48q98 0 153.5 40t55.5 110q0 43 -20 67.5t-78.5 46.5t-191.5 58q-142 37 -221.5 78t-114.5 95.5t-35 135.5q0 97 52 170.5t147 113.5t221 40q123 0 221 -39t157.5 -111t71.5 -167l-214 -39q-12 80 -78.5 126
t-172.5 46q-88 0 -142 -35.5t-54 -93.5q0 -37 23 -61t86 -47t193 -56q138 -35 216.5 -77.5t113.5 -100t35 -142.5q0 -106 -52.5 -183t-151 -118t-234.5 -41q-197 0 -321 87z" />
    <glyph glyph-name="t" unicode="t" horiz-adv-x="845" 
d="M437 435v-57q0 -51 4 -82.5t18 -54.5q24 -40 67.5 -57.5t106.5 -17.5q54 0 125 11v-177q-93 -18 -171 -18q-112 0 -195.5 36t-124.5 113q-25 47 -32.5 96.5t-7.5 120.5v77v487h-207v168h207v300h210v-300h321v-168h-321v-477z" />
    <glyph glyph-name="u" unicode="u" 
d="M1090 1080v-1080h-186v129q-61 -76 -151 -117t-206 -41q-170 0 -265.5 85.5t-128.5 199.5t-33 224v600h212v-531q0 -159 59 -269.5t214 -110.5q123 0 198.5 84t75.5 265v562h211z" />
    <glyph glyph-name="v" unicode="v" horiz-adv-x="1076" 
d="M40 1080h211l287 -818l287 818h211l-392 -1080h-212z" />
    <glyph glyph-name="w" unicode="w" horiz-adv-x="1581" 
d="M40 1081l207 -1l226 -741l228 741h180l228 -741l226 741h206l-330 -1080h-168l-252 782l-253 -782h-168z" />
    <glyph glyph-name="x" unicode="x" horiz-adv-x="1090" 
d="M424 546l-395 534h248l269 -371l266 371h248l-395 -534l405 -546h-249l-275 383l-277 -383h-249z" />
    <glyph glyph-name="y" unicode="y" horiz-adv-x="1097" 
d="M869 1080h212l-596 -1560h-199l178 485l-437 1075h218l319 -812z" />
    <glyph glyph-name="z" unicode="z" horiz-adv-x="1065" 
d="M40 33l613 860h-557v187h889v-34l-612 -859h582v-187h-915v33z" />
    <glyph glyph-name="braceleft" unicode="{" horiz-adv-x="878" 
d="M524 -395q-60 33 -93 93t-33 139v618q0 26 -14 46l-87 123q-17 26 -17 56t17 56l87 123q14 22 14 46v617q0 79 33 139.5t93 93.5t140 33h131v-199h-117q-34 0 -57.5 -23.5t-23.5 -56.5v-604q0 -88 -51 -160l-47 -65l47 -65q51 -72 51 -160v-604q0 -34 23.5 -58t57.5 -24
h117v-197h-131q-80 0 -140 33z" />
    <glyph glyph-name="bar" unicode="|" horiz-adv-x="569" 
d="M180 1440h209v-1440h-209v1440z" />
    <glyph glyph-name="braceright" unicode="}" horiz-adv-x="879" 
d="M83 -428v197h118q33 0 56.5 24t23.5 58v604q0 87 52 160l46 65l-46 65q-52 73 -52 160v604q0 33 -23.5 56.5t-56.5 23.5h-118v199h131q80 0 140 -33t93 -93.5t33 -139.5v-617q0 -24 14 -46l87 -123q18 -25 18 -56q0 -30 -18 -56l-87 -123q-14 -20 -14 -46v-618
q0 -79 -33 -139t-93 -93t-140 -33h-131z" />
    <glyph glyph-name="asciitilde" unicode="~" horiz-adv-x="1396" 
d="M802.5 455.5q-59.5 27.5 -139.5 79.5q-63 40 -100 58.5t-70 18.5q-35 0 -53.5 -25.5t-18.5 -66.5q0 -27 9 -59h-191q-15 60 -15 115q0 115 64 185.5t182 70.5q63 0 122 -27.5t140 -79.5q65 -41 101 -59t69 -18q34 0 53 25.5t19 67.5q0 27 -9 60h192q15 -60 15 -116
q0 -116 -64 -186.5t-183 -70.5q-63 0 -122.5 27.5z" />
    <glyph glyph-name="uni00A0" unicode="&#xa0;" horiz-adv-x="400" 
 />
    <glyph glyph-name="exclamdown" unicode="&#xa1;" horiz-adv-x="689" 
d="M240 1080h209v-203h-209v203zM240 -360v1080h209v-1080h-209z" />
    <glyph glyph-name="cent" unicode="&#xa2;" horiz-adv-x="1137" 
d="M286.5 218q-100.5 76 -153 197.5t-53.5 274.5q1 153 54.5 275t154 197t238.5 92v186h168v-187q143 -22 243 -106.5t135 -215.5l-208 -60q-31 90 -101.5 141t-161.5 51q-148 0 -223.5 -101.5t-76.5 -271.5q1 -172 78 -272.5t222 -100.5q98 0 161.5 45.5t97.5 134.5
l212 -50q-46 -136 -143 -217.5t-235 -102.5v-186h-168v184q-140 17 -240.5 93z" />
    <glyph glyph-name="sterling" unicode="&#xa3;" horiz-adv-x="1142" 
d="M483 197h505v-197h-915v197h52q39 0 72.5 20.5t53.5 54.5t20 73v281h-198v199h198v263q0 108 52.5 195.5t144 137t201.5 49.5q145 0 242 -94.5t158 -266.5l-190 -62q-34 112 -84 168t-126 56q-83 0 -133.5 -53t-50.5 -139l-1 -254h323v-199h-323z" />
    <glyph glyph-name="currency" unicode="&#xa4;" horiz-adv-x="1321" 
d="M1163 565.5q-24 -75.5 -68 -139.5l166 -166l-140 -140l-166 166q-64 -43 -138.5 -66.5t-155.5 -23.5q-80 0 -154.5 23.5t-138.5 66.5l-168 -166l-140 140l167 167q-43 64 -66.5 139t-23.5 156q0 79 23 153.5t66 137.5l-166 166l140 141l166 -166q64 44 139.5 68t155.5 24
t155.5 -23.5t139.5 -67.5l165 165l140 -141l-164 -164q43 -64 66.5 -138.5t23.5 -154.5q0 -81 -24 -156.5zM363 549q46 -79 125 -126t173 -47q93 0 172 47t125.5 126t46.5 171q0 94 -47 173t-126 125.5t-171 46.5q-94 0 -173 -46.5t-125 -125.5t-46 -173q0 -92 46 -171z" />
    <glyph glyph-name="yen" unicode="&#xa5;" horiz-adv-x="1186" 
d="M1186 1440l-433 -751h240v-168h-294v-146h294v-168h-294v-207h-212v207h-294v168h294v146h-294v168h240l-433 751h244l349 -605l349 605h244z" />
    <glyph glyph-name="brokenbar" unicode="&#xa6;" horiz-adv-x="569" 
d="M180 1440h209v-789h-209v789zM180 413h209v-789h-209v789z" />
    <glyph glyph-name="section" unicode="&#xa7;" horiz-adv-x="1072" 
d="M939.5 190.5q31.5 -54.5 31.5 -135.5q0 -109 -54 -186.5t-148.5 -117.5t-214.5 -40q-112 0 -205.5 36t-157.5 110t-84 186l214 33q21 -88 90.5 -134.5t155.5 -46.5q79 0 134 39t55 111q0 47 -28 74.5t-82.5 46t-179.5 51.5q-127 33 -207 70.5t-122 92t-42 133.5
q0 91 52.5 153.5t138.5 93.5q-83 40 -124 96.5t-41 142.5q0 106 56.5 179t146.5 109t191 36q104 0 194.5 -37.5t150 -109.5t72.5 -170l-214 -39q-16 89 -72.5 131.5t-138.5 42.5q-75 0 -125.5 -34t-50.5 -93q0 -43 29.5 -69.5t77.5 -43.5t139 -40l56 -15q128 -35 205 -71.5
t118.5 -94t41.5 -146.5q0 -90 -40.5 -154t-113.5 -96q64 -39 95.5 -93.5zM333 471.5q29 -26.5 77 -43.5t144 -42l52 -13l32 -9q5 -1 11.5 -3t13.5 -4q52 22 86 63.5t34 97.5q0 47 -28 74.5t-82.5 46t-179.5 51.5q-16 3 -25 7q-164 -56 -164 -156q0 -43 29 -69.5z" />
    <glyph glyph-name="dieresis" unicode="&#xa8;" horiz-adv-x="1083" 
d="M240 1821h200v-200h-200v200zM643 1821h200v-200h-200v200z" />
    <glyph glyph-name="copyright" unicode="&#xa9;" horiz-adv-x="1717" 
d="M458.5 10.5q-183.5 107.5 -291 291t-107.5 400.5t107.5 400.5t291 291t400.5 107.5t400 -107.5t290.5 -291t107.5 -400.5t-107.5 -400.5t-290.5 -291t-400 -107.5t-400.5 107.5zM1159.5 182.5q137.5 80.5 218 218.5t80.5 302q0 163 -80.5 300.5t-218 218t-300.5 80.5
q-164 0 -302 -80.5t-218.5 -218t-80.5 -300.5q0 -164 80.5 -302t218.5 -218.5t302 -80.5q163 0 300.5 80.5zM702 308.5q-72 31.5 -127 100.5q-95 119 -95 294q2 176 95 292q55 68 129 100.5t176 32.5q58 0 105 -12t94 -41q54 -32 92 -82.5t54 -114.5l-163 -45
q-21 62 -73 102q-49 39 -118 39q-50 0 -92 -20.5t-72 -58.5q-52 -68 -52 -191q0 -120 52 -193q58 -78 166 -78q75 0 120 36q23 19 38 41.5t28 53.5l166 -38q-19 -57 -52.5 -104t-76.5 -79q-46 -34 -99.5 -50t-124.5 -16q-98 0 -170 31.5z" />
    <glyph glyph-name="ordfeminine" unicode="&#xaa;" horiz-adv-x="1139" 
d="M1011.5 799.5q7.5 -55.5 7.5 -134.5v-665h-185v157q-67 -95 -162.5 -141t-226.5 -46q-116 0 -198 43.5t-124.5 117t-42.5 163.5q0 239 255 320q77 23 174.5 39.5t270.5 40.5l33 4q-5 114 -62 166.5t-182 52.5q-91 0 -160 -42t-95 -128l-195 60q40 143 154.5 223t297.5 80
q149 0 255 -51t155 -155q23 -49 30.5 -104.5zM632 171.5q65 30.5 104.5 79.5t52.5 104q20 58 22 169l-26 -4q-146 -21 -218.5 -34t-130.5 -30q-70 -24 -109.5 -62t-39.5 -98q0 -67 49.5 -111t145.5 -44q85 0 150 30.5z" />
    <glyph glyph-name="guillemotleft" unicode="&#xab;" horiz-adv-x="1139" 
d="M160 541l350 440l115 -91l-278 -349l278 -350l-115 -91zM547 541l350 440l115 -91l-279 -349l279 -350l-115 -91z" />
    <glyph glyph-name="logicalnot" unicode="&#xac;" horiz-adv-x="1200" 
d="M912 617h-792v168h960v-407h-168v239z" />
    <glyph glyph-name="uni00AD" unicode="&#xad;" horiz-adv-x="840" 
d="M120 715h600v-168h-600v168z" />
    <glyph glyph-name="registered" unicode="&#xae;" horiz-adv-x="1290" 
d="M392 623q-116 68 -184 184.5t-68 253.5t68 252.5t184 183.5t253 68t253 -68t184 -183.5t68 -252.5t-68 -253.5t-184 -184.5t-253 -68t-253 68zM825.5 750q82.5 49 131.5 131.5t49 179.5q0 98 -48.5 180.5t-131.5 131t-180 48.5q-98 0 -181 -48t-131.5 -131t-48.5 -181
q0 -97 48.5 -180t131.5 -131.5t181 -48.5q97 0 179.5 49zM681 1298q70 0 114 -43t46 -112q0 -43 -21.5 -79.5t-62.5 -58.5l88 -178h-96l-78 163h-107v-163h-84v471h201zM734 1090.5q21 21.5 21 52.5q0 35 -20 55t-52 20h-119v-149h119q30 0 51 21.5z" />
    <glyph glyph-name="macron" unicode="&#xaf;" horiz-adv-x="1003" 
d="M240 1847h523v-167h-523v167z" />
    <glyph glyph-name="degree" unicode="&#xb0;" horiz-adv-x="900" 
d="M239.5 798q-82.5 48 -131 131t-48.5 181q0 96 49.5 179t132.5 132t178 49q98 0 180.5 -48t131 -131t48.5 -181t-48.5 -181t-131 -131t-180.5 -48t-180.5 48zM509 955.5q41 24.5 65.5 65.5t24.5 89t-24.5 89t-65.5 65.5t-89 24.5t-89 -24.5t-65.5 -65.5t-24.5 -89
t24.5 -89t65.5 -65.5t89 -24.5t89 24.5z" />
    <glyph glyph-name="plusminus" unicode="&#xb1;" horiz-adv-x="1200" 
d="M517 677h-397v168h397v235h168v-235h395v-168h-395v-237h-168v237zM120 307h960v-168h-960v168z" />
    <glyph glyph-name="uni00B2" unicode="&#xb2;" horiz-adv-x="816" 
d="M318 673h398v-133h-616l1 124l388 349q44 39 63 75t19 74q0 47 -20.5 84.5t-56.5 59t-82 21.5q-47 0 -85.5 -22.5t-59.5 -60t-20 -80.5h-145q0 88 39.5 155t111 104t162.5 37q85 0 154 -38.5t108 -106.5t39 -154q0 -61 -16.5 -104t-47 -78t-88.5 -86z" />
    <glyph glyph-name="uni00B3" unicode="&#xb3;" horiz-adv-x="799" 
d="M572 1048.5q52 -39.5 79.5 -99.5t27.5 -132q0 -84 -41 -152.5t-111 -107t-154 -38.5q-67 0 -127 26t-103.5 74.5t-62.5 112.5l137 37q16 -55 59 -85.5t97 -30.5q46 0 83 21.5t58 59t21 83.5q0 47 -20.5 85t-57.5 59.5t-84 21.5q-41 0 -82 -22l-66 111l267 234h-376v134
h549v-135l-215 -206q70 -11 122 -50.5z" />
    <glyph glyph-name="acute" unicode="&#xb4;" horiz-adv-x="1045" 
d="M406 1600l143 350h164l-143 -350h-164z" />
    <glyph glyph-name="uni00B5" unicode="&#xb5;" horiz-adv-x="1249" 
d="M351 1080v-531q0 -159 59 -269.5t213 -110.5q123 0 199 84t76 265v562h211v-1080h-186v133q-60 -79 -150.5 -120.5t-206.5 -41.5q-151 0 -241 85v-536h-186v1560h212z" />
    <glyph glyph-name="paragraph" unicode="&#xb6;" horiz-adv-x="1377" 
d="M585 517q-54 0 -110 8q-116 18 -197.5 80.5t-123 159t-41.5 214.5q0 117 40.5 213.5t122 159.5t199.5 80q56 8 110 8h302v-1722h-209v799h-93zM1054 1440h209v-1722h-209v1722z" />
    <glyph glyph-name="periodcentered" unicode="&#xb7;" horiz-adv-x="507" 
d="M159.5 535q-39.5 38 -39.5 95t39.5 95t97.5 38q35 0 65 -17.5t47.5 -47.5t17.5 -68t-17.5 -68t-47.5 -47.5t-65 -17.5q-58 0 -97.5 38z" />
    <glyph glyph-name="cedilla" unicode="&#xb8;" horiz-adv-x="816" 
d="M240 -447l48 128q42 -14 69 -14q31 0 49.5 18.5t18.5 43.5t-17 42t-43 27.5t-71 24.5l72 204l133 2l-43 -124q58 -28 89.5 -73.5t31.5 -108.5q0 -58 -27.5 -105t-74 -73.5t-100.5 -26.5q-67 0 -135 35z" />
    <glyph glyph-name="uni00B9" unicode="&#xb9;" horiz-adv-x="673" 
d="M289 1286l-169 -103v156l169 101h144v-900h-144v746z" />
    <glyph glyph-name="ordmasculine" unicode="&#xba;" horiz-adv-x="1219" 
d="M330 42.5q-120 72.5 -185 202t-65 296.5q0 168 66 297t186 200.5t277 71.5q159 0 279.5 -72t185.5 -201.5t65 -295.5q0 -168 -65.5 -297.5t-185.5 -201.5t-279 -72t-279 72.5zM838 268.5q79 101.5 79 272.5q0 173 -79 272.5t-229 99.5q-152 0 -229.5 -100t-77.5 -272
q0 -174 79 -274t228 -100q150 0 229 101.5z" />
    <glyph glyph-name="guillemotright" unicode="&#xbb;" horiz-adv-x="1139" 
d="M242 100l-115 91l278 350l-278 349l115 91l350 -440zM629 100l-116 91l279 350l-279 349l116 91l350 -440z" />
    <glyph glyph-name="onequarter" unicode="&#xbc;" horiz-adv-x="2029" 
d="M289 1286l-169 -103v156l169 101h144v-900h-144v746zM349 96l1007 1353l127 -96l-1007 -1353zM1560 153h-403v133l291 614h161l-291 -614h242v239h142v-239h87v-133h-87v-153h-142v153z" />
    <glyph glyph-name="onehalf" unicode="&#xbd;" horiz-adv-x="1975" 
d="M289 1286l-169 -103v156l169 101h144v-900h-144v746zM349 96l1007 1353l127 -96l-1007 -1353zM1477 133h398v-133h-616l1 124l388 349q44 39 63 75t19 74q0 47 -20.5 84.5t-56.5 59t-82 21.5q-47 0 -85.5 -22.5t-59.5 -60t-20 -80.5h-145q0 88 39.5 155t111 104t162.5 37
q85 0 154 -38.5t108 -106.5t39 -154q0 -61 -16.5 -104t-47 -78t-88.5 -86z" />
    <glyph glyph-name="threequarters" unicode="&#xbe;" horiz-adv-x="2023" 
d="M572 1048.5q52 -39.5 79.5 -99.5t27.5 -132q0 -84 -41 -152.5t-111 -107t-154 -38.5q-67 0 -127 26t-103.5 74.5t-62.5 112.5l137 37q16 -55 59 -85.5t97 -30.5q46 0 83 21.5t58 59t21 83.5q0 47 -20.5 85t-57.5 59.5t-84 21.5q-41 0 -82 -22l-66 111l267 234h-376v134
h549v-135l-215 -206q70 -11 122 -50.5zM475 96l1007 1353l127 -96l-1007 -1353zM1674 153h-403v133l291 614h161l-291 -614h242v239h142v-239h87v-133h-87v-153h-142v153z" />
    <glyph glyph-name="questiondown" unicode="&#xbf;" horiz-adv-x="1087" 
d="M457 838v242h220v-242h-220zM667 549.5q-12 -61.5 -43 -115.5q-23 -44 -51 -73t-79 -71q-60 -45 -105 -93q-38 -42 -52.5 -86t-14.5 -100q0 -82 39 -128q30 -38 77.5 -55.5t105.5 -17.5q50 0 92.5 13.5t70.5 39.5q31 26 46 64t14 84h220q-8 -95 -48.5 -177t-107.5 -132
q-57 -45 -130.5 -68t-149.5 -23q-112 0 -204.5 34.5t-153.5 105.5q-45 51 -69 118t-24 138q0 175 144 324q31 33 79 74q37 31 60 54.5t38 49.5q18 30 25.5 55t9 49.5t1.5 75.5h222q0 -78 -12 -139.5z" />
    <glyph glyph-name="Agrave" unicode="&#xc0;" horiz-adv-x="1317" 
d="M720 1600h-164l-143 350h164zM1060 0l-105 325h-591l-107 -325h-217l468 1440h301l468 -1440h-217zM428 521h463l-230 710z" />
    <glyph glyph-name="Aacute" unicode="&#xc1;" horiz-adv-x="1317" 
d="M904 1950l-143 -350h-164l143 350h164zM1060 0l-107 325h-591l-105 -325h-217l468 1440h301l468 -1440h-217zM426 521h463l-233 710z" />
    <glyph glyph-name="Acircumflex" unicode="&#xc2;" horiz-adv-x="1317" 
d="M657 1777l-149 -177h-200l258 300h181l258 -300h-200zM1060 0l-107 325h-591l-105 -325h-217l468 1440h301l468 -1440h-217zM426 521h463l-233 710z" />
    <glyph glyph-name="Atilde" unicode="&#xc3;" horiz-adv-x="1317" 
d="M333 1677q-10 40 -10 81q0 83 45 133t129 50q45 0 86.5 -19.5t99.5 -56.5q43 -28 70.5 -41.5t50.5 -13.5q24 0 37.5 18.5t13.5 48.5q0 20 -6 42h136q10 -40 10 -82q0 -82 -45.5 -132.5t-129.5 -50.5q-44 0 -85.5 19.5t-99.5 56.5q-43 28 -70 41.5t-51 13.5q-25 0 -38 -18
t-13 -47q0 -20 6 -43h-136zM1060 0l-107 325h-591l-105 -325h-217l468 1440h301l468 -1440h-217zM426 521h463l-233 710z" />
    <glyph glyph-name="Adieresis" unicode="&#xc4;" horiz-adv-x="1317" 
d="M558 1821v-200h-200v200h200zM961 1821v-200h-200v200h200zM1060 0l-107 325h-591l-105 -325h-217l468 1440h301l468 -1440h-217zM426 521h463l-233 710z" />
    <glyph glyph-name="Aring" unicode="&#xc5;" horiz-adv-x="1317" 
d="M537 1586q-56 33 -89 89.5t-33 122.5t33 122.5t89 89.5t122 33q67 0 123 -33t89 -89.5t33 -122.5t-33 -122.5t-89 -89.5t-123 -33q-66 0 -122 33zM581.5 1876q-32.5 -32 -32.5 -78q0 -45 32.5 -77.5t77.5 -32.5q46 0 78 32.5t32 77.5q0 46 -32 78t-78 32q-45 0 -77.5 -32
zM1060 0l-107 325h-591l-105 -325h-217l468 1440h301l468 -1440h-217zM426 521h463l-233 710z" />
    <glyph glyph-name="AE" unicode="&#xc6;" horiz-adv-x="1863" 
d="M1763 1243h-710v-404h590v-197h-590v-445h710v-197h-920v325h-481l-105 -325h-217l468 1440h1255v-197zM426 521h417v722h-183z" />
    <glyph glyph-name="Ccedilla" unicode="&#xc7;" horiz-adv-x="1461" 
d="M1017 253.5q108 84.5 152 238.5l212 -57q-59 -198 -201.5 -319t-352.5 -142l-24 -69q58 -28 89.5 -73.5t31.5 -108.5q0 -59 -27.5 -105.5t-74 -73t-101.5 -26.5q-67 0 -134 35l48 128q42 -14 68 -14q31 0 50 18.5t19 43.5t-17.5 42t-43 27.5t-70.5 24.5l52 148
q-198 11 -340.5 107.5t-217.5 262t-75 379.5q0 223 80.5 392.5t234.5 263.5t366 94q163 0 292.5 -56.5t217 -161t130.5 -247.5l-212 -57q-44 154 -152 238.5t-276 84.5q-150 0 -253 -68t-154.5 -192t-52.5 -291t51 -291t155.5 -192t253.5 -68q168 0 276 84.5z" />
    <glyph glyph-name="Egrave" unicode="&#xc8;" horiz-adv-x="1160" 
d="M399 1950h164l143 -350h-164zM1060 1440v-197h-711v-404h591v-197h-591v-445h711v-197h-920v1440h920z" />
    <glyph glyph-name="Eacute" unicode="&#xc9;" horiz-adv-x="1160" 
d="M544 1600l143 350h164l-143 -350h-164zM1060 1440v-197h-711v-404h591v-197h-591v-445h711v-197h-920v1440h920z" />
    <glyph glyph-name="Ecircumflex" unicode="&#xca;" horiz-adv-x="1160" 
d="M497 1900h181l258 -300h-200l-149 177l-148 -177h-200zM1060 1440v-197h-711v-404h591v-197h-591v-445h711v-197h-920v1440h920z" />
    <glyph glyph-name="Edieresis" unicode="&#xcb;" horiz-adv-x="1160" 
d="M287 1821h200v-200h-200v200zM690 1821h200v-200h-200v200zM1060 1440v-197h-711v-404h591v-197h-591v-445h711v-197h-920v1440h920z" />
    <glyph glyph-name="Igrave" unicode="&#xcc;" horiz-adv-x="529" 
d="M37 1950h164l142 -350h-164zM369 1440v-1440h-209v1440h209z" />
    <glyph glyph-name="Iacute" unicode="&#xcd;" horiz-adv-x="529" 
d="M186 1600l143 350h164l-143 -350h-164zM369 1440v-1440h-209v1440h209z" />
    <glyph glyph-name="Icircumflex" unicode="&#xce;" horiz-adv-x="529" 
d="M172 1900h180l259 -300h-200l-149 177l-149 -177h-200zM369 1440v-1440h-209v1440h209z" />
    <glyph glyph-name="Idieresis" unicode="&#xcf;" horiz-adv-x="529" 
d="M-37 1821h200v-200h-200v200zM366 1821h200v-200h-200v200zM369 1440v-1440h-209v1440h209z" />
    <glyph glyph-name="Eth" unicode="&#xd0;" horiz-adv-x="1379" 
d="M1049.5 1312q116.5 -98 176.5 -252t60 -340t-60 -340t-176.5 -252t-281.5 -119q-67 -9 -179 -9h-451v637h-118v168h118v635h451q112 0 179 -9q165 -21 281.5 -119zM928.5 302q69.5 73 102.5 181t33 237q0 131 -33.5 239.5t-103.5 180.5t-174 91q-53 10 -164 10h-237v-436
h328v-168h-328v-438h237q111 0 164 10q106 20 175.5 93z" />
    <glyph glyph-name="Ntilde" unicode="&#xd1;" horiz-adv-x="1413" 
d="M805.5 1623.5q-41.5 19.5 -99.5 56.5q-43 28 -70 41.5t-51 13.5q-25 0 -38 -17.5t-13 -46.5q0 -23 7 -44h-136q-11 46 -11 82q0 82 45.5 132t129.5 50q45 0 88 -20t98 -56q44 -28 70.5 -41.5t49.5 -13.5q24 0 37.5 18t13.5 48q0 21 -6 43h136q10 -40 10 -82
q0 -82 -45.5 -132.5t-129.5 -50.5q-44 0 -85.5 19.5zM352 1440l709 -1070v1070h212v-1440h-212l-709 1071v-1071h-212v1440h212z" />
    <glyph glyph-name="Ograve" unicode="&#xd2;" horiz-adv-x="1481" 
d="M500 1950h164l143 -350h-164zM375 64q-154 94 -234.5 263.5t-80.5 392.5t80.5 392.5t234.5 263.5t366 94t365.5 -94t234 -263.5t80.5 -392.5t-80.5 -392.5t-234 -263.5t-365.5 -94t-366 94zM993.5 236q102.5 68 154 192.5t51.5 291.5t-51.5 290.5t-154 191.5t-252.5 69
t-252.5 -67t-154 -192.5t-52.5 -291.5t51 -290.5t155 -191.5t253 -69t252.5 67z" />
    <glyph glyph-name="Oacute" unicode="&#xd3;" horiz-adv-x="1481" 
d="M671 1600l143 350h164l-143 -350h-164zM375 64q-154 94 -234.5 263.5t-80.5 392.5t80.5 392.5t234.5 263.5t366 94t365.5 -94t234 -263.5t80.5 -392.5t-80.5 -392.5t-234 -263.5t-365.5 -94t-366 94zM993.5 236q102.5 68 154 192.5t51.5 291.5t-51.5 290.5t-154 191.5
t-252.5 69t-252.5 -67t-154 -192.5t-52.5 -291.5t51 -290.5t155 -191.5t253 -69t252.5 67z" />
    <glyph glyph-name="Ocircumflex" unicode="&#xd4;" horiz-adv-x="1481" 
d="M648 1900h180l259 -300h-200l-149 177l-149 -177h-200zM375 64q-154 94 -234.5 263.5t-80.5 392.5t80.5 392.5t234.5 263.5t366 94t365.5 -94t234 -263.5t80.5 -392.5t-80.5 -392.5t-234 -263.5t-365.5 -94t-366 94zM993.5 236q102.5 68 154 192.5t51.5 291.5
t-51.5 290.5t-154 191.5t-252.5 69t-252.5 -67t-154 -192.5t-52.5 -291.5t51 -290.5t155 -191.5t253 -69t252.5 67z" />
    <glyph glyph-name="Otilde" unicode="&#xd5;" horiz-adv-x="1481" 
d="M375 64q-154 94 -234.5 263.5t-80.5 392.5t80.5 392.5t234.5 263.5t366 94t365.5 -94t234 -263.5t80.5 -392.5t-80.5 -392.5t-234 -263.5t-365.5 -94t-366 94zM993.5 236q102.5 68 154 192.5t51.5 291.5t-51.5 290.5t-154 191.5t-252.5 69t-252.5 -67t-154 -192.5
t-52.5 -291.5t51 -290.5t155 -191.5t253 -69t252.5 67zM829.5 1623.5q-41.5 19.5 -99.5 56.5q-43 28 -70 41.5t-51 13.5q-25 0 -38 -18t-13 -47q0 -20 6 -43h-136q-10 40 -10 81q0 83 45 133t129 50q45 0 86.5 -19.5t99.5 -56.5q43 -28 70.5 -41.5t50.5 -13.5
q24 0 37.5 18.5t13.5 48.5q0 20 -6 42h136q10 -40 10 -82q0 -82 -45.5 -132.5t-129.5 -50.5q-44 0 -85.5 19.5z" />
    <glyph glyph-name="Odieresis" unicode="&#xd6;" horiz-adv-x="1481" 
d="M439 1821h200v-200h-200v200zM842 1821h200v-200h-200v200zM375 64q-154 94 -234.5 263.5t-80.5 392.5t80.5 392.5t234.5 263.5t366 94t365.5 -94t234 -263.5t80.5 -392.5t-80.5 -392.5t-234 -263.5t-365.5 -94t-366 94zM993.5 236q102.5 68 154 192.5t51.5 291.5
t-51.5 290.5t-154 191.5t-252.5 69t-252.5 -67t-154 -192.5t-52.5 -291.5t51 -290.5t155 -191.5t253 -69t252.5 67z" />
    <glyph glyph-name="multiply" unicode="&#xd7;" horiz-adv-x="1001" 
d="M239 340l-119 119l261 262l-260 260l119 119l260 -260l261 260l119 -119l-261 -260l262 -262l-119 -119l-262 262z" />
    <glyph glyph-name="Oslash" unicode="&#xd8;" horiz-adv-x="1481" 
d="M1304 1179q57 -93 87 -209t30 -250q0 -223 -80.5 -392.5t-234 -263.5t-365.5 -94q-123 0 -228 32.5t-187 94.5l-111 -123l-149 133l123 136q-63 95 -96 216t-33 261q0 223 80.5 392.5t234.5 263.5t366 94q129 0 237.5 -35.5t192.5 -103.5l120 133l149 -133zM343 408
l690 764q-113 98 -292 99q-150 1 -252.5 -67t-154 -192.5t-52.5 -291.5q0 -184 61 -312zM993.5 236q102.5 68 154 192.5t51.5 291.5q0 170 -52 293l-684 -758q111 -85 278 -86q150 -1 252.5 67z" />
    <glyph glyph-name="Ugrave" unicode="&#xd9;" horiz-adv-x="1428" 
d="M508 1950h164l143 -350h-164zM415.5 39.5q-130.5 69.5 -203 196.5t-72.5 294v909l212 1v-899q0 -117 51.5 -202t134.5 -128.5t176 -43.5t176 44t134.5 129t51.5 201v899h212v-910q0 -167 -72.5 -294t-203 -196.5t-298.5 -69.5t-298.5 69.5z" />
    <glyph glyph-name="Uacute" unicode="&#xda;" horiz-adv-x="1428" 
d="M623 1600l143 350h164l-143 -350h-164zM415.5 39.5q-130.5 69.5 -203 196.5t-72.5 294v909l212 1v-899q0 -117 51.5 -202t134.5 -128.5t176 -43.5t176 44t134.5 129t51.5 201v899h212v-910q0 -167 -72.5 -294t-203 -196.5t-298.5 -69.5t-298.5 69.5z" />
    <glyph glyph-name="Ucircumflex" unicode="&#xdb;" horiz-adv-x="1428" 
d="M621 1900h181l258 -300h-200l-149 177l-148 -177h-200zM415.5 39.5q-130.5 69.5 -203 196.5t-72.5 294v909l212 1v-899q0 -117 51.5 -202t134.5 -128.5t176 -43.5t176 44t134.5 129t51.5 201v899h212v-910q0 -167 -72.5 -294t-203 -196.5t-298.5 -69.5t-298.5 69.5z" />
    <glyph glyph-name="Udieresis" unicode="&#xdc;" horiz-adv-x="1428" 
d="M413 1821h200v-200h-200v200zM815 1821h200v-200h-200v200zM415.5 39.5q-130.5 69.5 -203 196.5t-72.5 294v909l212 1v-899q0 -117 51.5 -202t134.5 -128.5t176 -43.5t176 44t134.5 129t51.5 201v899h212v-910q0 -167 -72.5 -294t-203 -196.5t-298.5 -69.5t-298.5 69.5z
" />
    <glyph glyph-name="Yacute" unicode="&#xdd;" horiz-adv-x="1186" 
d="M501 1600l143 350h164l-143 -350h-164zM0 1440h244l349 -605l349 605h244l-487 -845v-595h-212v595z" />
    <glyph glyph-name="Thorn" unicode="&#xde;" horiz-adv-x="1237" 
d="M352 1440v-259h359q78 0 149 -24q61 -20 114.5 -57.5t92.5 -87.5q52 -61 81 -138.5t29 -157.5q0 -74 -27 -147t-75 -134q-62 -80 -159 -127.5t-205 -47.5h-359v-260h-212v1440h212zM816 484q54 27 90 73q27 34 42 74t15 82q0 52 -18 100.5t-52 84.5q-35 38 -85 61.5
t-98 23.5h-358v-526h358q52 0 106 27z" />
    <glyph glyph-name="germandbls" unicode="&#xdf;" horiz-adv-x="1245" 
d="M563.5 -22q-43.5 7 -80.5 22v205q77 -28 158 -28q126 0 199 63t73 182q0 121 -92 184.5t-249 65.5v185q101 9 160.5 63t59.5 148q0 63 -29 109.5t-79.5 71t-112.5 24.5q-67 0 -118 -27.5t-77 -86.5q-24 -55 -24 -154v-1005h-213v1061q0 87 20 150q43 130 153 194.5
t259 64.5q122 0 221 -50.5t156 -141t57 -207.5q0 -91 -35.5 -163.5t-103.5 -114.5q69 -21 128 -72.5t95 -129.5t36 -172q0 -138 -53 -239t-156 -155t-249 -54q-60 0 -103.5 7z" />
    <glyph glyph-name="agrave" unicode="&#xe0;" horiz-adv-x="1139" 
d="M665 1240h-164l-142 350h164zM1011.5 799.5q7.5 -55.5 7.5 -134.5v-665h-185v157q-67 -95 -162.5 -141t-226.5 -46q-116 0 -198 43.5t-124.5 117t-42.5 163.5q0 239 255 320q77 23 174.5 39.5t270.5 40.5l33 4q-5 114 -62 166.5t-182 52.5q-91 0 -160 -42t-95 -128
l-195 60q40 143 154.5 223t297.5 80q149 0 255 -51t155 -155q23 -49 30.5 -104.5zM632 171.5q65 30.5 104.5 79.5t52.5 104q20 58 22 169l-26 -4q-146 -21 -218.5 -34t-130.5 -30q-70 -24 -109.5 -62t-39.5 -98q0 -67 49.5 -111t145.5 -44q85 0 150 30.5z" />
    <glyph glyph-name="aacute" unicode="&#xe1;" horiz-adv-x="1139" 
d="M810 1590l-142 -350h-164l142 350h164zM1011.5 799.5q7.5 -55.5 7.5 -134.5v-665h-185v157q-67 -95 -162.5 -141t-226.5 -46q-116 0 -198 43.5t-124.5 117t-42.5 163.5q0 239 255 320q77 23 174.5 39.5t270.5 40.5l33 4q-5 114 -62 166.5t-182 52.5q-91 0 -160 -42
t-95 -128l-195 60q40 143 154.5 223t297.5 80q149 0 255 -51t155 -155q23 -49 30.5 -104.5zM632 171.5q65 30.5 104.5 79.5t52.5 104q20 58 22 169l-26 -4q-146 -21 -218.5 -34t-130.5 -30q-70 -24 -109.5 -62t-39.5 -98q0 -67 49.5 -111t145.5 -44q85 0 150 30.5z" />
    <glyph glyph-name="acircumflex" unicode="&#xe2;" horiz-adv-x="1139" 
d="M583 1417l-148 -177h-200l258 300h181l258 -300h-200zM1011.5 799.5q7.5 -55.5 7.5 -134.5v-665h-185v157q-67 -95 -162.5 -141t-226.5 -46q-116 0 -198 43.5t-124.5 117t-42.5 163.5q0 239 255 320q77 23 174.5 39.5t270.5 40.5l33 4q-5 114 -62 166.5t-182 52.5
q-91 0 -160 -42t-95 -128l-195 60q40 143 154.5 223t297.5 80q149 0 255 -51t155 -155q23 -49 30.5 -104.5zM632 171.5q65 30.5 104.5 79.5t52.5 104q20 58 22 169l-26 -4q-146 -21 -218.5 -34t-130.5 -30q-70 -24 -109.5 -62t-39.5 -98q0 -67 49.5 -111t145.5 -44
q85 0 150 30.5z" />
    <glyph glyph-name="atilde" unicode="&#xe3;" horiz-adv-x="1139" 
d="M274 1267q-11 46 -11 82q0 82 45.5 132t129.5 50q45 0 86.5 -19.5t99.5 -56.5q43 -28 70.5 -41.5t50.5 -13.5q24 0 37.5 18t13.5 48q0 21 -7 43h136q11 -46 11 -82q0 -82 -45.5 -132.5t-129.5 -50.5q-45 0 -88 20t-98 56q-44 28 -70.5 41.5t-49.5 13.5q-25 0 -38.5 -18
t-13.5 -47q0 -17 7 -43h-136zM1011.5 799.5q7.5 -55.5 7.5 -134.5v-665h-185v157q-67 -95 -162.5 -141t-226.5 -46q-116 0 -198 43.5t-124.5 117t-42.5 163.5q0 239 255 320q77 23 174.5 39.5t270.5 40.5l33 4q-5 114 -62 166.5t-182 52.5q-91 0 -160 -42t-95 -128l-195 60
q40 143 154.5 223t297.5 80q149 0 255 -51t155 -155q23 -49 30.5 -104.5zM632 171.5q65 30.5 104.5 79.5t52.5 104q20 58 22 169l-26 -4q-146 -21 -218.5 -34t-130.5 -30q-70 -24 -109.5 -62t-39.5 -98q0 -67 49.5 -111t145.5 -44q85 0 150 30.5z" />
    <glyph glyph-name="adieresis" unicode="&#xe4;" horiz-adv-x="1139" 
d="M488 1461v-200h-200v200h200zM891 1461v-200h-200v200h200zM1011.5 799.5q7.5 -55.5 7.5 -134.5v-665h-185v157q-67 -95 -162.5 -141t-226.5 -46q-116 0 -198 43.5t-124.5 117t-42.5 163.5q0 239 255 320q77 23 174.5 39.5t270.5 40.5l33 4q-5 114 -62 166.5t-182 52.5
q-91 0 -160 -42t-95 -128l-195 60q40 143 154.5 223t297.5 80q149 0 255 -51t155 -155q23 -49 30.5 -104.5zM632 171.5q65 30.5 104.5 79.5t52.5 104q20 58 22 169l-26 -4q-146 -21 -218.5 -34t-130.5 -30q-70 -24 -109.5 -62t-39.5 -98q0 -67 49.5 -111t145.5 -44
q85 0 150 30.5z" />
    <glyph glyph-name="aring" unicode="&#xe5;" horiz-adv-x="1139" 
d="M460.5 1226q-56.5 33 -89.5 89.5t-33 122.5t33 122.5t89.5 89.5t122.5 33t122.5 -33t89.5 -89.5t33 -122.5t-33 -122.5t-89.5 -89.5t-122.5 -33t-122.5 33zM505.5 1516q-32.5 -32 -32.5 -78q0 -45 32.5 -77.5t77.5 -32.5q46 0 78 32.5t32 77.5q0 46 -32 78t-78 32
q-45 0 -77.5 -32zM1011.5 799.5q7.5 -55.5 7.5 -134.5v-665h-185v157q-67 -95 -162.5 -141t-226.5 -46q-116 0 -198 43.5t-124.5 117t-42.5 163.5q0 239 255 320q77 23 174.5 39.5t270.5 40.5l33 4q-5 114 -62 166.5t-182 52.5q-91 0 -160 -42t-95 -128l-195 60
q40 143 154.5 223t297.5 80q149 0 255 -51t155 -155q23 -49 30.5 -104.5zM632 171.5q65 30.5 104.5 79.5t52.5 104q20 58 22 169l-26 -4q-146 -21 -218.5 -34t-130.5 -30q-70 -24 -109.5 -62t-39.5 -98q0 -67 49.5 -111t145.5 -44q85 0 150 30.5z" />
    <glyph glyph-name="ae" unicode="&#xe6;" horiz-adv-x="1876" 
d="M1117 250q74 -83 203 -83q89 0 158 43.5t107 128.5l193 -65q-38 -95 -106.5 -163.5t-156.5 -104.5t-185 -36q-144 0 -254.5 62.5t-175.5 174.5q-135 -237 -443 -237q-118 0 -203 40.5t-129.5 113t-44.5 167.5q0 134 81 207t182 98t230 37l238 19q4 135 -59.5 200
t-180.5 65q-93 0 -162 -41t-98 -125l-192 59q31 88 95.5 156t157 106t204.5 38q131 0 225 -43t148 -124q66 81 160.5 124t211.5 43q151 0 257.5 -71.5t161 -200.5t54.5 -300q0 -38 -1 -57h-762q12 -148 86 -231zM1126 852q-70 -73 -89 -203h553q-16 136 -79.5 206t-190.5 70
q-124 0 -194 -73zM656 184.5q79 45.5 115 112.5q40 77 42 204l-203 -14q-81 -6 -149 -20.5t-121 -55t-53 -114.5q0 -73 52 -115.5t143 -42.5q95 0 174 45.5z" />
    <glyph glyph-name="ccedilla" unicode="&#xe7;" horiz-adv-x="1137" 
d="M763.5 212.5q63.5 45.5 97.5 134.5l212 -50q-48 -143 -152 -226t-253 -98l-24 -68q58 -28 89.5 -73.5t31.5 -108.5q0 -58 -27.5 -105t-74 -73.5t-100.5 -26.5q-67 0 -135 35l48 128q42 -14 69 -14q31 0 49.5 18.5t18.5 43.5t-17 42t-43 27.5t-71 24.5l53 150
q-142 15 -244 91t-156 199t-55 277q1 167 64.5 296.5t182 201.5t278.5 72q117 0 213.5 -40t162 -114t92.5 -175l-208 -60q-31 90 -101.5 141t-161.5 51q-148 0 -223.5 -101.5t-76.5 -271.5q1 -172 78 -272.5t222 -100.5q98 0 161.5 45.5z" />
    <glyph glyph-name="egrave" unicode="&#xe8;" horiz-adv-x="1193" 
d="M697 1240h-164l-143 350h164zM395 248.5q78 -81.5 214 -81.5q97 0 169 44t112 128l205 -65q-62 -143 -190 -223.5t-286 -80.5q-160 0 -282 70.5t-189.5 198t-67.5 292.5q0 175 66 306t186 202t277 71q155 0 268 -69t173.5 -197.5t60.5 -303.5q0 -19 -2 -59h-805
q13 -151 91 -232.5zM406.5 853.5q-77.5 -71.5 -97.5 -209.5h586q-17 143 -85.5 212t-192.5 69q-133 0 -210.5 -71.5z" />
    <glyph glyph-name="eacute" unicode="&#xe9;" horiz-adv-x="1193" 
d="M855 1590l-143 -350h-164l143 350h164zM395 248.5q78 -81.5 214 -81.5q97 0 169 44t112 128l205 -65q-62 -143 -190 -223.5t-286 -80.5q-160 0 -282 70.5t-189.5 198t-67.5 292.5q0 175 66 306t186 202t277 71q155 0 268 -69t173.5 -197.5t60.5 -303.5q0 -19 -2 -59h-805
q13 -151 91 -232.5zM406.5 853.5q-77.5 -71.5 -97.5 -209.5h586q-17 143 -85.5 212t-192.5 69q-133 0 -210.5 -71.5z" />
    <glyph glyph-name="ecircumflex" unicode="&#xea;" horiz-adv-x="1193" 
d="M606 1417l-149 -177h-200l259 300h180l259 -300h-200zM395 248.5q78 -81.5 214 -81.5q97 0 169 44t112 128l205 -65q-62 -143 -190 -223.5t-286 -80.5q-160 0 -282 70.5t-189.5 198t-67.5 292.5q0 175 66 306t186 202t277 71q155 0 268 -69t173.5 -197.5t60.5 -303.5
q0 -19 -2 -59h-805q13 -151 91 -232.5zM406.5 853.5q-77.5 -71.5 -97.5 -209.5h586q-17 143 -85.5 212t-192.5 69q-133 0 -210.5 -71.5z" />
    <glyph glyph-name="edieresis" unicode="&#xeb;" horiz-adv-x="1193" 
d="M507 1461v-200h-200v200h200zM910 1461v-200h-200v200h200zM395 248.5q78 -81.5 214 -81.5q97 0 169 44t112 128l205 -65q-62 -143 -190 -223.5t-286 -80.5q-160 0 -282 70.5t-189.5 198t-67.5 292.5q0 175 66 306t186 202t277 71q155 0 268 -69t173.5 -197.5
t60.5 -303.5q0 -19 -2 -59h-805q13 -151 91 -232.5zM406.5 853.5q-77.5 -71.5 -97.5 -209.5h586q-17 143 -85.5 212t-192.5 69q-133 0 -210.5 -71.5z" />
    <glyph glyph-name="igrave" unicode="&#xec;" horiz-adv-x="529" 
d="M37 1590h164l142 -350h-164zM369 1080v-1080h-209v1080h209z" />
    <glyph glyph-name="iacute" unicode="&#xed;" horiz-adv-x="529" 
d="M186 1240l143 350h164l-143 -350h-164zM369 1080v-1080h-209v1080h209z" />
    <glyph glyph-name="icircumflex" unicode="&#xee;" horiz-adv-x="529" 
d="M185 1540h181l258 -300h-200l-149 177l-148 -177h-200zM369 1080v-1080h-209v1080h209z" />
    <glyph glyph-name="idieresis" unicode="&#xef;" horiz-adv-x="529" 
d="M-37 1461h200v-200h-200v200zM366 1461h200v-200h-200v200zM369 1080v-1080h-209v1080h209z" />
    <glyph glyph-name="eth" unicode="&#xf0;" horiz-adv-x="1183" 
d="M1036 1066q36 -101 51.5 -234.5t15.5 -322.5q0 -163 -62 -285t-177.5 -188t-270.5 -66q-153 0 -269 66.5t-180 187.5t-64 279q0 159 64 280t180.5 187.5t268.5 66.5q84 0 159.5 -26.5t148.5 -83.5q-12 84 -55.5 158.5t-111.5 129.5l-105 -124l-121 106l85 100
q-82 34 -172 40l32 165q148 -6 263 -60l105 123l120 -105l-91 -107q51 -46 89 -102q61 -84 97 -185zM814 250q78 92 78 255q0 107 -35.5 184.5t-103 118.5t-160.5 41q-146 1 -224 -90t-78 -255q0 -165 78.5 -255.5t223.5 -90.5q143 0 221 92z" />
    <glyph glyph-name="ntilde" unicode="&#xf1;" 
d="M291 1267q-11 46 -11 82q0 82 45.5 132t129.5 50q45 0 88 -20t98 -56q44 -28 70.5 -41.5t49.5 -13.5q24 0 37.5 18t13.5 48q0 21 -6 43h136q10 -40 10 -82q0 -82 -45.5 -132.5t-129.5 -50.5q-44 0 -85.5 19.5t-99.5 56.5q-43 28 -70 41.5t-51 13.5q-25 0 -38 -17.5
t-13 -46.5q0 -23 7 -44h-136zM948.5 1023.5q95.5 -85.5 128.5 -199.5t33 -224v-600h-212v531q0 159 -59 269.5t-214 110.5q-123 0 -198.5 -84t-75.5 -265v-562h-212v1080h187v-129q61 76 151 117t206 41q170 0 265.5 -85.5z" />
    <glyph glyph-name="ograve" unicode="&#xf2;" horiz-adv-x="1219" 
d="M374 1590h164l142 -350h-164zM330 42.5q-120 72.5 -185 202t-65 296.5q0 168 66 297t186 200.5t277 71.5q159 0 279.5 -72t185.5 -201.5t65 -295.5q0 -168 -65.5 -297.5t-185.5 -201.5t-279 -72t-279 72.5zM838 268.5q79 101.5 79 272.5q0 173 -79 272.5t-229 99.5
q-152 0 -229.5 -100t-77.5 -272q0 -174 79 -274t228 -100q150 0 229 101.5z" />
    <glyph glyph-name="oacute" unicode="&#xf3;" horiz-adv-x="1219" 
d="M528 1240l143 350h164l-143 -350h-164zM330 42.5q-120 72.5 -185 202t-65 296.5q0 168 66 297t186 200.5t277 71.5q159 0 279.5 -72t185.5 -201.5t65 -295.5q0 -168 -65.5 -297.5t-185.5 -201.5t-279 -72t-279 72.5zM838 268.5q79 101.5 79 272.5q0 173 -79 272.5
t-229 99.5q-152 0 -229.5 -100t-77.5 -272q0 -174 79 -274t228 -100q150 0 229 101.5z" />
    <glyph glyph-name="ocircumflex" unicode="&#xf4;" horiz-adv-x="1219" 
d="M517 1540h181l258 -300h-200l-149 177l-148 -177h-200zM330 42.5q-120 72.5 -185 202t-65 296.5q0 168 66 297t186 200.5t277 71.5q159 0 279.5 -72t185.5 -201.5t65 -295.5q0 -168 -65.5 -297.5t-185.5 -201.5t-279 -72t-279 72.5zM838 268.5q79 101.5 79 272.5
q0 173 -79 272.5t-229 99.5q-152 0 -229.5 -100t-77.5 -272q0 -174 79 -274t228 -100q150 0 229 101.5z" />
    <glyph glyph-name="otilde" unicode="&#xf5;" horiz-adv-x="1219" 
d="M685.5 1263.5q-41.5 19.5 -99.5 56.5q-43 28 -70 41.5t-51 13.5q-25 0 -38 -17.5t-13 -46.5q0 -23 7 -44h-136q-11 46 -11 82q0 82 45.5 132t129.5 50q45 0 88 -20t98 -56q44 -28 70.5 -41.5t49.5 -13.5q24 0 37.5 18t13.5 48q0 21 -6 43h136q10 -40 10 -82
q0 -82 -45.5 -132.5t-129.5 -50.5q-44 0 -85.5 19.5zM330 42.5q-120 72.5 -185 202t-65 296.5q0 168 66 297t186 200.5t277 71.5q159 0 279.5 -72t185.5 -201.5t65 -295.5q0 -168 -65.5 -297.5t-185.5 -201.5t-279 -72t-279 72.5zM838 268.5q79 101.5 79 272.5
q0 173 -79 272.5t-229 99.5q-152 0 -229.5 -100t-77.5 -272q0 -174 79 -274t228 -100q150 0 229 101.5z" />
    <glyph glyph-name="odieresis" unicode="&#xf6;" horiz-adv-x="1219" 
d="M309 1461h200v-200h-200v200zM711 1461h200v-200h-200v200zM330 42.5q-120 72.5 -185 202t-65 296.5q0 168 66 297t186 200.5t277 71.5q159 0 279.5 -72t185.5 -201.5t65 -295.5q0 -168 -65.5 -297.5t-185.5 -201.5t-279 -72t-279 72.5zM838 268.5q79 101.5 79 272.5
q0 173 -79 272.5t-229 99.5q-152 0 -229.5 -100t-77.5 -272q0 -174 79 -274t228 -100q150 0 229 101.5z" />
    <glyph glyph-name="divide" unicode="&#xf7;" horiz-adv-x="1080" 
d="M647 1127v-208h-208v208h208zM960 805v-168h-840v168h840zM647 526v-208h-208v208h208z" />
    <glyph glyph-name="oslash" unicode="&#xf8;" horiz-adv-x="1219" 
d="M1064 854q75 -133 75 -313q0 -168 -65.5 -297.5t-185.5 -201.5t-279 -72q-191 0 -326 105l-95 -95l-140 140l106 106q-74 137 -74 315q0 168 66 297t186 200.5t277 71.5q96 0 178.5 -27t148.5 -77l95 94l140 -141zM379.5 813q-77.5 -100 -77.5 -272q0 -96 24 -171
l479 477q-75 66 -196 66q-152 0 -229.5 -100zM838 268.5q79 101.5 79 272.5q0 96 -24 169l-478 -478q76 -65 194 -65q150 0 229 101.5z" />
    <glyph glyph-name="ugrave" unicode="&#xf9;" 
d="M694 1240h-164l-142 350h164zM1090 1080v-1080h-186v129q-61 -76 -151 -117t-206 -41q-170 0 -265.5 85.5t-128.5 199.5t-33 224v600h212v-531q0 -159 59 -269.5t214 -110.5q123 0 198.5 84t75.5 265v562h211z" />
    <glyph glyph-name="uacute" unicode="&#xfa;" 
d="M821 1590l-143 -350h-164l143 350h164zM1090 1080v-1080h-186v129q-61 -76 -151 -117t-206 -41q-170 0 -265.5 85.5t-128.5 199.5t-33 224v600h212v-531q0 -159 59 -269.5t214 -110.5q123 0 198.5 84t75.5 265v562h211z" />
    <glyph glyph-name="ucircumflex" unicode="&#xfb;" 
d="M602 1417l-149 -177h-200l259 300h180l259 -300h-200zM1090 1080v-1080h-186v129q-61 -76 -151 -117t-206 -41q-170 0 -265.5 85.5t-128.5 199.5t-33 224v600h212v-531q0 -159 59 -269.5t214 -110.5q123 0 198.5 84t75.5 265v562h211z" />
    <glyph glyph-name="udieresis" unicode="&#xfc;" 
d="M503 1461v-200h-200v200h200zM906 1461v-200h-200v200h200zM1090 1080v-1080h-186v129q-61 -76 -151 -117t-206 -41q-170 0 -265.5 85.5t-128.5 199.5t-33 224v600h212v-531q0 -159 59 -269.5t214 -110.5q123 0 198.5 84t75.5 265v562h211z" />
    <glyph glyph-name="yacute" unicode="&#xfd;" horiz-adv-x="1097" 
d="M782 1590l-143 -350h-164l143 350h164zM869 1080h212l-596 -1560h-199l178 485l-437 1075h218l319 -812z" />
    <glyph glyph-name="thorn" unicode="&#xfe;" horiz-adv-x="1216" 
d="M903.5 1036.5q111.5 -73.5 172 -203t60.5 -292.5q0 -162 -60 -292t-171 -204.5t-258 -74.5q-178 0 -298 106v-556h-210v1560h1v360h211v-432q118 102 292 102q149 0 260.5 -73.5zM781.5 209q66.5 50 99.5 136t33 196q0 109 -33 195t-101 135.5t-169 49.5
q-143 0 -214.5 -102.5t-71.5 -277.5q0 -177 72.5 -279.5t220.5 -102.5q97 0 163.5 50z" />
    <glyph glyph-name="ydieresis" unicode="&#xff;" horiz-adv-x="1097" 
d="M459 1461v-200h-200v200h200zM862 1461v-200h-200v200h200zM869 1080h212l-596 -1560h-199l178 485l-437 1075h218l319 -812z" />
    <glyph glyph-name="Amacron" unicode="&#x100;" horiz-adv-x="1317" 
d="M921 1847v-167h-523v167h523zM1060 0l-107 325h-591l-105 -325h-217l468 1440h301l468 -1440h-217zM426 521h463l-233 710z" />
    <glyph glyph-name="amacron" unicode="&#x101;" horiz-adv-x="1139" 
d="M872 1487v-167h-523v167h523zM1011.5 799.5q7.5 -55.5 7.5 -134.5v-665h-185v157q-67 -95 -162.5 -141t-226.5 -46q-116 0 -198 43.5t-124.5 117t-42.5 163.5q0 239 255 320q77 23 174.5 39.5t270.5 40.5l33 4q-5 114 -62 166.5t-182 52.5q-91 0 -160 -42t-95 -128
l-195 60q40 143 154.5 223t297.5 80q149 0 255 -51t155 -155q23 -49 30.5 -104.5zM632 171.5q65 30.5 104.5 79.5t52.5 104q20 58 22 169l-26 -4q-146 -21 -218.5 -34t-130.5 -30q-70 -24 -109.5 -62t-39.5 -98q0 -67 49.5 -111t145.5 -44q85 0 150 30.5z" />
    <glyph glyph-name="Abreve" unicode="&#x102;" horiz-adv-x="1317" 
d="M515 1603q-66 39 -105 105t-39 144h166q0 -50 36 -86t86 -36q51 0 86.5 36t35.5 86h166q0 -78 -38.5 -144.5t-104.5 -105t-145 -38.5q-78 0 -144 39zM1060 0l-107 325h-591l-105 -325h-217l468 1440h301l468 -1440h-217zM426 521h463l-233 710z" />
    <glyph glyph-name="abreve" unicode="&#x103;" horiz-adv-x="1139" 
d="M437 1243q-66 39 -105 105t-39 144h166q0 -50 36 -86t86 -36q51 0 86.5 36t35.5 86h166q0 -78 -38.5 -144.5t-104.5 -105t-145 -38.5q-78 0 -144 39zM1011.5 799.5q7.5 -55.5 7.5 -134.5v-665h-185v157q-67 -95 -162.5 -141t-226.5 -46q-116 0 -198 43.5t-124.5 117
t-42.5 163.5q0 239 255 320q77 23 174.5 39.5t270.5 40.5l33 4q-5 114 -62 166.5t-182 52.5q-91 0 -160 -42t-95 -128l-195 60q40 143 154.5 223t297.5 80q149 0 255 -51t155 -155q23 -49 30.5 -104.5zM632 171.5q65 30.5 104.5 79.5t52.5 104q20 58 22 169l-26 -4
q-146 -21 -218.5 -34t-130.5 -30q-70 -24 -109.5 -62t-39.5 -98q0 -67 49.5 -111t145.5 -44q85 0 150 30.5z" />
    <glyph glyph-name="Aogonek" unicode="&#x104;" horiz-adv-x="1317" 
d="M1197 -282l80 -101q-35 -47 -83.5 -72t-101.5 -25q-58 0 -105.5 29.5t-74.5 78t-27 103.5q0 73 45 149.5t122 142.5l-99 302h-591l-105 -325h-217l468 1440h301l468 -1440q-60 -34 -111.5 -79.5t-82 -92.5t-30.5 -83q0 -28 18.5 -47t45.5 -19q39 0 80 39zM426 521h463
l-233 710z" />
    <glyph glyph-name="aogonek" unicode="&#x105;" horiz-adv-x="1139" 
d="M907.5 -79.5q-51.5 -45.5 -82 -92.5t-30.5 -83q0 -28 18.5 -47t45.5 -19q39 0 80 39l80 -101q-35 -47 -83.5 -72t-101.5 -25q-58 0 -105.5 29.5t-74.5 78t-27 103.5q0 82 57 168.5t150 155.5v102q-67 -95 -162.5 -141t-226.5 -46q-116 0 -198 43.5t-124.5 117
t-42.5 163.5q0 239 255 320q77 23 174.5 39.5t270.5 40.5l33 4q-5 114 -62 166.5t-182 52.5q-91 0 -160 -42t-95 -128l-195 60q40 143 154.5 223t297.5 80q149 0 255 -51t155 -155q23 -49 30.5 -104.5t7.5 -134.5v-665q-60 -34 -111.5 -79.5zM632 171.5q65 30.5 104.5 79.5
t52.5 104q20 58 22 169l-26 -4q-146 -21 -218.5 -34t-130.5 -30q-70 -24 -109.5 -62t-39.5 -98q0 -67 49.5 -111t145.5 -44q85 0 150 30.5z" />
    <glyph glyph-name="Cacute" unicode="&#x106;" horiz-adv-x="1461" 
d="M678 1600l143 350h164l-143 -350h-164zM375 64q-154 94 -234.5 263.5t-80.5 392.5t80.5 392.5t234.5 263.5t366 94q163 0 292.5 -56.5t217 -161t130.5 -247.5l-212 -57q-44 154 -152 238.5t-276 84.5q-150 0 -253 -68t-154.5 -192t-52.5 -291t51 -291t155.5 -192
t253.5 -68q168 0 276 84.5t152 238.5l212 -57q-43 -143 -130.5 -247.5t-217 -161t-292.5 -56.5q-212 0 -366 94z" />
    <glyph glyph-name="cacute" unicode="&#x107;" horiz-adv-x="1137" 
d="M528 1240l143 350h164l-143 -350h-164zM322.5 43q-117.5 73 -179.5 202t-63 295q1 167 64.5 296.5t182 201.5t278.5 72q117 0 213.5 -40t162 -114t92.5 -175l-208 -60q-31 90 -101.5 141t-161.5 51q-148 0 -223.5 -101.5t-76.5 -271.5q1 -172 78 -272.5t222 -100.5
q98 0 161.5 45.5t97.5 134.5l212 -50q-53 -159 -175 -243t-296 -84q-162 0 -279.5 73z" />
    <glyph glyph-name="Ccircumflex" unicode="&#x108;" horiz-adv-x="1461" 
d="M648 1900h181l258 -300h-200l-149 177l-148 -177h-200zM375 64q-154 94 -234.5 263.5t-80.5 392.5t80.5 392.5t234.5 263.5t366 94q163 0 292.5 -56.5t217 -161t130.5 -247.5l-212 -57q-44 154 -152 238.5t-276 84.5q-150 0 -253 -68t-154.5 -192t-52.5 -291t51 -291
t155.5 -192t253.5 -68q168 0 276 84.5t152 238.5l212 -57q-43 -143 -130.5 -247.5t-217 -161t-292.5 -56.5q-212 0 -366 94z" />
    <glyph glyph-name="ccircumflex" unicode="&#x109;" horiz-adv-x="1137" 
d="M517 1540h181l258 -300h-200l-149 177l-148 -177h-200zM322.5 43q-117.5 73 -179.5 202t-63 295q1 167 64.5 296.5t182 201.5t278.5 72q117 0 213.5 -40t162 -114t92.5 -175l-208 -60q-31 90 -101.5 141t-161.5 51q-148 0 -223.5 -101.5t-76.5 -271.5q1 -172 78 -272.5
t222 -100.5q98 0 161.5 45.5t97.5 134.5l212 -50q-53 -159 -175 -243t-296 -84q-162 0 -279.5 73z" />
    <glyph glyph-name="Cdotaccent" unicode="&#x10a;" horiz-adv-x="1461" 
d="M642 1880h221v-221h-221v221zM375 64q-154 94 -234.5 263.5t-80.5 392.5t80.5 392.5t234.5 263.5t366 94q163 0 292.5 -56.5t217 -161t130.5 -247.5l-212 -57q-44 154 -152 238.5t-276 84.5q-150 0 -253 -68t-154.5 -192t-52.5 -291t51 -291t155.5 -192t253.5 -68
q168 0 276 84.5t152 238.5l212 -57q-43 -143 -130.5 -247.5t-217 -161t-292.5 -56.5q-212 0 -366 94z" />
    <glyph glyph-name="cdotaccent" unicode="&#x10b;" horiz-adv-x="1137" 
d="M519 1520h221v-221h-221v221zM322.5 43q-117.5 73 -179.5 202t-63 295q1 167 64.5 296.5t182 201.5t278.5 72q117 0 213.5 -40t162 -114t92.5 -175l-208 -60q-31 90 -101.5 141t-161.5 51q-148 0 -223.5 -101.5t-76.5 -271.5q1 -172 78 -272.5t222 -100.5
q98 0 161.5 45.5t97.5 134.5l212 -50q-53 -159 -175 -243t-296 -84q-162 0 -279.5 73z" />
    <glyph glyph-name="Ccaron" unicode="&#x10c;" horiz-adv-x="1461" 
d="M605 1900l148 -177l149 177h200l-258 -300h-181l-258 300h200zM375 64q-154 94 -234.5 263.5t-80.5 392.5t80.5 392.5t234.5 263.5t366 94q163 0 292.5 -56.5t217 -161t130.5 -247.5l-212 -57q-44 154 -152 238.5t-276 84.5q-150 0 -253 -68t-154.5 -192t-52.5 -291
t51 -291t155.5 -192t253.5 -68q168 0 276 84.5t152 238.5l212 -57q-43 -143 -130.5 -247.5t-217 -161t-292.5 -56.5q-212 0 -366 94z" />
    <glyph glyph-name="ccaron" unicode="&#x10d;" horiz-adv-x="1137" 
d="M453 1540l149 -177l149 177h200l-259 -300h-180l-259 300h200zM322.5 43q-117.5 73 -179.5 202t-63 295q1 167 64.5 296.5t182 201.5t278.5 72q117 0 213.5 -40t162 -114t92.5 -175l-208 -60q-31 90 -101.5 141t-161.5 51q-148 0 -223.5 -101.5t-76.5 -271.5
q1 -172 78 -272.5t222 -100.5q98 0 161.5 45.5t97.5 134.5l212 -50q-53 -159 -175 -243t-296 -84q-162 0 -279.5 73z" />
    <glyph glyph-name="Dcaron" unicode="&#x10e;" horiz-adv-x="1381" 
d="M462 1900l149 -177l148 177h200l-258 -300h-181l-258 300h200zM770 1431q165 -21 281.5 -119t176.5 -252t60 -340t-60 -340t-176.5 -252t-281.5 -119q-67 -9 -179 -9h-451v1440h451q112 0 179 -9zM755 209q106 20 175.5 93t102.5 181t33 237q0 131 -33.5 239.5
t-103.5 180.5t-174 91q-53 10 -164 10h-237v-1042h237q111 0 164 10z" />
    <glyph glyph-name="dcaron" unicode="&#x10f;" horiz-adv-x="1526" 
d="M1077 1440v-1440h-186v99q-60 -62 -141 -95.5t-181 -33.5q-147 0 -258 74.5t-171 204.5t-60 292q0 163 60.5 292.5t172 203t260.5 73.5q176 0 294 -104v434h210zM818.5 261.5q72.5 102.5 72.5 279.5q0 175 -71.5 277.5t-214.5 102.5q-101 0 -169 -49.5t-101 -135.5
t-33 -195q0 -110 33 -196t99.5 -136t163.5 -50q148 0 220.5 102.5zM1344.5 1085.5q25.5 30.5 25.5 85.5q0 10 -2 34h-115v241h221v-261q0 -106 -44.5 -165t-128.5 -59q-20 0 -48 5l13 93q53 -4 78.5 26.5z" />
    <glyph glyph-name="Dcroat" unicode="&#x110;" horiz-adv-x="1379" 
d="M1049.5 1312q116.5 -98 176.5 -252t60 -340t-60 -340t-176.5 -252t-281.5 -119q-67 -9 -179 -9h-451v637h-118v168h118v635h451q112 0 179 -9q165 -21 281.5 -119zM928.5 302q69.5 73 102.5 181t33 237q0 131 -33.5 239.5t-103.5 180.5t-174 91q-53 10 -164 10h-237v-436
h328v-168h-328v-438h237q111 0 164 10q106 20 175.5 93z" />
    <glyph glyph-name="dcroat" unicode="&#x111;" horiz-adv-x="1217" 
d="M1209 1173h-132v-1173h-186v99q-60 -62 -141 -95.5t-181 -33.5q-147 0 -258 74.5t-171 204.5t-60 292q0 163 60.5 292.5t172 203t260.5 73.5q176 0 294 -104v167h-180v167h180v100h210v-100h132v-167zM818.5 261.5q72.5 102.5 72.5 279.5q0 175 -71.5 277.5t-214.5 102.5
q-101 0 -169 -49.5t-101 -135.5t-33 -195q0 -110 33 -196t99.5 -136t163.5 -50q148 0 220.5 102.5z" />
    <glyph glyph-name="Emacron" unicode="&#x112;" horiz-adv-x="1160" 
d="M345 1847h523v-167h-523v167zM1060 1440v-197h-711v-404h591v-197h-591v-445h711v-197h-920v1440h920z" />
    <glyph glyph-name="emacron" unicode="&#x113;" horiz-adv-x="1193" 
d="M890 1487v-167h-523v167h523zM395 248.5q78 -81.5 214 -81.5q97 0 169 44t112 128l205 -65q-62 -143 -190 -223.5t-286 -80.5q-160 0 -282 70.5t-189.5 198t-67.5 292.5q0 175 66 306t186 202t277 71q155 0 268 -69t173.5 -197.5t60.5 -303.5q0 -19 -2 -59h-805
q13 -151 91 -232.5zM406.5 853.5q-77.5 -71.5 -97.5 -209.5h586q-17 143 -85.5 212t-192.5 69q-133 0 -210.5 -71.5z" />
    <glyph glyph-name="Edotaccent" unicode="&#x116;" horiz-adv-x="1160" 
d="M491 1880h222v-221h-222v221zM1060 1440v-197h-711v-404h591v-197h-591v-445h711v-197h-920v1440h920z" />
    <glyph glyph-name="edotaccent" unicode="&#x117;" horiz-adv-x="1193" 
d="M721 1520v-221h-222v221h222zM395 248.5q78 -81.5 214 -81.5q97 0 169 44t112 128l205 -65q-62 -143 -190 -223.5t-286 -80.5q-160 0 -282 70.5t-189.5 198t-67.5 292.5q0 175 66 306t186 202t277 71q155 0 268 -69t173.5 -197.5t60.5 -303.5q0 -19 -2 -59h-805
q13 -151 91 -232.5zM406.5 853.5q-77.5 -71.5 -97.5 -209.5h586q-17 143 -85.5 212t-192.5 69q-133 0 -210.5 -71.5z" />
    <glyph glyph-name="Eogonek" unicode="&#x118;" horiz-adv-x="1160" 
d="M349 1243v-404h591v-197h-591v-445h711v-197q-60 -34 -111.5 -79.5t-81.5 -92.5t-30 -83q0 -28 18.5 -47t45.5 -19q19 0 40 10t40 29l79 -101q-35 -47 -83.5 -72t-101.5 -25q-58 0 -105 29.5t-74 78t-27 103.5q0 66 37.5 136t102.5 133h-669v1440h920v-197h-711z" />
    <glyph glyph-name="eogonek" unicode="&#x119;" horiz-adv-x="1193" 
d="M395 248.5q78 -81.5 214 -81.5q97 0 169 44t112 128l205 -65q-21 -47 -49 -89q-39 -65 -108 -166q-18 -27 -53 -80q-57 -97 -75 -158q-5 -15 -5 -34q0 -28 16 -45q18 -19 45 -19q21 0 43.5 10t40.5 26l80 -102q-34 -52 -94 -78q-38 -17 -83 -17q-48 0 -90.5 19.5
t-71.5 55.5q-25 28 -38 66t-13 79q0 46 18 93q22 58 81 148q-56 -13 -120 -13q-160 0 -282 70.5t-189.5 198t-67.5 292.5q0 175 66 306t186 202t277 71q155 0 268 -69t173.5 -197.5t60.5 -303.5q0 -19 -2 -59h-805q13 -151 91 -232.5zM406.5 853.5q-77.5 -71.5 -97.5 -209.5
h586q-17 143 -85.5 212t-192.5 69q-133 0 -210.5 -71.5z" />
    <glyph glyph-name="Ecaron" unicode="&#x11a;" horiz-adv-x="1160" 
d="M457 1900l149 -177l149 177h200l-259 -300h-180l-259 300h200zM1060 1440v-197h-711v-404h591v-197h-591v-445h711v-197h-920v1440h920z" />
    <glyph glyph-name="ecaron" unicode="&#x11b;" horiz-adv-x="1193" 
d="M696 1240h-180l-259 300h200l149 -177l149 177h200zM395 248.5q78 -81.5 214 -81.5q97 0 169 44t112 128l205 -65q-62 -143 -190 -223.5t-286 -80.5q-160 0 -282 70.5t-189.5 198t-67.5 292.5q0 175 66 306t186 202t277 71q155 0 268 -69t173.5 -197.5t60.5 -303.5
q0 -19 -2 -59h-805q13 -151 91 -232.5zM406.5 853.5q-77.5 -71.5 -97.5 -209.5h586q-17 143 -85.5 212t-192.5 69q-133 0 -210.5 -71.5z" />
    <glyph glyph-name="Gcircumflex" unicode="&#x11c;" horiz-adv-x="1446" 
d="M627 1900h180l259 -300h-200l-149 177l-149 -177h-200zM383.5 60q-151.5 90 -237.5 259.5t-86 400.5q0 229 84.5 398.5t236 260t348.5 90.5q248 0 401.5 -115.5t210.5 -328.5l-212 -38q-45 132 -144 207.5t-244 76.5q-150 1 -252.5 -67t-154 -192.5t-52.5 -291.5
q-1 -168 51.5 -292t157 -191.5t257.5 -67.5q181 0 285.5 105.5t126.5 305.5h-280v168h502q4 -33 4 -85q0 -202 -77.5 -359t-226 -245.5t-353.5 -88.5q-194 0 -345.5 90z" />
    <glyph glyph-name="gcircumflex" unicode="&#x11d;" horiz-adv-x="1216" 
d="M605 1417l-148 -177h-200l258 300h181l258 -300h-200zM1076 1080v-1109q0 -95 -14 -160q-33 -160 -158 -240.5t-319 -80.5q-134 0 -248.5 61.5t-179.5 174.5l193 98q34 -66 97.5 -99.5t139.5 -33.5q135 0 208 72t71 210v102q-119 -105 -297 -105q-147 0 -258 74.5
t-171 204.5t-60 292q0 163 60.5 292.5t172 203t260.5 73.5q99 0 179 -33t139 -94v97h185zM818.5 261.5q72.5 102.5 72.5 279.5q0 175 -71.5 277.5t-214.5 102.5q-101 0 -169 -49.5t-101 -135.5t-33 -195q0 -110 33 -196t99.5 -136t163.5 -50q148 0 220.5 102.5z" />
    <glyph glyph-name="Gbreve" unicode="&#x11e;" horiz-adv-x="1446" 
d="M590 1603q-66 39 -105 105t-39 144h166q0 -50 36 -86t86 -36q51 0 86.5 36t35.5 86h166q0 -78 -38.5 -144.5t-104.5 -105t-145 -38.5q-78 0 -144 39zM383.5 60q-151.5 90 -237.5 259.5t-86 400.5q0 229 84.5 398.5t236 260t348.5 90.5q248 0 401.5 -115.5t210.5 -328.5
l-212 -38q-45 132 -144 207.5t-244 76.5q-150 1 -252.5 -67t-154 -192.5t-52.5 -291.5q-1 -168 51.5 -292t157 -191.5t257.5 -67.5q181 0 285.5 105.5t126.5 305.5h-280v168h502q4 -33 4 -85q0 -202 -77.5 -359t-226 -245.5t-353.5 -88.5q-194 0 -345.5 90z" />
    <glyph glyph-name="gbreve" unicode="&#x11f;" horiz-adv-x="1216" 
d="M517 1243q-66 39 -105 105t-39 144h166q0 -50 36 -86t86 -36q51 0 86.5 36t35.5 86h166q0 -78 -38.5 -144.5t-104.5 -105t-145 -38.5q-78 0 -144 39zM1076 1080v-1109q0 -95 -14 -160q-33 -160 -158 -240.5t-319 -80.5q-134 0 -248.5 61.5t-179.5 174.5l193 98
q34 -66 97.5 -99.5t139.5 -33.5q135 0 208 72t71 210v102q-119 -105 -297 -105q-147 0 -258 74.5t-171 204.5t-60 292q0 163 60.5 292.5t172 203t260.5 73.5q99 0 179 -33t139 -94v97h185zM818.5 261.5q72.5 102.5 72.5 279.5q0 175 -71.5 277.5t-214.5 102.5
q-101 0 -169 -49.5t-101 -135.5t-33 -195q0 -110 33 -196t99.5 -136t163.5 -50q148 0 220.5 102.5z" />
    <glyph glyph-name="Gdotaccent" unicode="&#x120;" horiz-adv-x="1446" 
d="M639 1880h222v-221h-222v221zM383.5 60q-151.5 90 -237.5 259.5t-86 400.5q0 229 84.5 398.5t236 260t348.5 90.5q248 0 401.5 -115.5t210.5 -328.5l-212 -38q-45 132 -144 207.5t-244 76.5q-150 1 -252.5 -67t-154 -192.5t-52.5 -291.5q-1 -168 51.5 -292t157 -191.5
t257.5 -67.5q181 0 285.5 105.5t126.5 305.5h-280v168h502q4 -33 4 -85q0 -202 -77.5 -359t-226 -245.5t-353.5 -88.5q-194 0 -345.5 90z" />
    <glyph glyph-name="gdotaccent" unicode="&#x121;" horiz-adv-x="1216" 
d="M761 1520v-221h-222v221h222zM1076 1080v-1109q0 -95 -14 -160q-33 -160 -158 -240.5t-319 -80.5q-134 0 -248.5 61.5t-179.5 174.5l193 98q34 -66 97.5 -99.5t139.5 -33.5q135 0 208 72t71 210v102q-119 -105 -297 -105q-147 0 -258 74.5t-171 204.5t-60 292
q0 163 60.5 292.5t172 203t260.5 73.5q99 0 179 -33t139 -94v97h185zM818.5 261.5q72.5 102.5 72.5 279.5q0 175 -71.5 277.5t-214.5 102.5q-101 0 -169 -49.5t-101 -135.5t-33 -195q0 -110 33 -196t99.5 -136t163.5 -50q148 0 220.5 102.5z" />
    <glyph glyph-name="uni0122" unicode="&#x122;" horiz-adv-x="1446" 
d="M383.5 60q-151.5 90 -237.5 259.5t-86 400.5q0 229 84.5 398.5t236 260t348.5 90.5q248 0 401.5 -115.5t210.5 -328.5l-212 -38q-45 132 -144 207.5t-244 76.5q-150 1 -252.5 -67t-154 -192.5t-52.5 -291.5q-1 -168 51.5 -292t157 -191.5t257.5 -67.5q181 0 285.5 105.5
t126.5 305.5h-280v168h502q4 -33 4 -85q0 -202 -77.5 -359t-226 -245.5t-353.5 -88.5q-194 0 -345.5 90zM698.5 -486q26.5 8 47.5 30t20 61h-115v211h210v-211q0 -59 -27.5 -103.5t-75.5 -68t-107 -23.5v96q21 0 47.5 8z" />
    <glyph glyph-name="uni0123" unicode="&#x123;" horiz-adv-x="1216" 
d="M731 1299h-210v210q0 59 27.5 103.5t75.5 68.5t107 24v-96q-20 0 -47 -8t-48 -30.5t-20 -61.5h115v-210zM1076 1080v-1109q0 -95 -14 -160q-33 -160 -158 -240.5t-319 -80.5q-134 0 -248.5 61.5t-179.5 174.5l193 98q34 -66 97.5 -99.5t139.5 -33.5q135 0 208 72t71 210
v102q-119 -105 -297 -105q-147 0 -258 74.5t-171 204.5t-60 292q0 163 60.5 292.5t172 203t260.5 73.5q99 0 179 -33t139 -94v97h185zM818.5 261.5q72.5 102.5 72.5 279.5q0 175 -71.5 277.5t-214.5 102.5q-101 0 -169 -49.5t-101 -135.5t-33 -195q0 -110 33 -196t99.5 -136
t163.5 -50q148 0 220.5 102.5z" />
    <glyph glyph-name="Hcircumflex" unicode="&#x124;" horiz-adv-x="1419" 
d="M616 1900h181l258 -300h-200l-148 177l-149 -177h-200zM349 1440v-621h720v621h210v-1440h-210v622h-720v-622h-209v1440h209z" />
    <glyph glyph-name="hcircumflex" unicode="&#x125;" 
d="M378 1600l-148 177l-149 -177h-200l258 300h181l258 -300h-200zM948.5 1023.5q95.5 -85.5 128.5 -199.5t33 -224v-600h-212v531q0 159 -59 269.5t-214 110.5q-123 0 -198.5 -84t-75.5 -265v-562h-212v1440h187v-489q61 76 151 117t206 41q170 0 265.5 -85.5z" />
    <glyph glyph-name="Hbar" unicode="&#x126;" horiz-adv-x="1459" 
d="M1439 1188v-197h-140v-991h-210v622h-720v-622h-209v991h-140v197h140v252h209v-252h720v252h210v-252h140zM1089 819v172h-720v-172h720z" />
    <glyph glyph-name="hbar" unicode="&#x127;" 
d="M948.5 1023.5q95.5 -85.5 128.5 -199.5t33 -224v-600h-212v531q0 159 -59 269.5t-214 110.5q-123 0 -198.5 -84t-75.5 -265v-562h-212v1173h-115v167h115v100h187v-100h221v-167h-221v-222q61 76 151 117t206 41q170 0 265.5 -85.5z" />
    <glyph glyph-name="Itilde" unicode="&#x128;" horiz-adv-x="529" 
d="M338 1624q-43 20 -98 56q-44 28 -70.5 41.5t-49.5 13.5q-25 0 -38.5 -18t-13.5 -47q0 -17 7 -43h-136q-11 46 -11 82q0 82 45.5 132t129.5 50q45 0 86.5 -19.5t99.5 -56.5q43 -28 70.5 -41.5t50.5 -13.5q24 0 37.5 18t13.5 48q0 21 -7 43h136q11 -46 11 -82
q0 -82 -45.5 -132.5t-129.5 -50.5q-45 0 -88 20zM369 1440v-1440h-209v1440h209z" />
    <glyph glyph-name="itilde" unicode="&#x129;" horiz-adv-x="529" 
d="M338 1264q-43 20 -98 56q-44 28 -70.5 41.5t-49.5 13.5q-25 0 -38.5 -18t-13.5 -47q0 -17 7 -43h-136q-11 46 -11 82q0 82 45.5 132t129.5 50q45 0 86.5 -19.5t99.5 -56.5q43 -28 70.5 -41.5t50.5 -13.5q24 0 37.5 18t13.5 48q0 21 -7 43h136q11 -46 11 -82
q0 -82 -45.5 -132.5t-129.5 -50.5q-45 0 -88 20zM369 1080v-1080h-209v1080h209z" />
    <glyph glyph-name="Imacron" unicode="&#x12a;" horiz-adv-x="529" 
d="M3 1847h523v-167h-523v167zM369 1440v-1440h-209v1440h209z" />
    <glyph glyph-name="imacron" unicode="&#x12b;" horiz-adv-x="529" 
d="M3 1487h523v-167h-523v167zM369 1080v-1080h-209v1080h209z" />
    <glyph glyph-name="Iogonek" unicode="&#x12e;" horiz-adv-x="529" 
d="M257.5 -79.5q-51.5 -45.5 -81.5 -92.5t-30 -83q0 -28 18.5 -47t45.5 -19q19 0 40 10t40 29l79 -101q-34 -46 -83 -71.5t-101 -25.5q-58 0 -105.5 29.5t-74.5 78t-27 103.5q0 77 49.5 157.5t132.5 147.5v1404h209v-1440q-60 -34 -111.5 -79.5z" />
    <glyph glyph-name="iogonek" unicode="&#x12f;" horiz-adv-x="529" 
d="M160 1460h209v-203h-209v203zM160 1080h209v-1080q-60 -34 -111.5 -79.5t-81.5 -92.5t-30 -83q0 -28 18.5 -47t45.5 -19q19 0 40 10t40 29l79 -101q-34 -46 -83 -71.5t-101 -25.5q-58 0 -105.5 29.5t-74.5 78t-27 103.5q0 77 49.5 157.5t132.5 147.5v1044z" />
    <glyph glyph-name="Idotaccent" unicode="&#x130;" horiz-adv-x="529" 
d="M154 1880h221v-221h-221v221zM369 1440v-1440h-209v1440h209z" />
    <glyph glyph-name="dotlessi" unicode="&#x131;" horiz-adv-x="529" 
d="M160 1080h209v-1080h-209v1080z" />
    <glyph glyph-name="Jcircumflex" unicode="&#x134;" horiz-adv-x="977" 
d="M617 1900h181l258 -300h-200l-149 177l-148 -177h-200zM150 53.5q-108 82.5 -150 227.5l207 49q9 -45 38.5 -82t72 -58.5t89.5 -21.5q52 0 101 25.5t73 76.5q16 32 19.5 72.5t3.5 118.5v979h212v-979v-73q0 -76 -8.5 -125.5t-38.5 -100.5q-55 -96 -147 -143.5t-208 -47.5
q-156 0 -264 82.5z" />
    <glyph glyph-name="jcircumflex" unicode="&#x135;" horiz-adv-x="551" 
d="M206 1540h181l258 -300h-200l-148 177l-149 -177h-200zM35 -282q82 0 121 40t39 123v1199h210v-1284q0 -132 -73 -204t-207 -72h-145v198h55z" />
    <glyph glyph-name="uni0136" unicode="&#x136;" horiz-adv-x="1259" 
d="M349 1440v-672l603 672h260l-637 -703l684 -737h-268l-642 688v-688h-209v1440h209zM613 -486q27 8 48 30t20 61h-116v211h211v-211q0 -59 -28 -103.5t-76 -68t-107 -23.5v96q21 0 48 8z" />
    <glyph glyph-name="uni0137" unicode="&#x137;" horiz-adv-x="1048" 
d="M352 1440v-880l424 520h266l-448 -540l494 -540h-284l-452 520v-520h-213l1 1440h212zM522.5 -486q26.5 8 47.5 30t20 61h-115v211h210v-211q0 -59 -27.5 -103.5t-75.5 -68t-107 -23.5v96q21 0 47.5 8z" />
    <glyph glyph-name="Lacute" unicode="&#x139;" horiz-adv-x="1051" 
d="M186 1600l143 350h164l-143 -350h-164zM369 1440v-1243h652v-197h-861v1440h209z" />
    <glyph glyph-name="lacute" unicode="&#x13a;" horiz-adv-x="529" 
d="M186 1600l143 350h164l-143 -350h-164zM369 1470v-1470h-209v1470h209z" />
    <glyph glyph-name="uni013B" unicode="&#x13b;" horiz-adv-x="1051" 
d="M369 1440v-1243h652v-197h-861v1440h209zM533 -486q27 8 48 30t20 61h-116v211h211v-211q0 -59 -28 -103.5t-76 -68t-107 -23.5v96q21 0 48 8z" />
    <glyph glyph-name="uni013C" unicode="&#x13c;" horiz-adv-x="529" 
d="M369 1470v-1470h-209v1470h209zM207 -486q27 8 48 30t20 61h-116v211h211v-211q0 -59 -28 -103.5t-76 -68t-107 -23.5v96q21 0 48 8z" />
    <glyph glyph-name="Lcaron" unicode="&#x13d;" horiz-adv-x="1051" 
d="M160 1440h209v-1243h652v-197h-861v1440zM740.5 1085.5q25.5 30.5 25.5 85.5q0 10 -2 34h-115v241h221v-261q0 -106 -44.5 -165t-128.5 -59q-20 0 -48 5l13 93q53 -4 78.5 26.5z" />
    <glyph glyph-name="lcaron" unicode="&#x13e;" horiz-adv-x="805" 
d="M160 1470h209v-1470h-209v1470zM624.5 1085.5q25.5 30.5 25.5 85.5q0 10 -2 34h-115v241h221v-261q0 -106 -44.5 -165t-128.5 -59q-20 0 -48 5l13 93q53 -4 78.5 26.5z" />
    <glyph glyph-name="Lslash" unicode="&#x141;" horiz-adv-x="1078" 
d="M396 197h652v-197h-861v432l-117 -67v228l117 67v780h209v-660l329 189v-228l-329 -189v-355z" />
    <glyph glyph-name="lslash" unicode="&#x142;" horiz-adv-x="782" 
d="M719 1037v-228l-223 -128v-681h-209v561l-224 -128v228l224 128v681h209v-561z" />
    <glyph glyph-name="Nacute" unicode="&#x143;" horiz-adv-x="1413" 
d="M641 1600l142 350h164l-142 -350h-164zM352 1440l709 -1070v1070h212v-1440h-212l-709 1071v-1071h-212v1440h212z" />
    <glyph glyph-name="nacute" unicode="&#x144;" 
d="M855 1590l-143 -350h-164l143 350h164zM948.5 1023.5q95.5 -85.5 128.5 -199.5t33 -224v-600h-212v531q0 159 -59 269.5t-214 110.5q-123 0 -198.5 -84t-75.5 -265v-562h-212v1080h187v-129q61 76 151 117t206 41q170 0 265.5 -85.5z" />
    <glyph glyph-name="uni0145" unicode="&#x145;" horiz-adv-x="1413" 
d="M352 1440l709 -1070v1070h212v-1440h-212l-709 1071v-1071h-212v1440h212zM669.5 -486q26.5 8 47.5 30t20 61h-115v211h211v-211q0 -59 -28 -103.5t-76 -68t-107 -23.5v96q21 0 47.5 8z" />
    <glyph glyph-name="uni0146" unicode="&#x146;" 
d="M948.5 1023.5q95.5 -85.5 128.5 -199.5t33 -224v-600h-212v531q0 159 -59 269.5t-214 110.5q-123 0 -198.5 -84t-75.5 -265v-562h-212v1080h187v-129q61 76 151 117t206 41q170 0 265.5 -85.5zM524 -184h211v-211q0 -59 -28 -103.5t-76 -68t-107 -23.5v96q21 0 47.5 8
t47.5 30t20 61h-115v211z" />
    <glyph glyph-name="Ncaron" unicode="&#x147;" horiz-adv-x="1413" 
d="M579 1900l148 -177l149 177h200l-258 -300h-181l-258 300h200zM352 1440l709 -1070v1070h212v-1440h-212l-709 1071v-1071h-212v1440h212z" />
    <glyph glyph-name="ncaron" unicode="&#x148;" 
d="M705 1240h-181l-258 300h200l149 -177l148 177h200zM948.5 1023.5q95.5 -85.5 128.5 -199.5t33 -224v-600h-212v531q0 159 -59 269.5t-214 110.5q-123 0 -198.5 -84t-75.5 -265v-562h-212v1080h187v-129q61 76 151 117t206 41q170 0 265.5 -85.5z" />
    <glyph glyph-name="Eng" unicode="&#x14a;" horiz-adv-x="1413" 
d="M1273 -181q0 -130 -61.5 -193.5t-188.5 -63.5q-72 0 -134 17v160q60 -6 75 -6q69 0 100.5 29.5t31.5 95.5q0 48 -20 97.5t-73 133.5l-651 982v-1071h-212v1440h212l709 -1070v1070h212v-1621z" />
    <glyph glyph-name="eng" unicode="&#x14b;" 
d="M948.5 1023.5q95.5 -85.5 128.5 -199.5t33 -224v-781q0 -105 -46 -169t-129 -81q-48 -8 -83 -8q-55 0 -127 18v154q36 -4 54 -4q56 0 87.5 31t31.5 115v656q0 159 -59 269.5t-214 110.5q-123 0 -198.5 -84t-75.5 -265v-562h-212v1080h187v-129q61 76 151 117t206 41
q170 0 265.5 -85.5z" />
    <glyph glyph-name="Omacron" unicode="&#x14c;" horiz-adv-x="1481" 
d="M479 1847h523v-167h-523v167zM375 64q-154 94 -234.5 263.5t-80.5 392.5t80.5 392.5t234.5 263.5t366 94t365.5 -94t234 -263.5t80.5 -392.5t-80.5 -392.5t-234 -263.5t-365.5 -94t-366 94zM993.5 236q102.5 68 154 192.5t51.5 291.5t-51.5 290.5t-154 191.5t-252.5 69
t-252.5 -67t-154 -192.5t-52.5 -291.5t51 -290.5t155 -191.5t253 -69t252.5 67z" />
    <glyph glyph-name="omacron" unicode="&#x14d;" horiz-adv-x="1219" 
d="M349 1487h522v-167h-522v167zM330 42.5q-120 72.5 -185 202t-65 296.5q0 168 66 297t186 200.5t277 71.5q159 0 279.5 -72t185.5 -201.5t65 -295.5q0 -168 -65.5 -297.5t-185.5 -201.5t-279 -72t-279 72.5zM838 268.5q79 101.5 79 272.5q0 173 -79 272.5t-229 99.5
q-152 0 -229.5 -100t-77.5 -272q0 -174 79 -274t228 -100q150 0 229 101.5z" />
    <glyph glyph-name="Ohungarumlaut" unicode="&#x150;" horiz-adv-x="1481" 
d="M375 64q-154 94 -234.5 263.5t-80.5 392.5t80.5 392.5t234.5 263.5t366 94t365.5 -94t234 -263.5t80.5 -392.5t-80.5 -392.5t-234 -263.5t-365.5 -94t-366 94zM993.5 236q102.5 68 154 192.5t51.5 291.5t-51.5 290.5t-154 191.5t-252.5 69t-252.5 -67t-154 -192.5
t-52.5 -291.5t51 -290.5t155 -191.5t253 -69t252.5 67zM846 1600l143 350h164l-143 -350h-164zM447 1600l143 350h164l-143 -350h-164z" />
    <glyph glyph-name="ohungarumlaut" unicode="&#x151;" horiz-adv-x="1219" 
d="M330 42.5q-120 72.5 -185 202t-65 296.5q0 168 66 297t186 200.5t277 71.5q159 0 279.5 -72t185.5 -201.5t65 -295.5q0 -168 -65.5 -297.5t-185.5 -201.5t-279 -72t-279 72.5zM838 268.5q79 101.5 79 272.5q0 173 -79 272.5t-229 99.5q-152 0 -229.5 -100t-77.5 -272
q0 -174 79 -274t228 -100q150 0 229 101.5zM713 1240l143 350h164l-143 -350h-164zM313 1240l143 350h164l-143 -350h-164z" />
    <glyph glyph-name="OE" unicode="&#x152;" horiz-adv-x="2231" 
d="M1420 1243v-404h591v-197h-591v-445h711v-197h-920v145q-88 -85 -206.5 -130t-263.5 -45q-212 0 -366 94t-234.5 263.5t-80.5 392.5t80.5 392.5t234.5 263.5t366 94q145 0 263.5 -45t206.5 -130v145h920v-197h-711zM993.5 236q102.5 68 154 192.5t51.5 291.5t-51.5 290.5
t-154 191.5t-252.5 69t-252.5 -67t-154 -192.5t-52.5 -291.5t51 -290.5t155 -191.5t253 -69t252.5 67z" />
    <glyph glyph-name="oe" unicode="&#x153;" horiz-adv-x="2030" 
d="M1232 248.5q78 -81.5 214 -81.5q97 0 169 44t112 128l205 -65q-62 -143 -189.5 -223.5t-285.5 -80.5q-137 0 -247 52t-182 147q-70 -95 -177 -147t-242 -52q-159 0 -279 72.5t-185 202t-65 296.5q0 168 66 297t186 200.5t277 71.5q135 0 242 -52t177 -147
q70 96 177.5 147.5t240.5 51.5q155 0 268.5 -69t174 -197.5t60.5 -303.5q0 -19 -2 -59h-806q13 -151 91 -232.5zM1243.5 853.5q-77.5 -71.5 -97.5 -209.5h586q-16 142 -84.5 211.5t-193.5 69.5q-133 0 -210.5 -71.5zM838 268.5q79 101.5 79 272.5q0 173 -79 272.5t-229 99.5
q-152 0 -229.5 -100t-77.5 -272q0 -174 79 -274t228 -100q150 0 229 101.5z" />
    <glyph glyph-name="Racute" unicode="&#x154;" horiz-adv-x="1301" 
d="M838 1950l-143 -350h-164l143 350h164zM982 0l-251 517h-382v-517h-209v1440h582q60 0 111 -8q118 -18 199 -80.5t121.5 -158.5t40.5 -214q0 -147 -62.5 -258t-182.5 -163l272 -558h-239zM349 715h365q52 0 91 9q89 22 132.5 94t43.5 161t-43.5 161t-132.5 93
q-37 10 -91 10h-365v-528z" />
    <glyph glyph-name="racute" unicode="&#x155;" horiz-adv-x="773" 
d="M593 1590l-143 -350h-164l143 350h164zM530 1070q59 17 120 17q33 0 73 -7v-196q-34 10 -79 10q-42 0 -82.5 -10.5t-74.5 -32.5q-136 -87 -136 -306v-545h-211v1080h186v-172q40 71 100 111q45 34 104 51z" />
    <glyph glyph-name="uni0156" unicode="&#x156;" horiz-adv-x="1301" 
d="M1221 0h-239l-251 517h-382v-517h-209v1440h582q60 0 111 -8q118 -18 199 -80.5t121.5 -158.5t40.5 -214q0 -147 -62.5 -258t-182.5 -163zM349 715h365q52 0 91 9q89 22 132.5 94t43.5 161t-43.5 161t-132.5 93q-37 10 -91 10h-365v-528zM538 -184h211v-211
q0 -59 -28 -103.5t-76 -68t-107 -23.5v96q21 0 47.5 8t47.5 30t20 61h-115v211z" />
    <glyph glyph-name="uni0157" unicode="&#x157;" horiz-adv-x="773" 
d="M530 1070q59 17 120 17q33 0 73 -7v-196q-34 10 -79 10q-42 0 -82.5 -10.5t-74.5 -32.5q-136 -87 -136 -306v-545h-211v1080h186v-172q40 71 100 111q45 34 104 51zM141 -184h210v-211q0 -59 -27.5 -103.5t-75.5 -68t-107 -23.5v96q21 0 47.5 8t47.5 30t20 61h-115v211z
" />
    <glyph glyph-name="Rcaron" unicode="&#x158;" horiz-adv-x="1301" 
d="M689 1600h-181l-258 300h200l149 -177l148 177h200zM982 0l-251 517h-382v-517h-209v1440h582q60 0 111 -8q118 -18 199 -80.5t121.5 -158.5t40.5 -214q0 -147 -62.5 -258t-182.5 -163l272 -558h-239zM349 715h365q52 0 91 9q89 22 132.5 94t43.5 161t-43.5 161
t-132.5 93q-37 10 -91 10h-365v-528z" />
    <glyph glyph-name="rcaron" unicode="&#x159;" horiz-adv-x="773" 
d="M520 1240h-181l-258 300h200l148 -177l149 177h200zM530 1070q59 17 120 17q33 0 73 -7v-196q-34 10 -79 10q-42 0 -82.5 -10.5t-74.5 -32.5q-136 -87 -136 -306v-545h-211v1080h186v-172q40 71 100 111q45 34 104 51z" />
    <glyph glyph-name="Sacute" unicode="&#x15a;" horiz-adv-x="1287" 
d="M573 1600l142 350h164l-142 -350h-164zM382 23.5q-125 53.5 -205.5 154t-103.5 235.5l218 33q22 -87 76.5 -150t133.5 -96t173 -33q87 0 161 28t117.5 80t43.5 122q0 74 -47.5 118.5t-133.5 70.5l-369 109q-137 40 -227 122t-90 239q0 130 67.5 223.5t184.5 142t264 47.5
q145 -1 261 -51.5t192.5 -145t105.5 -225.5l-224 -38q-16 81 -65.5 140.5t-122.5 90.5t-158 31q-78 0 -143 -26t-103 -73t-38 -106q0 -80 61.5 -121.5t162.5 -69.5l266 -75q98 -27 175.5 -64t138 -116.5t60.5 -208.5q0 -140 -74.5 -239.5t-200 -150.5t-277.5 -51
q-155 0 -280 53.5z" />
    <glyph glyph-name="sacute" unicode="&#x15b;" horiz-adv-x="1072" 
d="M455 1240l143 350h164l-143 -350h-164zM232 58q-124 87 -152 245l214 33q20 -85 92.5 -133t180.5 -48q98 0 153.5 40t55.5 110q0 43 -20 67.5t-78.5 46.5t-191.5 58q-142 37 -221.5 78t-114.5 95.5t-35 135.5q0 97 52 170.5t147 113.5t221 40q123 0 221 -39t157.5 -111
t71.5 -167l-214 -39q-12 80 -78.5 126t-172.5 46q-88 0 -142 -35.5t-54 -93.5q0 -37 23 -61t86 -47t193 -56q138 -35 216.5 -77.5t113.5 -100t35 -142.5q0 -106 -52.5 -183t-151 -118t-234.5 -41q-197 0 -321 87z" />
    <glyph glyph-name="Scircumflex" unicode="&#x15c;" horiz-adv-x="1287" 
d="M569 1900h181l258 -300h-200l-149 177l-148 -177h-200zM382 23.5q-125 53.5 -205.5 154t-103.5 235.5l218 33q22 -87 76.5 -150t133.5 -96t173 -33q87 0 161 28t117.5 80t43.5 122q0 74 -47.5 118.5t-133.5 70.5l-369 109q-137 40 -227 122t-90 239q0 130 67.5 223.5
t184.5 142t264 47.5q145 -1 261 -51.5t192.5 -145t105.5 -225.5l-224 -38q-16 81 -65.5 140.5t-122.5 90.5t-158 31q-78 0 -143 -26t-103 -73t-38 -106q0 -80 61.5 -121.5t162.5 -69.5l266 -75q98 -27 175.5 -64t138 -116.5t60.5 -208.5q0 -140 -74.5 -239.5t-200 -150.5
t-277.5 -51q-155 0 -280 53.5z" />
    <glyph glyph-name="scircumflex" unicode="&#x15d;" horiz-adv-x="1072" 
d="M463 1540h181l258 -300h-200l-149 177l-148 -177h-200zM232 58q-124 87 -152 245l214 33q20 -85 92.5 -133t180.5 -48q98 0 153.5 40t55.5 110q0 43 -20 67.5t-78.5 46.5t-191.5 58q-142 37 -221.5 78t-114.5 95.5t-35 135.5q0 97 52 170.5t147 113.5t221 40
q123 0 221 -39t157.5 -111t71.5 -167l-214 -39q-12 80 -78.5 126t-172.5 46q-88 0 -142 -35.5t-54 -93.5q0 -37 23 -61t86 -47t193 -56q138 -35 216.5 -77.5t113.5 -100t35 -142.5q0 -106 -52.5 -183t-151 -118t-234.5 -41q-197 0 -321 87z" />
    <glyph glyph-name="Scedilla" unicode="&#x15e;" horiz-adv-x="1287" 
d="M1154.5 193q-59.5 -93 -163 -148t-233.5 -70l-24 -70q58 -28 89.5 -73.5t31.5 -108.5q0 -58 -27.5 -105t-74 -73.5t-100.5 -26.5q-67 0 -135 35l48 128q42 -14 69 -14q31 0 49.5 18.5t18.5 43.5t-17 42t-43 27.5t-71 24.5l52 148q-145 6 -262 61.5t-192 153t-97 227.5
l218 33q22 -87 76.5 -150t133.5 -96t173 -33q87 0 161 28t117.5 80t43.5 122q0 74 -47.5 118.5t-133.5 70.5l-369 109q-137 40 -227 122t-90 239q0 130 67.5 223.5t184.5 142t264 47.5q145 -1 261 -51.5t192.5 -145t105.5 -225.5l-224 -38q-16 81 -65.5 140.5t-122.5 90.5
t-158 31q-78 0 -143 -26t-103 -73t-38 -106q0 -80 61.5 -121.5t162.5 -69.5l266 -75q98 -27 175.5 -64t138 -116.5t60.5 -208.5q0 -125 -59.5 -218z" />
    <glyph glyph-name="scedilla" unicode="&#x15f;" horiz-adv-x="1072" 
d="M895.5 79.5q-95.5 -88.5 -267.5 -105.5l-25 -69q58 -28 90 -73.5t32 -108.5q0 -58 -27.5 -105t-74.5 -73.5t-101 -26.5q-67 0 -135 35l48 128q44 -14 69 -14q31 0 50 18.5t19 43.5t-17.5 42t-43 27.5t-71.5 24.5l53 150q-173 13 -281 98.5t-133 231.5l214 33
q20 -85 92.5 -133t180.5 -48q98 0 153.5 40t55.5 110q0 43 -20 67.5t-78.5 46.5t-191.5 58q-142 37 -221.5 78t-114.5 95.5t-35 135.5q0 97 52 170.5t147 113.5t221 40q123 0 221 -39t157.5 -111t71.5 -167l-214 -39q-12 80 -78.5 126t-172.5 46q-88 0 -142 -35.5t-54 -93.5
q0 -37 23 -61t86 -47t193 -56q138 -35 216.5 -77.5t113.5 -100t35 -142.5q0 -145 -95.5 -233.5z" />
    <glyph glyph-name="Scaron" unicode="&#x160;" horiz-adv-x="1287" 
d="M519 1900l149 -177l149 177h200l-259 -300h-180l-259 300h200zM382 23.5q-125 53.5 -205.5 154t-103.5 235.5l218 33q22 -87 76.5 -150t133.5 -96t173 -33q87 0 161 28t117.5 80t43.5 122q0 74 -47.5 118.5t-133.5 70.5l-369 109q-137 40 -227 122t-90 239
q0 130 67.5 223.5t184.5 142t264 47.5q145 -1 261 -51.5t192.5 -145t105.5 -225.5l-224 -38q-16 81 -65.5 140.5t-122.5 90.5t-158 31q-78 0 -143 -26t-103 -73t-38 -106q0 -80 61.5 -121.5t162.5 -69.5l266 -75q98 -27 175.5 -64t138 -116.5t60.5 -208.5
q0 -140 -74.5 -239.5t-200 -150.5t-277.5 -51q-155 0 -280 53.5z" />
    <glyph glyph-name="scaron" unicode="&#x161;" horiz-adv-x="1072" 
d="M403 1540l149 -177l149 177h200l-259 -300h-180l-259 300h200zM232 58q-124 87 -152 245l214 33q20 -85 92.5 -133t180.5 -48q98 0 153.5 40t55.5 110q0 43 -20 67.5t-78.5 46.5t-191.5 58q-142 37 -221.5 78t-114.5 95.5t-35 135.5q0 97 52 170.5t147 113.5t221 40
q123 0 221 -39t157.5 -111t71.5 -167l-214 -39q-12 80 -78.5 126t-172.5 46q-88 0 -142 -35.5t-54 -93.5q0 -37 23 -61t86 -47t193 -56q138 -35 216.5 -77.5t113.5 -100t35 -142.5q0 -106 -52.5 -183t-151 -118t-234.5 -41q-197 0 -321 87z" />
    <glyph glyph-name="uni0162" unicode="&#x162;" horiz-adv-x="1207" 
d="M666 0l-35 -100q58 -28 90 -73t32 -108q0 -58 -27.5 -105.5t-74.5 -74t-101 -26.5q-67 0 -135 35l48 129q42 -15 69 -15q31 0 50 18.5t19 43.5q0 26 -17.5 43t-42.5 27t-72 24l64 182h-34v1243h-479v197h1167v-197h-479v-1243h-42z" />
    <glyph glyph-name="uni0163" unicode="&#x163;" horiz-adv-x="845" 
d="M437 435v-57q0 -51 4 -82.5t18 -54.5q24 -40 67.5 -57.5t106.5 -17.5q54 0 125 11v-177q-110 -21 -199 -17l-28 -78q58 -28 90 -73.5t32 -108.5q0 -58 -27.5 -105t-74.5 -73.5t-101 -26.5q-67 0 -135 35l48 128q44 -14 69 -14q31 0 50 18.5t19 43.5t-17.5 42t-43 27.5
t-71.5 24.5l64 180q-118 35 -166 128q-25 47 -32.5 96.5t-7.5 120.5v77v487h-207v168h207v300h210v-300h321v-168h-321v-477z" />
    <glyph glyph-name="Tcaron" unicode="&#x164;" horiz-adv-x="1207" 
d="M452 1900l149 -177l148 177h200l-258 -300h-181l-258 300h200zM20 1243v197h1167v-197h-479v-1243h-209v1243h-479z" />
    <glyph glyph-name="tcaron" unicode="&#x165;" horiz-adv-x="845" 
d="M437 435v-57q0 -51 4 -82.5t18 -54.5q24 -40 67.5 -57.5t106.5 -17.5q54 0 125 11v-177q-93 -18 -171 -18q-112 0 -195.5 36t-124.5 113q-25 47 -32.5 96.5t-7.5 120.5v77v487h-207v168h207v300h210v-300h321v-168h-321v-477zM750.5 1333.5q25.5 30.5 25.5 85.5
q0 10 -2 34h-115v241h221v-261q0 -106 -44.5 -165t-128.5 -59q-20 0 -48 5l13 93q53 -4 78.5 26.5z" />
    <glyph glyph-name="Tbar" unicode="&#x166;" horiz-adv-x="1207" 
d="M1187 1243h-479v-418h355v-210h-355v-615h-209v615h-356v210h356v418h-479v197h1167v-197z" />
    <glyph glyph-name="tbar" unicode="&#x167;" horiz-adv-x="885" 
d="M437 435v-57q0 -51 4 -82.5t18 -54.5q24 -40 67.5 -57.5t106.5 -17.5q54 0 125 11v-177q-93 -18 -171 -18q-112 0 -195.5 36t-124.5 113q-25 47 -32.5 96.5t-7.5 120.5v77v45h-207v168h207v274h-207v168h207v300h210v-300h321v-168h-321v-274h348v-168h-348v-35z" />
    <glyph glyph-name="Utilde" unicode="&#x168;" horiz-adv-x="1428" 
d="M415.5 39.5q-130.5 69.5 -203 196.5t-72.5 294v909l212 1v-899q0 -117 51.5 -202t134.5 -128.5t176 -43.5t176 44t134.5 129t51.5 201v899h212v-910q0 -167 -72.5 -294t-203 -196.5t-298.5 -69.5t-298.5 69.5zM803.5 1623.5q-41.5 19.5 -99.5 56.5q-43 28 -70 41.5
t-51 13.5q-25 0 -38 -18t-13 -47q0 -20 6 -43h-136q-10 40 -10 81q0 83 45 133t129 50q45 0 86.5 -19.5t99.5 -56.5q43 -28 70.5 -41.5t50.5 -13.5q24 0 37.5 18.5t13.5 48.5q0 20 -6 42h136q10 -40 10 -82q0 -82 -45.5 -132.5t-129.5 -50.5q-44 0 -85.5 19.5z" />
    <glyph glyph-name="utilde" unicode="&#x169;" 
d="M1090 1080v-1080h-186v129q-61 -76 -151 -117t-206 -41q-170 0 -265.5 85.5t-128.5 199.5t-33 224v600h212v-531q0 -159 59 -269.5t214 -110.5q123 0 198.5 84t75.5 265v562h211zM701.5 1263.5q-41.5 19.5 -99.5 56.5q-43 28 -70 41.5t-51 13.5q-25 0 -38 -18t-13 -47
q0 -20 6 -43h-136q-10 40 -10 81q0 83 45 133t129 50q45 0 86.5 -19.5t99.5 -56.5q43 -28 70.5 -41.5t50.5 -13.5q24 0 37.5 18.5t13.5 48.5q0 20 -6 42h136q10 -40 10 -82q0 -82 -45.5 -132.5t-129.5 -50.5q-44 0 -85.5 19.5z" />
    <glyph glyph-name="Umacron" unicode="&#x16a;" horiz-adv-x="1428" 
d="M453 1847h522v-167h-522v167zM415.5 39.5q-130.5 69.5 -203 196.5t-72.5 294v909l212 1v-899q0 -117 51.5 -202t134.5 -128.5t176 -43.5t176 44t134.5 129t51.5 201v899h212v-910q0 -167 -72.5 -294t-203 -196.5t-298.5 -69.5t-298.5 69.5z" />
    <glyph glyph-name="umacron" unicode="&#x16b;" 
d="M866 1487v-167h-523v167h523zM1090 1080v-1080h-186v129q-61 -76 -151 -117t-206 -41q-170 0 -265.5 85.5t-128.5 199.5t-33 224v600h212v-531q0 -159 59 -269.5t214 -110.5q123 0 198.5 84t75.5 265v562h211z" />
    <glyph glyph-name="Ubreve" unicode="&#x16c;" horiz-adv-x="1428" 
d="M570 1603q-66 39 -105 105t-39 144h166q0 -50 36 -86t86 -36q51 0 86.5 36t35.5 86h166q0 -78 -39 -144t-105 -105t-144 -39t-144 39zM415.5 39.5q-130.5 69.5 -203 196.5t-72.5 294v909l212 1v-899q0 -117 51.5 -202t134.5 -128.5t176 -43.5t176 44t134.5 129t51.5 201
v899h212v-910q0 -167 -72.5 -294t-203 -196.5t-298.5 -69.5t-298.5 69.5z" />
    <glyph glyph-name="ubreve" unicode="&#x16d;" 
d="M461 1243q-66 39 -105 105t-39 144h166q0 -50 36 -86t86 -36q51 0 86.5 36t35.5 86h166q0 -78 -39 -144t-105 -105t-144 -39t-144 39zM1090 1080v-1080h-186v129q-61 -76 -151 -117t-206 -41q-170 0 -265.5 85.5t-128.5 199.5t-33 224v600h212v-531q0 -159 59 -269.5
t214 -110.5q123 0 198.5 84t75.5 265v562h211z" />
    <glyph glyph-name="Uring" unicode="&#x16e;" horiz-adv-x="1428" 
d="M597 1586q-56 33 -89 89.5t-33 122.5t33 122.5t89 89.5t122 33q67 0 123 -33t89 -89.5t33 -122.5t-33 -122.5t-89 -89.5t-123 -33q-66 0 -122 33zM797 1720.5q32 32.5 32 77.5q0 46 -32 78t-78 32q-45 0 -77.5 -32t-32.5 -78q0 -45 32.5 -77.5t77.5 -32.5q46 0 78 32.5z
M415.5 39.5q-130.5 69.5 -203 196.5t-72.5 294v909l212 1v-899q0 -117 51.5 -202t134.5 -128.5t176 -43.5t176 44t134.5 129t51.5 201v899h212v-910q0 -167 -72.5 -294t-203 -196.5t-298.5 -69.5t-298.5 69.5z" />
    <glyph glyph-name="uring" unicode="&#x16f;" 
d="M483 1226q-56 33 -89 89.5t-33 122.5t33 122.5t89 89.5t122 33q67 0 123 -33t89 -89.5t33 -122.5t-33 -122.5t-89 -89.5t-123 -33q-66 0 -122 33zM527.5 1516q-32.5 -32 -32.5 -78q0 -45 32.5 -77.5t77.5 -32.5q46 0 78 32.5t32 77.5q0 46 -32 78t-78 32q-45 0 -77.5 -32
zM1090 1080v-1080h-186v129q-61 -76 -151 -117t-206 -41q-170 0 -265.5 85.5t-128.5 199.5t-33 224v600h212v-531q0 -159 59 -269.5t214 -110.5q123 0 198.5 84t75.5 265v562h211z" />
    <glyph glyph-name="Uhungarumlaut" unicode="&#x170;" horiz-adv-x="1428" 
d="M415.5 39.5q-130.5 69.5 -203 196.5t-72.5 294v909l212 1v-899q0 -117 51.5 -202t134.5 -128.5t176 -43.5t176 44t134.5 129t51.5 201v899h212v-910q0 -167 -72.5 -294t-203 -196.5t-298.5 -69.5t-298.5 69.5zM811 1600l143 350h164l-143 -350h-164zM412 1600l143 350
h164l-143 -350h-164z" />
    <glyph glyph-name="uhungarumlaut" unicode="&#x171;" 
d="M1090 1080v-1080h-186v129q-61 -76 -151 -117t-206 -41q-170 0 -265.5 85.5t-128.5 199.5t-33 224v600h212v-531q0 -159 59 -269.5t214 -110.5q123 0 198.5 84t75.5 265v562h211zM711 1240l143 350h164l-143 -350h-164zM311 1240l143 350h164l-143 -350h-164z" />
    <glyph glyph-name="Uogonek" unicode="&#x172;" horiz-adv-x="1428" 
d="M1288 1440v-910q0 -169 -75 -297.5t-207 -196.5q-76 -52 -126.5 -115.5t-50.5 -110.5q0 -29 18.5 -48t45.5 -19q38 0 80 40l80 -102q-35 -46 -84 -71t-101 -25q-58 0 -105.5 29t-74.5 77.5t-27 103.5q0 86 61 175h-8q-168 0 -298.5 69.5t-203 196.5t-72.5 294v909l212 1
v-899q0 -117 51.5 -202t134.5 -128.5t176 -43.5t176 44t134.5 129t51.5 201v899h212z" />
    <glyph glyph-name="uogonek" unicode="&#x173;" 
d="M978.5 -79.5q-51.5 -45.5 -81.5 -92.5t-30 -83q0 -28 18.5 -47t45.5 -19q19 0 40 10t40 29l79 -101q-35 -47 -83.5 -72t-101.5 -25q-58 0 -105 29.5t-74 78t-27 103.5q0 82 56 168t149 155v75q-61 -76 -151 -117t-206 -41q-170 0 -265.5 85.5t-128.5 199.5t-33 224v600
h212v-531q0 -159 59 -269.5t214 -110.5q123 0 198.5 84t75.5 265v562h211v-1080q-60 -34 -111.5 -79.5z" />
    <glyph glyph-name="Wcircumflex" unicode="&#x174;" horiz-adv-x="1925" 
d="M870 1900h181l258 -300h-200l-148 177l-149 -177h-200zM246 1440l303 -1089l303 1088l220 1l303 -1089l303 1089h220l-419 -1440h-208l-309 1077l-309 -1077h-208l-418 1440h219z" />
    <glyph glyph-name="wcircumflex" unicode="&#x175;" horiz-adv-x="1581" 
d="M698 1540h180l259 -300h-200l-149 177l-149 -177h-200zM247 1080l226 -741l228 741h180l228 -741l226 741h206l-330 -1080h-168l-252 782l-253 -782h-168l-330 1081z" />
    <glyph glyph-name="Ycircumflex" unicode="&#x176;" horiz-adv-x="1186" 
d="M500 1900h181l258 -300h-200l-148 177l-149 -177h-200zM0 1440h244l349 -605l349 605h244l-487 -845v-595h-212v595z" />
    <glyph glyph-name="ycircumflex" unicode="&#x177;" horiz-adv-x="1097" 
d="M562 1417l-149 -177h-200l259 300h180l259 -300h-200zM869 1080h212l-596 -1560h-199l178 485l-437 1075h218l319 -812z" />
    <glyph glyph-name="Ydieresis" unicode="&#x178;" horiz-adv-x="1186" 
d="M292 1821h200v-200h-200v200zM695 1821h200v-200h-200v200zM0 1440h244l349 -605l349 605h244l-487 -845v-595h-212v595z" />
    <glyph glyph-name="Zacute" unicode="&#x179;" horiz-adv-x="1294" 
d="M568 1600l142 350h164l-142 -350h-164zM835 1243h-695v197h1054v-34l-731 -1208h718v-198h-1081v33z" />
    <glyph glyph-name="zacute" unicode="&#x17a;" horiz-adv-x="1065" 
d="M472 1240l142 350h164l-142 -350h-164zM653 893h-557v187h889v-34l-612 -859h582v-187h-915v33z" />
    <glyph glyph-name="Zdotaccent" unicode="&#x17b;" horiz-adv-x="1294" 
d="M574 1880h221v-221h-221v221zM835 1243h-695v197h1054v-34l-731 -1208h718v-198h-1081v33z" />
    <glyph glyph-name="zdotaccent" unicode="&#x17c;" horiz-adv-x="1065" 
d="M440 1520h221v-221h-221v221zM653 893h-557v187h889v-34l-612 -859h582v-187h-915v33z" />
    <glyph glyph-name="Zcaron" unicode="&#x17d;" horiz-adv-x="1294" 
d="M519 1900l149 -177l149 177h200l-259 -300h-180l-259 300h200zM835 1243h-695v197h1054v-34l-731 -1208h718v-198h-1081v33z" />
    <glyph glyph-name="zcaron" unicode="&#x17e;" horiz-adv-x="1065" 
d="M402 1540l149 -177l148 177h200l-258 -300h-181l-258 300h200zM653 893h-557v187h889v-34l-612 -859h582v-187h-915v33z" />
    <glyph glyph-name="florin" unicode="&#x192;" horiz-adv-x="1424" 
d="M1229.5 1451q72.5 -19 121.5 -44l-97 -173q-2 3 -26 12t-58.5 17t-72.5 8q-81 0 -149.5 -43.5t-85.5 -143.5l-46 -279h391v-168h-419l-40 -244q-24 -143 -83 -237.5t-143 -140t-185 -45.5q-69 0 -140 18.5t-124 42.5l88 177q26 -13 72.5 -26t88.5 -13q84 0 140 67.5
t75 186.5l34 214h-310v168h337l39 241q17 106 69 202t146 159t227 63q78 0 150.5 -19z" />
    <glyph glyph-name="Ohorn" unicode="&#x1a0;" horiz-adv-x="1481" 
d="M1356 1077.5q65 -157.5 65 -357.5q0 -223 -80.5 -392.5t-234 -263.5t-365.5 -94t-366 94t-234.5 263.5t-80.5 392.5t80.5 392.5t234.5 263.5t366 94q109 0 200 -25q43 -10 69 -10t53 11q39 19 53 53t14 84q0 24 -1 36l163 1q5 -32 5 -74q0 -147 -98 -200q-13 -6 -31 -13
q123 -98 188 -255.5zM993.5 236q102.5 68 154 192.5t51.5 291.5t-51.5 290.5t-154 191.5t-252.5 69t-252.5 -67t-154 -192.5t-52.5 -291.5t51 -290.5t155 -191.5t253 -69t252.5 67z" />
    <glyph glyph-name="ohorn" unicode="&#x1a1;" horiz-adv-x="1219" 
d="M1098.5 780q40.5 -109 40.5 -239q0 -168 -65.5 -297.5t-185.5 -201.5t-279 -72t-279 72.5t-185 202t-65 296.5q0 168 66 297t186 200.5t277 71.5q89 0 167 -23q51 -12 76 -12q27 0 52 11q39 19 53 52.5t14 82.5q0 25 -1 38l163 1q5 -32 5 -74q0 -147 -98 -200
q-27 -14 -58 -21q76 -76 116.5 -185zM838 268.5q79 101.5 79 272.5q0 173 -79 272.5t-229 99.5q-152 0 -229.5 -100t-77.5 -272q0 -174 79 -274t228 -100q150 0 229 101.5z" />
    <glyph glyph-name="Uhorn" unicode="&#x1af;" horiz-adv-x="1428" 
d="M1520 1550q0 -141 -97 -201q-55 -32 -135 -35v-784q0 -167 -72.5 -294t-203 -196.5t-298.5 -69.5t-298.5 69.5t-203 196.5t-72.5 294v909l212 1v-899q0 -117 51.5 -202t134.5 -128.5t176 -43.5t176 44t134.5 129t51.5 201v899h89q58 0 86 5q65 12 84.5 57t16.5 117l163 1
q5 -42 5 -70z" />
    <glyph glyph-name="uhorn" unicode="&#x1b0;" 
d="M1282 1190q0 -141 -97 -201q-39 -23 -95 -31v-958h-186v129q-61 -76 -151 -117t-206 -41q-170 0 -265.5 85.5t-128.5 199.5t-33 224v600h212v-531q0 -159 59 -269.5t214 -110.5q123 0 198.5 84t75.5 265v562h48q58 0 86 5q65 12 84.5 57t16.5 117l163 1q5 -42 5 -70z" />
    <glyph glyph-name="uni0218" unicode="&#x218;" horiz-adv-x="1287" 
d="M382 23.5q-125 53.5 -205.5 154t-103.5 235.5l218 33q22 -87 76.5 -150t133.5 -96t173 -33q87 0 161 28t117.5 80t43.5 122q0 74 -47.5 118.5t-133.5 70.5l-369 109q-137 40 -227 122t-90 239q0 130 67.5 223.5t184.5 142t264 47.5q145 -1 261 -51.5t192.5 -145
t105.5 -225.5l-224 -38q-16 81 -65.5 140.5t-122.5 90.5t-158 31q-78 0 -143 -26t-103 -73t-38 -106q0 -80 61.5 -121.5t162.5 -69.5l266 -75q98 -27 175.5 -64t138 -116.5t60.5 -208.5q0 -140 -74.5 -239.5t-200 -150.5t-277.5 -51q-155 0 -280 53.5zM632.5 -486
q26.5 8 47.5 30t20 61h-115v211h210v-211q0 -59 -27.5 -103.5t-75.5 -68t-107 -23.5v96q21 0 47.5 8z" />
    <glyph glyph-name="uni0219" unicode="&#x219;" horiz-adv-x="1072" 
d="M232 58q-124 87 -152 245l214 33q20 -85 92.5 -133t180.5 -48q98 0 153.5 40t55.5 110q0 43 -20 67.5t-78.5 46.5t-191.5 58q-142 37 -221.5 78t-114.5 95.5t-35 135.5q0 97 52 170.5t147 113.5t221 40q123 0 221 -39t157.5 -111t71.5 -167l-214 -39q-12 80 -78.5 126
t-172.5 46q-88 0 -142 -35.5t-54 -93.5q0 -37 23 -61t86 -47t193 -56q138 -35 216.5 -77.5t113.5 -100t35 -142.5q0 -106 -52.5 -183t-151 -118t-234.5 -41q-197 0 -321 87zM490.5 -486q26.5 8 47.5 30t20 61h-115v211h210v-211q0 -59 -27.5 -103.5t-75.5 -68t-107 -23.5v96
q21 0 47.5 8z" />
    <glyph glyph-name="uni021A" unicode="&#x21a;" horiz-adv-x="1207" 
d="M20 1243v197h1167v-197h-479v-1243h-209v1243h-479zM545.5 -486q26.5 8 47.5 30t20 61h-115v211h211v-211q0 -59 -28 -103.5t-76 -68t-107 -23.5v96q21 0 47.5 8z" />
    <glyph glyph-name="uni021B" unicode="&#x21b;" horiz-adv-x="845" 
d="M437 435v-57q0 -51 4 -82.5t18 -54.5q24 -40 67.5 -57.5t106.5 -17.5q54 0 125 11v-177q-93 -18 -171 -18q-112 0 -195.5 36t-124.5 113q-25 47 -32.5 96.5t-7.5 120.5v77v487h-207v168h207v300h210v-300h321v-168h-321v-477zM353 -184h211v-211q0 -59 -28 -103.5
t-76 -68t-107 -23.5v96q21 0 48 8t48 30t20 61h-116v211z" />
    <glyph glyph-name="uni0259" unicode="&#x259;" horiz-adv-x="1193" 
d="M856 1039.5q122 -70.5 189.5 -198t67.5 -292.5q0 -175 -66 -306t-186 -202t-277 -71q-155 0 -268 69t-173.5 197.5t-60.5 303.5q0 19 2 59h805q-13 151 -91 232.5t-214 81.5q-97 0 -169 -44t-112 -128l-205 65q62 143 190 223.5t286 80.5q160 0 282 -70.5zM786.5 226.5
q77.5 71.5 97.5 209.5h-586q17 -143 85.5 -212t192.5 -69q133 0 210.5 71.5z" />
    <glyph glyph-name="circumflex" unicode="&#x2c6;" horiz-adv-x="1124" 
d="M469 1900h181l258 -300h-200l-149 177l-148 -177h-200z" />
    <glyph glyph-name="caron" unicode="&#x2c7;" horiz-adv-x="1116" 
d="M211 1900h200l148 -177l149 177h200l-258 -300h-181z" />
    <glyph glyph-name="breve" unicode="&#x2d8;" horiz-adv-x="1056" 
d="M384 1603q-66 39 -105 105t-39 144h166q0 -50 36 -86t86 -36q51 0 86.5 36t35.5 86h166q0 -78 -39 -144t-105 -105t-144 -39t-144 39z" />
    <glyph glyph-name="dotaccent" unicode="&#x2d9;" horiz-adv-x="701" 
d="M240 1880h221v-221h-221v221z" />
    <glyph glyph-name="ring" unicode="&#x2da;" horiz-adv-x="1052" 
d="M403.5 1586q-56.5 33 -89.5 89.5t-33 122.5t33 122.5t89.5 89.5t122.5 33t122.5 -33t89.5 -89.5t33 -122.5t-33 -122.5t-89.5 -89.5t-122.5 -33t-122.5 33zM604 1720.5q32 32.5 32 77.5q0 46 -32 78t-78 32q-45 0 -77.5 -32t-32.5 -78q0 -45 32.5 -77.5t77.5 -32.5
q46 0 78 32.5z" />
    <glyph glyph-name="ogonek" unicode="&#x2db;" horiz-adv-x="872" 
d="M340 -450.5q-47 29.5 -74 78t-27 103.5q0 67 38.5 138.5t105.5 134t150 106.5l97 -110q-60 -34 -111.5 -79.5t-81.5 -92.5t-30 -83q0 -28 18.5 -47t45.5 -19q19 0 40 10t40 29l79 -101q-35 -47 -83.5 -72t-101.5 -25q-58 0 -105 29.5z" />
    <glyph glyph-name="tilde" unicode="&#x2dc;" horiz-adv-x="1130" 
d="M640.5 1623.5q-41.5 19.5 -99.5 56.5q-43 28 -70 41.5t-51 13.5q-25 0 -38 -18t-13 -47q0 -20 6 -43h-136q-10 40 -10 81q0 83 45 133t129 50q45 0 86.5 -19.5t99.5 -56.5q43 -28 70.5 -41.5t50.5 -13.5q24 0 37.5 18.5t13.5 48.5q0 20 -6 42h136q10 -40 10 -82
q0 -82 -45.5 -132.5t-129.5 -50.5q-44 0 -85.5 19.5z" />
    <glyph glyph-name="hungarumlaut" unicode="&#x2dd;" horiz-adv-x="1129" 
d="M607 1600l143 350h164l-143 -350h-164zM207 1600l143 350h164l-143 -350h-164z" />
    <glyph glyph-name="uni0374" unicode="&#x374;" horiz-adv-x="587" 
d="M120 1090l143 350h164l-143 -350h-164z" />
    <glyph glyph-name="uni0375" unicode="&#x375;" horiz-adv-x="587" 
d="M120 -472l143 350h164l-143 -350h-164z" />
    <glyph glyph-name="uni037E" unicode="&#x37e;" horiz-adv-x="661" 
d="M311.5 -119.5q25.5 30.5 25.5 85.5q0 10 -2 34h-115v241h221v-261q0 -106 -44.5 -165t-128.5 -59q-20 0 -48 5l13 93q53 -4 78.5 26.5zM220 1080h221v-221h-221v221z" />
    <glyph glyph-name="tonos" unicode="&#x384;" horiz-adv-x="1200" 
d="M435 1090l143 350h164l-143 -350h-164z" />
    <glyph glyph-name="dieresistonos" unicode="&#x385;" horiz-adv-x="1200" 
d="M471 1240l143 350h164l-143 -350h-164zM213 1460h180v-200h-180v200zM808 1460h180v-200h-180v200z" />
    <glyph glyph-name="Alphatonos" unicode="&#x386;" horiz-adv-x="1339" 
d="M1083 0l-107 325h-591l-105 -325h-217l468 1440h301l468 -1440h-217zM449 521h463l-233 710zM72 1090l143 350h164l-143 -350h-164z" />
    <glyph glyph-name="anoteleia" unicode="&#x387;" horiz-adv-x="1200" 
d="M159.5 535q-39.5 38 -39.5 95t39.5 95t97.5 38q35 0 65 -17.5t47.5 -47.5t17.5 -68t-17.5 -68t-47.5 -47.5t-65 -17.5q-58 0 -97.5 38z" />
    <glyph glyph-name="Epsilontonos" unicode="&#x388;" horiz-adv-x="1472" 
d="M452 1440h920v-197h-711v-404h591v-197h-591v-445h711v-197h-920v1440zM34 1090l143 350h164l-143 -350h-164z" />
    <glyph glyph-name="Etatonos" unicode="&#x389;" horiz-adv-x="1713" 
d="M434 1440h209v-621h720v621h210v-1440h-210v622h-720v-622h-209v1440zM20 1090l143 350h164l-143 -350h-164z" />
    <glyph glyph-name="Iotatonos" unicode="&#x38a;" horiz-adv-x="781" 
d="M432 1440h209v-1440h-209v1440zM20 1090l143 350h164l-143 -350h-164z" />
    <glyph glyph-name="Omicrontonos" unicode="&#x38c;" horiz-adv-x="1693" 
d="M586 64q-154 94 -234.5 263.5t-80.5 392.5t80.5 392.5t234.5 263.5t366 94t365.5 -94t234 -263.5t80.5 -392.5t-80.5 -392.5t-234 -263.5t-365.5 -94t-366 94zM1204.5 236q102.5 68 154 192.5t51.5 291.5t-51.5 290.5t-154 191.5t-252.5 69t-252.5 -67t-154 -192.5
t-52.5 -291.5t51 -290.5t155 -191.5t253 -69t252.5 67zM32 1090l143 350h164l-143 -350h-164z" />
    <glyph glyph-name="Upsilontonos" unicode="&#x38e;" horiz-adv-x="1608" 
d="M909 595l-487 845h244l349 -605l349 605h244l-487 -845v-595h-212v595zM48 1090l143 350h164l-143 -350h-164z" />
    <glyph glyph-name="Omegatonos" unicode="&#x38f;" horiz-adv-x="1718" 
d="M525 197q-115 98 -178.5 242.5t-63.5 319.5q0 200 84 362t239 255t358 93t357.5 -93t238.5 -255t84 -362q0 -175 -63.5 -319.5t-178.5 -242.5h228v-197h-492l1 197q72 37 136.5 112.5t105.5 184.5t41 240q0 148 -56 271t-160 194.5t-242 71.5q-139 0 -243 -72.5
t-160 -196.5t-56 -273q0 -133 42.5 -241t108.5 -181t138 -110v-197h-498v197h229zM44 1090l143 350h164l-143 -350h-164z" />
    <glyph glyph-name="iotadieresistonos" unicode="&#x390;" horiz-adv-x="909" 
d="M425.5 33.5q-53.5 30.5 -90.5 93.5q-26 44 -34.5 90.5t-8.5 115.5l1 92v655h209v-645v-66q0 -47 4 -76t18 -52q34 -61 122 -72q32 -2 50 -2q60 0 127 10v-177q-62 -17 -159 -17q-65 0 -115 8q-70 12 -123.5 42.5zM298 1240l143 350h164l-143 -350h-164zM40 1460h180v-200
h-180v200zM635 1460h180v-200h-180v200z" />
    <glyph glyph-name="Alpha" unicode="&#x391;" horiz-adv-x="1317" 
d="M1060 0l-107 325h-591l-105 -325h-217l468 1440h301l468 -1440h-217zM426 521h463l-233 710z" />
    <glyph glyph-name="Beta" unicode="&#x392;" horiz-adv-x="1250" 
d="M1133.5 626q57.5 -90 57.5 -206q0 -127 -51 -222t-148 -146.5t-232 -51.5h-620v1440h566q132 0 226.5 -54.5t142.5 -143t48 -189.5q0 -98 -40.5 -174t-112.5 -118q106 -45 163.5 -135zM352 852h351q58 0 105 24t74 69t27 106q0 56 -25.5 99.5t-72.5 68t-108 24.5h-351
v-391zM856.5 226.5q56.5 27.5 88.5 78t32 119.5q0 65 -29 118t-83 83t-124 30h-389v-456h376q72 0 128.5 27.5z" />
    <glyph glyph-name="Gamma" unicode="&#x393;" horiz-adv-x="1080" 
d="M140 1440h920v-197h-711v-1243h-209v1440z" />
    <glyph glyph-name="uni0394" unicode="&#x394;" horiz-adv-x="1317" 
d="M809 1440l468 -1440h-1237l468 1440h301zM321 197h674l-339 1032z" />
    <glyph glyph-name="Epsilon" unicode="&#x395;" horiz-adv-x="1160" 
d="M140 1440h920v-197h-711v-404h591v-197h-591v-445h711v-197h-920v1440z" />
    <glyph glyph-name="Zeta" unicode="&#x396;" horiz-adv-x="1294" 
d="M100 33l735 1210h-695v197h1054v-34l-731 -1208h718v-198h-1081v33z" />
    <glyph glyph-name="Eta" unicode="&#x397;" horiz-adv-x="1419" 
d="M140 1440h209v-621h720v621h210v-1440h-210v622h-720v-622h-209v1440z" />
    <glyph glyph-name="Theta" unicode="&#x398;" horiz-adv-x="1481" 
d="M375 64q-154 94 -234.5 263.5t-80.5 392.5t80.5 392.5t234.5 263.5t366 94t365.5 -94t234 -263.5t80.5 -392.5t-80.5 -392.5t-234 -263.5t-365.5 -94t-366 94zM993.5 236q102.5 68 154 192.5t51.5 291.5t-51.5 290.5t-154 191.5t-252.5 69t-252.5 -67t-154 -192.5
t-52.5 -291.5t51 -290.5t155 -191.5t253 -69t252.5 67zM479 803h523v-166h-523v166z" />
    <glyph glyph-name="Iota" unicode="&#x399;" horiz-adv-x="529" 
d="M160 1440h209v-1440h-209v1440z" />
    <glyph glyph-name="Kappa" unicode="&#x39a;" horiz-adv-x="1259" 
d="M140 1440h209v-672l603 672h260l-637 -703l684 -737h-268l-642 688v-688h-209v1440z" />
    <glyph glyph-name="Lambda" unicode="&#x39b;" horiz-adv-x="1257" 
d="M478 1440h301l468 -1440h-217l-404 1229l-399 -1229h-217z" />
    <glyph glyph-name="Mu" unicode="&#x39c;" horiz-adv-x="1701" 
d="M140 1440h189l522 -1083l519 1083h191v-1439h-198v985l-465 -986h-95l-466 986v-986h-197v1440z" />
    <glyph glyph-name="Nu" unicode="&#x39d;" horiz-adv-x="1413" 
d="M140 1440h212l709 -1070v1070h212v-1440h-212l-709 1071v-1071h-212v1440z" />
    <glyph glyph-name="Xi" unicode="&#x39e;" horiz-adv-x="1425" 
d="M140 1440h1145v-197h-1145v197zM240 819h945v-197h-945v197zM140 197h1145v-197h-1145v197z" />
    <glyph glyph-name="Omicron" unicode="&#x39f;" horiz-adv-x="1481" 
d="M375 64q-154 94 -234.5 263.5t-80.5 392.5t80.5 392.5t234.5 263.5t366 94t365.5 -94t234 -263.5t80.5 -392.5t-80.5 -392.5t-234 -263.5t-365.5 -94t-366 94zM993.5 236q102.5 68 154 192.5t51.5 291.5t-51.5 290.5t-154 191.5t-252.5 69t-252.5 -67t-154 -192.5
t-52.5 -291.5t51 -290.5t155 -191.5t253 -69t252.5 67z" />
    <glyph glyph-name="Pi" unicode="&#x3a0;" horiz-adv-x="1425" 
d="M140 1440h1145v-1440h-209v1243h-727v-1243h-209v1440z" />
    <glyph glyph-name="Rho" unicode="&#x3a1;" horiz-adv-x="1254" 
d="M722 1440q60 0 111 -8q118 -18 199 -80.5t121.5 -158.5t40.5 -214q0 -119 -41 -214.5t-122 -158t-198 -81.5q-51 -8 -111 -8h-373v-517h-209v1440h582zM805 724q89 22 132.5 94t43.5 161t-43.5 161t-132.5 93q-37 10 -91 10h-365v-528h365q52 0 91 9z" />
    <glyph glyph-name="Sigma" unicode="&#x3a3;" horiz-adv-x="1280" 
d="M140 189l522 531l-522 529v191h1000v-197h-729l498 -506v-34l-498 -506h716v-197h-987v189z" />
    <glyph glyph-name="Tau" unicode="&#x3a4;" horiz-adv-x="1207" 
d="M499 1243h-479v197h1167v-197h-479v-1243h-209v1243z" />
    <glyph glyph-name="Upsilon" unicode="&#x3a5;" horiz-adv-x="1186" 
d="M487 595l-487 845h244l349 -605l349 605h244l-487 -845v-595h-212v595z" />
    <glyph glyph-name="Phi" unicode="&#x3a6;" horiz-adv-x="1459" 
d="M538 194q-132 0 -241 66.5t-173 195t-64 306.5t64.5 308.5t174 198.5t241.5 68q44 0 85 -7v110h208v-110q41 7 85 7q132 0 242 -68t174.5 -198.5t64.5 -308.5t-64.5 -306.5t-173.5 -195t-241 -66.5q-46 0 -87 7v-201h-208v201q-41 -7 -87 -7zM568 1143q-97 0 -163 -51.5
t-98.5 -138t-32.5 -191.5q0 -104 32 -188t97.5 -134t162.5 -50q24 0 59 5v744q-27 4 -57 4zM891 390q96 0 162.5 49.5t99 133t32.5 184.5q0 102 -33 190t-100.5 142t-164.5 54q-29 0 -54 -4v-744q33 -5 58 -5z" />
    <glyph glyph-name="Chi" unicode="&#x3a7;" horiz-adv-x="1278" 
d="M511 729l-478 711h256l351 -534l349 534h257l-478 -711l490 -729h-256l-362 551l-363 -551h-257z" />
    <glyph glyph-name="Psi" unicode="&#x3a8;" horiz-adv-x="1481" 
d="M330 416.5q-125 83.5 -168 246.5q-22 73 -22 167v610h197v-558q0 -87 15 -145q28 -109 101 -161.5t183 -54.5v919h209v-919q111 2 187 59t100 167q12 55 12 135v558h197v-610q0 -43 -4.5 -82.5t-17.5 -81.5q-44 -164 -169 -248.5t-305 -91.5v-326h-209v326
q-181 7 -306 90.5z" />
    <glyph glyph-name="uni03A9" unicode="&#x3a9;" horiz-adv-x="1481" 
d="M302 197q-115 98 -178.5 242.5t-63.5 319.5q0 200 84 362t239 255t358 93t357.5 -93t238.5 -255t84 -362q0 -175 -63.5 -319.5t-178.5 -242.5h228v-197h-492l1 197q72 37 136.5 112.5t105.5 184.5t41 240q0 148 -56 271t-160 194.5t-242 71.5q-139 0 -243 -72.5
t-160 -196.5t-56 -273q0 -133 42.5 -241t108.5 -181t138 -110v-197h-498v197h229z" />
    <glyph glyph-name="Iotadieresis" unicode="&#x3aa;" horiz-adv-x="529" 
d="M-37 1821h200v-200h-200v200zM366 1821h200v-200h-200v200zM369 1440v-1440h-209v1440h209z" />
    <glyph glyph-name="Upsilondieresis" unicode="&#x3ab;" horiz-adv-x="1186" 
d="M292 1821h200v-200h-200v200zM695 1821h200v-200h-200v200zM0 1440h244l349 -605l349 605h244l-487 -845v-595h-212v595z" />
    <glyph glyph-name="alphatonos" unicode="&#x3ac;" horiz-adv-x="1244" 
d="M836 1590l-143 -350h-164l143 350h164zM1104 1080v-1080h-186v143q-54 -82 -143.5 -127.5t-201.5 -45.5q-149 0 -261 74.5t-172 204t-60 291.5q0 164 60.5 293.5t173.5 203t265 73.5q111 0 198 -44.5t141 -126.5v141h186zM819 262q72 103 72 279q0 175 -71.5 277.5
t-214.5 102.5q-96 0 -164.5 -47t-103.5 -133t-35 -202q0 -109 33 -194.5t100.5 -135.5t166.5 -50q145 0 217 103z" />
    <glyph glyph-name="epsilontonos" unicode="&#x3ad;" horiz-adv-x="1032" 
d="M706 1590l-143 -350h-164l143 350h164zM985 222q-72 -119 -197.5 -185.5t-281.5 -66.5q-118 0 -215 41t-154 118.5t-57 183.5q0 80 32.5 147.5t94.5 105.5q-95 95 -95 225q0 100 52.5 172.5t141 109.5t194.5 37q125 0 236 -46t199 -130l-122 -143q-62 55 -141.5 89
t-160.5 34q-80 0 -132 -35.5t-52 -105.5q0 -73 59 -102.5t167 -29.5h95v-168h-96q-85 0 -139.5 -10t-86.5 -40t-32 -88q0 -78 58.5 -123t158.5 -45q186 0 308 164z" />
    <glyph glyph-name="etatonos" unicode="&#x3ae;" 
d="M855 1590l-143 -350h-164l143 350h164zM948.5 1023.5q95.5 -85.5 128.5 -199.5t33 -224v-600h-212v531q0 159 -59 269.5t-214 110.5q-123 0 -198.5 -84t-75.5 -265v-562h-212v1080h187v-129q61 76 151 117t206 41q170 0 265.5 -85.5z" />
    <glyph glyph-name="iotatonos" unicode="&#x3af;" horiz-adv-x="778" 
d="M186 1240l143 350h164l-143 -350h-164zM293.5 33.5q-53.5 30.5 -90.5 93.5q-26 44 -34.5 90.5t-8.5 115.5l1 92v655h209v-645v-66q0 -47 4 -76t18 -52q34 -61 122 -72q32 -2 50 -2q60 0 127 10v-177q-62 -17 -159 -17q-65 0 -115 8q-70 12 -123.5 42.5z" />
    <glyph glyph-name="upsilondieresistonos" unicode="&#x3b0;" horiz-adv-x="1209" 
d="M332 1080v-531q0 -159 59 -269.5t214 -110.5q154 0 213 110.5t59 269.5v531h212v-587q0 -221 -99.5 -371.5t-384.5 -150.5t-385 150.5t-100 371.5v587h212zM475 1240l143 350h164l-143 -350h-164zM217 1460h180v-200h-180v200zM812 1460h180v-200h-180v200z" />
    <glyph glyph-name="alpha" unicode="&#x3b1;" horiz-adv-x="1244" 
d="M1104 1080v-1080h-186v143q-54 -82 -143.5 -127.5t-201.5 -45.5q-149 0 -261 74.5t-172 204t-60 291.5q0 164 60.5 293.5t173.5 203t265 73.5q111 0 198 -44.5t141 -126.5v141h186zM819 262q72 103 72 279q0 175 -71.5 277.5t-214.5 102.5q-96 0 -164.5 -47t-103.5 -133
t-35 -202q0 -109 33 -194.5t100.5 -135.5t166.5 -50q145 0 217 103z" />
    <glyph glyph-name="beta" unicode="&#x3b2;" horiz-adv-x="1183" 
d="M159 1211q39 126 149.5 192.5t256.5 66.5q127 0 227 -50.5t156 -141.5t56 -209q0 -90 -35 -162t-104 -114q72 -22 131 -73.5t93.5 -130.5t34.5 -178q0 -134 -61.5 -234t-175.5 -153.5t-268 -53.5q-160 0 -270 72v-522h-210v1560q0 67 20 131zM776.5 198.5
q64.5 31.5 100.5 89t36 133.5q0 121 -91.5 185t-250.5 66v185q102 9 161 62.5t59 146.5q0 64 -29 111t-79.5 71.5t-113.5 24.5q-64 0 -116.5 -27.5t-77.5 -86.5q-24 -57 -24 -154v-569q0 -82 15 -125q23 -69 98 -106.5t165 -37.5q83 0 147.5 31.5z" />
    <glyph glyph-name="gamma" unicode="&#x3b3;" horiz-adv-x="1076" 
d="M432 0l-392 1080h211l287 -818l287 818h211l-392 -1080v-360h-212v360z" />
    <glyph glyph-name="delta" unicode="&#x3b4;" horiz-adv-x="1219" 
d="M1058 791.5q81 -126.5 81 -297.5q0 -154 -65.5 -272.5t-186.5 -184.5t-282 -66q-158 0 -277 63t-183.5 177.5t-64.5 265.5q0 119 41 218t119 164t186 84q-89 45 -139 108t-50 155q0 93 54.5 166t174.5 91q25 5 50.5 6t74.5 1h341v-172h-294q-37 0 -61.5 -1.5t-44.5 -7.5
q-40 -10 -63 -33t-23 -59q0 -41 33.5 -71.5t85.5 -52.5t150 -56l118 -42q144 -57 225 -183.5zM826.5 255.5q74.5 87.5 74.5 239.5t-75 238t-216 86q-142 0 -216.5 -86.5t-74.5 -238.5q0 -155 75 -240.5t216 -85.5q142 0 216.5 87.5z" />
    <glyph glyph-name="epsilon" unicode="&#x3b5;" horiz-adv-x="1032" 
d="M985 222q-72 -119 -197.5 -185.5t-281.5 -66.5q-118 0 -215 41t-154 118.5t-57 183.5q0 80 32.5 147.5t94.5 105.5q-95 95 -95 225q0 100 52.5 172.5t141 109.5t194.5 37q125 0 236 -46t199 -130l-122 -143q-62 55 -141.5 89t-160.5 34q-80 0 -132 -35.5t-52 -105.5
q0 -73 59 -102.5t167 -29.5h95v-168h-96q-85 0 -139.5 -10t-86.5 -40t-32 -88q0 -78 58.5 -123t158.5 -45q186 0 308 164z" />
    <glyph glyph-name="zeta" unicode="&#x3b6;" horiz-adv-x="1037" 
d="M797 -76q-35 52 -94.5 64t-171.5 12q-214 0 -332.5 87.5t-118.5 298.5q0 87 24.5 165.5t87.5 170t176 208.5q125 126 335 322h-563v188h884v-159l-75 -72q-125 -124 -380 -362q-101 -97 -159.5 -173t-83.5 -140t-25 -129q0 -88 40.5 -133.5t112 -60.5t185.5 -15
q48 0 99.5 -5.5t91.5 -17.5q90 -29 141 -107.5t51 -201.5q0 -49 -9 -104h-184q3 112 -32 164z" />
    <glyph glyph-name="eta" unicode="&#x3b7;" 
d="M948.5 1023.5q95.5 -85.5 128.5 -199.5t33 -224v-600h-212v531q0 159 -59 269.5t-214 110.5q-123 0 -198.5 -84t-75.5 -265v-562h-212v1080h187v-129q61 76 151 117t206 41q170 0 265.5 -85.5z" />
    <glyph glyph-name="theta" unicode="&#x3b8;" horiz-adv-x="1353" 
d="M998.5 1374.5q134.5 -94.5 204.5 -264t70 -390.5q0 -223 -70 -392.5t-204.5 -263.5t-321.5 -94q-188 0 -322.5 95t-204.5 264.5t-70 390.5t70 390.5t204.5 264t322.5 94.5q187 0 321.5 -94.5zM485 1211.5q-80 -59.5 -124.5 -164.5t-55.5 -244h743q-9 138 -54 243.5
t-125.5 165t-191.5 59.5q-112 0 -192 -59.5zM868 228.5q80 59.5 124.5 164.5t55.5 244h-743q10 -138 55 -243.5t125 -165t192 -59.5q111 0 191 59.5z" />
    <glyph glyph-name="iota" unicode="&#x3b9;" horiz-adv-x="778" 
d="M293.5 33.5q-53.5 30.5 -90.5 93.5q-26 44 -34.5 90.5t-8.5 115.5l1 92v655h209v-645v-66q0 -47 4 -76t18 -52q34 -61 122 -72q32 -2 50 -2q60 0 127 10v-177q-62 -17 -159 -17q-65 0 -115 8q-70 12 -123.5 42.5z" />
    <glyph glyph-name="kappa" unicode="&#x3ba;" horiz-adv-x="1048" 
d="M140 1080h212v-520l424 520h266l-448 -540l494 -540h-284l-452 520v-520h-213z" />
    <glyph glyph-name="lambda" unicode="&#x3bb;" horiz-adv-x="1116" 
d="M412.5 1201.5q-27.5 42.5 -70.5 63.5t-113 21h-52v184h72q89 0 148 -13q78 -18 130 -71t83.5 -121t73.5 -185l392 -1080h-211l-287 818l-287 -818h-211l392 1080q-32 79 -59.5 121.5z" />
    <glyph glyph-name="uni03BC" unicode="&#x3bc;" horiz-adv-x="1249" 
d="M351 1080v-531q0 -159 59 -269.5t213 -110.5q123 0 199 84t76 265v562h211v-1080h-186v133q-60 -79 -150.5 -120.5t-206.5 -41.5q-151 0 -241 85v-536h-186v1560h212z" />
    <glyph glyph-name="nu" unicode="&#x3bd;" horiz-adv-x="1076" 
d="M40 1080h211l287 -818l287 818h211l-392 -1080h-212z" />
    <glyph glyph-name="xi" unicode="&#x3be;" horiz-adv-x="1131" 
d="M935 -194q0 89 -33.5 130.5t-95 52.5t-177.5 11q-280 0 -414.5 113t-134.5 313q0 126 53 214.5t158 125.5q-73 55 -114.5 135.5t-41.5 181.5q0 130 67.5 217.5t177 128.5t237.5 41q161 0 285 -63t205 -171l-154 -145q-111 182 -336 182q-118 0 -189 -49.5t-71 -146.5
q0 -98 74 -151t203 -59q38 -2 145 -2v-198q-21 0 -162 -5q-156 -6 -235.5 -54t-79.5 -165q0 -132 103 -188.5t296 -58.5q71 -1 124 -5.5t98 -17.5q94 -29 150.5 -104.5t56.5 -194.5q0 -53 -12 -114h-185q2 32 2 46z" />
    <glyph glyph-name="omicron" unicode="&#x3bf;" horiz-adv-x="1219" 
d="M330 42.5q-120 72.5 -185 202t-65 296.5q0 168 66 297t186 200.5t277 71.5q159 0 279.5 -72t185.5 -201.5t65 -295.5q0 -168 -65.5 -297.5t-185.5 -201.5t-279 -72t-279 72.5zM838 268.5q79 101.5 79 272.5q0 173 -79 272.5t-229 99.5q-152 0 -229.5 -100t-77.5 -272
q0 -174 79 -274t228 -100q150 0 229 101.5z" />
    <glyph glyph-name="pi" unicode="&#x3c0;" horiz-adv-x="1336" 
d="M253 892h-186v188h1202v-188h-186v-892h-210v892h-410v-892h-210v892z" />
    <glyph glyph-name="rho" unicode="&#x3c1;" horiz-adv-x="1245" 
d="M140.5 581.5q1.5 43.5 8.5 83.5q19 132 84.5 232.5t173 156.5t247.5 56q160 0 275.5 -73t175.5 -201.5t60 -292.5t-59.5 -294.5t-171 -204.5t-259.5 -74q-102 0 -187 37t-139 100v-587h-210v947q0 71 1.5 114.5zM816.5 207.5q68.5 48.5 103 135t34.5 199.5
q0 174 -78 276.5t-227 102.5q-150 0 -225.5 -102t-75.5 -278t76.5 -279t224.5 -103q99 0 167.5 48.5z" />
    <glyph glyph-name="uni03C2" unicode="&#x3c2;" horiz-adv-x="1137" 
d="M824 -79q-34 50 -93.5 62.5t-185.5 16.5q-152 5 -256 71.5t-156.5 181t-52.5 264.5q0 183 63 316.5t181 205t278 71.5q119 0 215.5 -39.5t162.5 -113.5t93 -176l-208 -60q-32 91 -102 141.5t-168 50.5q-141 0 -210 -102.5t-70 -274.5q0 -150 64.5 -244t238.5 -96
q68 0 128 -4t109 -19q92 -30 142.5 -109t50.5 -201q0 -55 -8 -103h-185q3 111 -31 161z" />
    <glyph glyph-name="sigma" unicode="&#x3c3;" horiz-adv-x="1252" 
d="M1199 892h-183q57 -70 90 -165t33 -201q0 -158 -66.5 -284.5t-187 -199t-276.5 -72.5t-276.5 72.5t-186.5 199.5t-66 284q0 137 49 250t140.5 188.5t213.5 101.5q44 9 100.5 11.5t158.5 2.5h457v-188zM777.5 213q69.5 46 104.5 127t35 186q0 104 -35.5 184.5t-105 126.5
t-167.5 46q-101 0 -170 -47t-103 -127.5t-34 -182.5q0 -108 35.5 -189t104.5 -125.5t167 -44.5q99 0 168.5 46z" />
    <glyph glyph-name="tau" unicode="&#x3c4;" horiz-adv-x="1083" 
d="M551.5 33.5q-53.5 30.5 -90.5 93.5q-26 44 -34.5 90.5t-8.5 115.5l1 92v467h-369v188h947v-188h-369v-457v-66q0 -47 4 -76t18 -52q34 -61 122 -72q32 -2 50 -2q60 0 127 10v-177q-62 -17 -159 -17q-65 0 -115 8q-70 12 -123.5 42.5z" />
    <glyph glyph-name="upsilon" unicode="&#x3c5;" horiz-adv-x="1209" 
d="M332 1080v-531q0 -159 59 -269.5t214 -110.5q154 0 213 110.5t59 269.5v531h212v-587q0 -221 -99.5 -371.5t-384.5 -150.5t-385 150.5t-100 371.5v587h212z" />
    <glyph glyph-name="phi" unicode="&#x3c6;" horiz-adv-x="1497" 
d="M558 -26q-137 0 -245.5 67t-170.5 195t-62 303t62 303.5t170.5 196t245.5 67.5q47 0 90 -7v327h188v-327q43 7 90 7q137 0 245.5 -67.5t170.5 -196t62 -303.5t-62 -303t-170.5 -195t-245.5 -67q-47 0 -90 7v-431h-188v431q-43 -7 -90 -7zM583 915q-89 0 -154 -44
t-100 -128.5t-35 -203.5q0 -118 36 -202t102 -128t154 -44q35 0 62 5v739q-35 6 -65 6zM900 164q87 0 152.5 43.5t101.5 128t36 203.5q0 120 -34.5 204.5t-99 128t-153.5 43.5q-32 0 -67 -6v-739q33 -6 64 -6z" />
    <glyph glyph-name="chi" unicode="&#x3c7;" horiz-adv-x="1090" 
d="M424 546l-395 534h248l269 -371l266 371h248l-395 -534l405 -546h-249l-275 383l-277 -383h-249z" />
    <glyph glyph-name="psi" unicode="&#x3c8;" horiz-adv-x="1441" 
d="M311.5 42q-126.5 84 -169.5 247q-22 72 -22 166v625h197v-573q0 -87 15 -145q27 -109 103.5 -161.5t184.5 -54.5v934h201v-934q109 2 188 59.5t103 167.5q12 54 12 134v573h197v-625q0 -95 -22 -164q-43 -162 -170 -247.5t-308 -92.5v-401h-201v401q-182 7 -308.5 91z
" />
    <glyph glyph-name="omega" unicode="&#x3c9;" horiz-adv-x="1581" 
d="M1420.5 858q80.5 -158 80.5 -357q0 -153 -48.5 -273.5t-142.5 -189.5t-226 -69q-99 0 -176.5 44t-116.5 137q-40 -93 -117 -137t-176 -44q-133 0 -227.5 70t-142.5 191t-48 272q0 199 81.5 356.5t237.5 251.5l140 -169q-127 -87 -182 -187t-55 -243q0 -99 25.5 -176.5
t75.5 -122t121 -44.5q74 0 111 47t47.5 123.5t10.5 198.5v148h195v-148q0 -122 11 -198.5t47.5 -123.5t110.5 -47q72 0 122 45.5t75 123t25 174.5q0 146 -55.5 245t-180.5 185l140 169q157 -94 237.5 -252z" />
    <glyph glyph-name="iotadieresis" unicode="&#x3ca;" horiz-adv-x="765" 
d="M-37 1461h200v-200h-200v200zM366 1461h200v-200h-200v200zM293.5 33.5q-53.5 30.5 -90.5 93.5q-26 44 -34.5 90.5t-8.5 115.5l1 92v655h209v-645v-66q0 -47 4 -76t18 -52q34 -61 122 -72q32 -2 50 -2q60 0 127 10v-177q-62 -17 -159 -17q-65 0 -115 8
q-70 12 -123.5 42.5z" />
    <glyph glyph-name="upsilondieresis" unicode="&#x3cb;" horiz-adv-x="1209" 
d="M303 1461h200v-200h-200v200zM706 1461h200v-200h-200v200zM332 549q0 -159 59 -269.5t214 -110.5q154 0 213 110.5t59 269.5v531h212v-587q0 -221 -99.5 -371.5t-384.5 -150.5t-385 150.5t-100 371.5v587h212v-531z" />
    <glyph glyph-name="omicrontonos" unicode="&#x3cc;" horiz-adv-x="1219" 
d="M528 1240l143 350h164l-143 -350h-164zM330 42.5q-120 72.5 -185 202t-65 296.5q0 168 66 297t186 200.5t277 71.5q159 0 279.5 -72t185.5 -201.5t65 -295.5q0 -168 -65.5 -297.5t-185.5 -201.5t-279 -72t-279 72.5zM838 268.5q79 101.5 79 272.5q0 173 -79 272.5
t-229 99.5q-152 0 -229.5 -100t-77.5 -272q0 -174 79 -274t228 -100q150 0 229 101.5z" />
    <glyph glyph-name="upsilontonos" unicode="&#x3cd;" horiz-adv-x="1209" 
d="M494 1240l143 350h164l-143 -350h-164zM332 549q0 -159 59 -269.5t214 -110.5q154 0 213 110.5t59 269.5v531h212v-587q0 -221 -99.5 -371.5t-384.5 -150.5t-385 150.5t-100 371.5v587h212v-531z" />
    <glyph glyph-name="omegatonos" unicode="&#x3ce;" horiz-adv-x="1581" 
d="M970 1590l-142 -350h-164l142 350h164zM1420.5 858q80.5 -158 80.5 -357q0 -153 -48.5 -273.5t-142.5 -189.5t-226 -69q-99 0 -176.5 44t-116.5 137q-40 -93 -117 -137t-176 -44q-133 0 -227.5 70t-142.5 191t-48 272q0 199 81.5 356.5t237.5 251.5l140 -169
q-127 -87 -182 -187t-55 -243q0 -99 25.5 -176.5t75.5 -122t121 -44.5q74 0 111 47t47.5 123.5t10.5 198.5v148h195v-148q0 -122 11 -198.5t47.5 -123.5t110.5 -47q72 0 122 45.5t75 123t25 174.5q0 146 -55.5 245t-180.5 185l140 169q157 -94 237.5 -252z" />
    <glyph glyph-name="uni0400" unicode="&#x400;" horiz-adv-x="1160" 
d="M399 1950h164l143 -350h-164zM1060 1440v-197h-711v-404h591v-197h-591v-445h711v-197h-920v1440h920z" />
    <glyph glyph-name="uni0401" unicode="&#x401;" horiz-adv-x="1160" 
d="M287 1821h200v-200h-200v200zM690 1821h200v-200h-200v200zM1060 1440v-197h-711v-404h591v-197h-591v-445h711v-197h-920v1440h920z" />
    <glyph glyph-name="uni0402" unicode="&#x402;" horiz-adv-x="1332" 
d="M0 1252v188h660v-188h-321v-294q66 76 167 114t230 38q249 0 382.5 -140t133.5 -409q0 -264 -131 -412.5t-395 -148.5v212q162 0 238 94.5t76 258.5q0 342 -331 342q-130 0 -212 -51.5t-111 -147.5q-22 -73 -22 -204v-504h-211v1252h-153z" />
    <glyph glyph-name="uni0403" unicode="&#x403;" horiz-adv-x="1080" 
d="M406 1600l143 350h164l-143 -350h-164zM1060 1440v-197h-711v-1243h-209v1440h920z" />
    <glyph glyph-name="uni0404" unicode="&#x404;" horiz-adv-x="1441" 
d="M383 68.5q-152 98.5 -232 269t-78 382.5q2 224 82 393.5t230.5 263t356.5 93.5q166 0 297.5 -58.5t218.5 -169.5t123 -267l-210 -30q-39 151 -151.5 238.5t-273.5 87.5q-129 0 -224.5 -56.5t-151.5 -158.5t-71 -237h518v-197h-516q7 -86 31 -158.5t71 -134.5
q59 -80 153 -120t205 -40q98 0 180 38.5t139.5 108.5t85.5 163l205 -52q-62 -223 -225 -340t-404 -117q-207 0 -359 98.5z" />
    <glyph glyph-name="uni0405" unicode="&#x405;" horiz-adv-x="1287" 
d="M382 23.5q-125 53.5 -205.5 154t-103.5 235.5l218 33q22 -87 76.5 -150t133.5 -96t173 -33q87 0 161 28t117.5 80t43.5 122q0 74 -47.5 118.5t-133.5 70.5l-369 109q-137 40 -227 122t-90 239q0 130 67.5 223.5t184.5 142t264 47.5q145 -1 261 -51.5t192.5 -145
t105.5 -225.5l-224 -38q-16 81 -65.5 140.5t-122.5 90.5t-158 31q-78 0 -143 -26t-103 -73t-38 -106q0 -80 61.5 -121.5t162.5 -69.5l266 -75q98 -27 175.5 -64t138 -116.5t60.5 -208.5q0 -140 -74.5 -239.5t-200 -150.5t-277.5 -51q-155 0 -280 53.5z" />
    <glyph glyph-name="uni0406" unicode="&#x406;" horiz-adv-x="529" 
d="M160 1440h209v-1440h-209v1440z" />
    <glyph glyph-name="uni0407" unicode="&#x407;" horiz-adv-x="529" 
d="M-37 1821h200v-200h-200v200zM366 1821h200v-200h-200v200zM369 1440v-1440h-209v1440h209z" />
    <glyph glyph-name="uni0408" unicode="&#x408;" horiz-adv-x="977" 
d="M150 53.5q-108 82.5 -150 227.5l207 49q9 -45 38.5 -82t72 -58.5t89.5 -21.5q52 0 101 25.5t73 76.5q16 32 19.5 72.5t3.5 118.5v979h212v-979v-73q0 -76 -8.5 -125.5t-38.5 -100.5q-55 -96 -147 -143.5t-208 -47.5q-156 0 -264 82.5z" />
    <glyph glyph-name="uni0409" unicode="&#x409;" horiz-adv-x="2193" 
d="M1949.5 833.5q81.5 -62.5 122.5 -158t41 -214.5q0 -118 -40.5 -214t-122 -158.5t-199.5 -80.5q-49 -8 -110 -8h-582v1243h-539l-2 -35q-16 -238 -34.5 -430.5t-53.5 -389.5q-24 -133 -55.5 -218t-90.5 -134t-156 -49q-50 0 -108 13v179q22 -2 32 -2q55 0 87.5 25.5
t53 87.5t40.5 183q39 215 59 456.5t32 510.5h945v-517h372q61 0 110 -8q117 -19 198.5 -81.5zM1856.5 300q43.5 72 43.5 161t-43.5 161t-133.5 94q-37 9 -90 9h-364v-528h364q54 0 90 10q90 21 133.5 93z" />
    <glyph glyph-name="uni040A" unicode="&#x40a;" horiz-adv-x="2175" 
d="M1932 833.5q81 -62.5 122 -158t41 -214.5q0 -118 -40.5 -214t-121.5 -158.5t-199 -80.5q-49 -8 -111 -8h-582v724h-692v-724h-209v1440h209v-519h692v519h210v-517h372q62 0 111 -8q117 -19 198 -81.5zM1839.5 300q43.5 72 43.5 161t-43.5 161t-133.5 94q-37 9 -91 9
h-364v-528h364q55 0 91 10q90 21 133.5 93z" />
    <glyph glyph-name="uni040B" unicode="&#x40b;" horiz-adv-x="1333" 
d="M1074 811q119 -146 119 -404v-407h-212v340q0 126 -25 216t-97.5 145.5t-205.5 55.5q-95 0 -173 -26.5t-129 -67.5v-663h-211v1252h-140v188h660v-188h-309v-374q64 38 153 58.5t189 20.5q262 0 381 -146z" />
    <glyph glyph-name="uni040C" unicode="&#x40c;" horiz-adv-x="1259" 
d="M562 1600l143 350h164l-143 -350h-164zM140 1440h209v-672l603 672h260l-637 -703l684 -737h-268l-642 688v-688h-209v1440z" />
    <glyph glyph-name="uni040D" unicode="&#x40d;" horiz-adv-x="1413" 
d="M505 1950h164l142 -350h-164zM140 1440h212v-1070l709 1070h212v-1440h-212v1071l-709 -1071h-212v1440z" />
    <glyph glyph-name="uni040E" unicode="&#x40e;" horiz-adv-x="1264" 
d="M500 1602.5q-66 38.5 -104.5 105t-38.5 144.5h166q0 -50 35.5 -86t86.5 -36t86.5 36t35.5 86h166q0 -78 -39 -144t-105 -105t-144 -39q-79 0 -145 38.5zM27 1440h235l376 -845l386 845h223l-674 -1440h-226l182 373z" />
    <glyph glyph-name="uni040F" unicode="&#x40f;" horiz-adv-x="1513" 
d="M652 0h-512v1440h209v-1243h815v1243h209v-1440h-512v-240h-209v240z" />
    <glyph glyph-name="uni0410" unicode="&#x410;" horiz-adv-x="1317" 
d="M1060 0l-107 325h-591l-105 -325h-217l468 1440h301l468 -1440h-217zM426 521h463l-233 710z" />
    <glyph glyph-name="uni0411" unicode="&#x411;" horiz-adv-x="1254" 
d="M1079 1440v-197h-730v-347h373q58 0 111 -7q114 -14 195.5 -75.5t123.5 -156.5t42 -209t-41.5 -209.5t-123 -156.5t-196.5 -75q-53 -7 -111 -7h-582v1440h939zM805 205q90 19 133 87t43 156t-43 156t-133 87q-40 8 -91 8h-365v-502h365q51 0 91 8z" />
    <glyph glyph-name="uni0412" unicode="&#x412;" horiz-adv-x="1250" 
d="M1133.5 626q57.5 -90 57.5 -206q0 -127 -51 -222t-148 -146.5t-232 -51.5h-620v1440h566q132 0 226.5 -54.5t142.5 -143t48 -189.5q0 -98 -40.5 -174t-112.5 -118q106 -45 163.5 -135zM352 852h351q58 0 105 24t74 69t27 106q0 56 -25.5 99.5t-72.5 68t-108 24.5h-351
v-391zM856.5 226.5q56.5 27.5 88.5 78t32 119.5q0 65 -29 118t-83 83t-124 30h-389v-456h376q72 0 128.5 27.5z" />
    <glyph glyph-name="uni0413" unicode="&#x413;" horiz-adv-x="1080" 
d="M140 1440h920v-197h-711v-1243h-209v1440z" />
    <glyph glyph-name="uni0414" unicode="&#x414;" horiz-adv-x="1495" 
d="M214.5 258.5q54.5 61.5 79.5 160.5t39 245q12 127 22 271.5t18 290.5l13 215l922 -1v-1243h107v-437h-210v240h-929v-240h-209v437q93 0 147.5 61.5zM1099 1243l-520 1l-10 -174q-2 -31 -10 -169t-23 -281q-12 -123 -24.5 -194.5t-35.5 -126.5t-66 -102h689v1046z" />
    <glyph glyph-name="uni0415" unicode="&#x415;" horiz-adv-x="1160" 
d="M140 1440h920v-197h-711v-404h591v-197h-591v-445h711v-197h-920v1440z" />
    <glyph glyph-name="uni0416" unicode="&#x416;" horiz-adv-x="1815" 
d="M594 737l-527 703h253l483 -659v659h209v-659l483 659h253l-527 -703l574 -737h-262l-521 675v-675h-209v675l-522 -675h-261z" />
    <glyph glyph-name="uni0417" unicode="&#x417;" horiz-adv-x="1263" 
d="M377.5 12.5q-112.5 42.5 -188 112t-116.5 154.5l182 118q40 -100 136 -164t251 -64q107 0 180.5 32.5t109.5 89.5t36 129q0 115 -85 162.5t-230 51.5q-141 5 -162 5v198q108 0 145 2q127 6 202 62t75 155q0 67 -33.5 116t-95 75t-141.5 26q-110 0 -194 -50t-132 -132
l-154 145q76 105 202.5 169.5t283.5 64.5q129 0 240 -45t178.5 -137t67.5 -225q0 -103 -42 -189t-114 -136q101 -38 156 -118t55 -201q0 -135 -71.5 -237t-198.5 -157t-287 -55q-143 0 -255.5 42.5z" />
    <glyph glyph-name="uni0418" unicode="&#x418;" horiz-adv-x="1414" 
d="M1273 0h-212v1071l-709 -1071h-212v1440h212v-1070l709 1070h212v-1440z" />
    <glyph glyph-name="uni0419" unicode="&#x419;" horiz-adv-x="1413" 
d="M566 1603q-66 39 -105 105t-39 144h166q0 -50 36 -86t86 -36q51 0 86.5 36t35.5 86h166q0 -78 -39 -144t-105 -105t-144 -39t-144 39zM140 1440h212v-1070l709 1070h212v-1440h-212v1071l-709 -1071h-212v1440z" />
    <glyph glyph-name="uni041A" unicode="&#x41a;" horiz-adv-x="1259" 
d="M140 1440h209v-672l603 672h260l-637 -703l684 -737h-268l-642 688v-688h-209v1440z" />
    <glyph glyph-name="uni041B" unicode="&#x41b;" horiz-adv-x="1429" 
d="M72 177q55 0 87.5 25.5t53 87.5t40.5 183q39 215 59 456.5t32 510.5h945v-1440h-209v1243h-540l-2 -35q-16 -238 -34.5 -430.5t-53.5 -389.5q-24 -133 -55.5 -218t-90.5 -134t-156 -49q-50 0 -108 13v179q22 -2 32 -2z" />
    <glyph glyph-name="uni041C" unicode="&#x41c;" horiz-adv-x="1701" 
d="M140 1440h189l522 -1083l519 1083h191v-1439h-198v985l-465 -986h-95l-466 986v-986h-197v1440z" />
    <glyph glyph-name="uni041D" unicode="&#x41d;" horiz-adv-x="1419" 
d="M140 1440h209v-621h720v621h210v-1440h-210v622h-720v-622h-209v1440z" />
    <glyph glyph-name="uni041E" unicode="&#x41e;" horiz-adv-x="1481" 
d="M375 64q-154 94 -234.5 263.5t-80.5 392.5t80.5 392.5t234.5 263.5t366 94t365.5 -94t234 -263.5t80.5 -392.5t-80.5 -392.5t-234 -263.5t-365.5 -94t-366 94zM993.5 236q102.5 68 154 192.5t51.5 291.5t-51.5 290.5t-154 191.5t-252.5 69t-252.5 -67t-154 -192.5
t-52.5 -291.5t51 -290.5t155 -191.5t253 -69t252.5 67z" />
    <glyph glyph-name="uni041F" unicode="&#x41f;" horiz-adv-x="1425" 
d="M140 1440h1145v-1440h-209v1243h-727v-1243h-209v1440z" />
    <glyph glyph-name="uni0420" unicode="&#x420;" horiz-adv-x="1254" 
d="M722 1440q60 0 111 -8q118 -18 199 -80.5t121.5 -158.5t40.5 -214q0 -119 -41 -214.5t-122 -158t-198 -81.5q-51 -8 -111 -8h-373v-517h-209v1440h582zM805 724q89 22 132.5 94t43.5 161t-43.5 161t-132.5 93q-37 10 -91 10h-365v-528h365q52 0 91 9z" />
    <glyph glyph-name="uni0421" unicode="&#x421;" horiz-adv-x="1461" 
d="M375 64q-154 94 -234.5 263.5t-80.5 392.5t80.5 392.5t234.5 263.5t366 94q163 0 292.5 -56.5t217 -161t130.5 -247.5l-212 -57q-44 154 -152 238.5t-276 84.5q-150 0 -253 -68t-154.5 -192t-52.5 -291t51 -291t155.5 -192t253.5 -68q168 0 276 84.5t152 238.5l212 -57
q-43 -143 -130.5 -247.5t-217 -161t-292.5 -56.5q-212 0 -366 94z" />
    <glyph glyph-name="uni0422" unicode="&#x422;" horiz-adv-x="1207" 
d="M499 1243h-479v197h1167v-197h-479v-1243h-209v1243z" />
    <glyph glyph-name="uni0423" unicode="&#x423;" horiz-adv-x="1264" 
d="M529 373l-502 1067h235l376 -845l386 845h223l-674 -1440h-226z" />
    <glyph glyph-name="uni0424" unicode="&#x424;" horiz-adv-x="1459" 
d="M538 194q-132 0 -241 66.5t-173 195t-64 306.5t64.5 308.5t174 198.5t241.5 68q44 0 85 -7v110h208v-110q41 7 85 7q132 0 242 -68t174.5 -198.5t64.5 -308.5t-64.5 -306.5t-173.5 -195t-241 -66.5q-46 0 -87 7v-201h-208v201q-41 -7 -87 -7zM568 1143q-97 0 -163 -51.5
t-98.5 -138t-32.5 -191.5q0 -104 32 -188t97.5 -134t162.5 -50q24 0 59 5v744q-27 4 -57 4zM891 390q96 0 162.5 49.5t99 133t32.5 184.5q0 102 -33 190t-100.5 142t-164.5 54q-29 0 -54 -4v-744q33 -5 58 -5z" />
    <glyph glyph-name="uni0425" unicode="&#x425;" horiz-adv-x="1278" 
d="M511 729l-478 711h256l351 -534l349 534h257l-478 -711l490 -729h-256l-362 551l-363 -551h-257z" />
    <glyph glyph-name="uni0426" unicode="&#x426;" horiz-adv-x="1477" 
d="M1248 0h-1108v1440h209v-1252h742v1225h209v-1225h157v-401h-209v213z" />
    <glyph glyph-name="uni0427" unicode="&#x427;" horiz-adv-x="1333" 
d="M1193 1440v-1440h-211v562q-63 -38 -152.5 -58.5t-189.5 -20.5q-262 0 -381 146t-119 404v407h212v-340q0 -126 25 -216t97 -145.5t205 -55.5q95 0 173.5 26.5t129.5 67.5v663h211z" />
    <glyph glyph-name="uni0428" unicode="&#x428;" horiz-adv-x="1867" 
d="M140 1440h209v-1243h480v1243h209v-1243h479v1243h210v-1440h-1587v1440z" />
    <glyph glyph-name="uni0429" unicode="&#x429;" horiz-adv-x="1904" 
d="M1727 188h157v-401h-209v213h-1535v1440h209v-1243h480v1243h209v-1243h479v1243h210v-1252z" />
    <glyph glyph-name="uni042A" unicode="&#x42a;" horiz-adv-x="1290" 
d="M-7 1272v168h403v-517h373q61 0 110 -8q117 -19 198.5 -81.5t122.5 -158t41 -214.5q0 -118 -40.5 -214t-122 -158.5t-199.5 -80.5q-49 -8 -110 -8h-582v1272h-194zM851 207q90 21 133.5 93t43.5 161t-43.5 161t-133.5 94q-37 9 -90 9h-365v-528h365q54 0 90 10z" />
    <glyph glyph-name="uni042B" unicode="&#x42b;" horiz-adv-x="1685" 
d="M348 1440v-517h373q61 0 110 -8q117 -19 198.5 -81.5t122.5 -158t41 -214.5q0 -118 -40.5 -214t-122 -158.5t-199.5 -80.5q-49 -8 -110 -8h-582v1440h209zM803 207q90 21 133.5 93t43.5 161t-43.5 161t-133.5 94q-37 9 -90 9h-365v-528h365q54 0 90 10zM1335 1440h209
v-1440h-209v1440z" />
    <glyph glyph-name="uni042C" unicode="&#x42c;" horiz-adv-x="1273" 
d="M348 1440v-517h373q61 0 110 -8q117 -19 198.5 -81.5t122.5 -158t41 -214.5q0 -118 -40.5 -214t-122 -158.5t-199.5 -80.5q-49 -8 -110 -8h-582v1440h209zM803 207q90 21 133.5 93t43.5 161t-43.5 161t-133.5 94q-37 9 -90 9h-365v-528h365q54 0 90 10z" />
    <glyph glyph-name="uni042D" unicode="&#x42d;" horiz-adv-x="1428" 
d="M295 87q-163 117 -225 340l205 52q28 -93 86 -163t139.5 -108.5t179.5 -38.5q111 0 205 40t153 120q47 62 71 134.5t32 158.5h-516v197h517q-15 135 -71 237t-151.5 158.5t-224.5 56.5q-107 0 -194 -39.5t-146 -113t-84 -173.5l-211 30q36 156 123 267t218.5 169.5
t297.5 58.5q206 0 356.5 -93.5t230.5 -263t82 -393.5q2 -212 -78 -382.5t-232 -269t-359 -98.5q-241 0 -404 117z" />
    <glyph glyph-name="uni042E" unicode="&#x42e;" horiz-adv-x="1873" 
d="M1538.5 1374.5q134.5 -94.5 204.5 -264t70 -390.5q0 -223 -70 -392.5t-204.5 -263.5t-321.5 -94q-172 0 -300 80.5t-202.5 226t-90.5 338.5h-275v-615h-209v1440h209v-615h275q16 193 90 338.5t202 225.5t301 80q187 0 321.5 -94.5zM1550 1004.5q-42 124.5 -126.5 195.5
t-206.5 71q-123 0 -207 -71t-125.5 -195.5t-42.5 -284.5t41 -284.5t126.5 -195.5t207.5 -71q122 0 206 71t125.5 195.5t42.5 284.5t-41 284.5z" />
    <glyph glyph-name="uni042F" unicode="&#x42f;" horiz-adv-x="1301" 
d="M1161 1440v-1440h-209v517h-382l-251 -517h-239l272 558q-120 52 -182.5 163t-62.5 258q0 118 40.5 214t121.5 158.5t199 80.5q51 8 111 8h582zM952 1243h-365q-53 0 -91 -10q-89 -21 -132.5 -93t-43.5 -161t43.5 -161t132.5 -94q39 -9 91 -9h365v528z" />
    <glyph glyph-name="uni0430" unicode="&#x430;" horiz-adv-x="1139" 
d="M1011.5 799.5q7.5 -55.5 7.5 -134.5v-665h-185v157q-67 -95 -162.5 -141t-226.5 -46q-116 0 -198 43.5t-124.5 117t-42.5 163.5q0 239 255 320q77 23 174.5 39.5t270.5 40.5l33 4q-5 114 -62 166.5t-182 52.5q-91 0 -160 -42t-95 -128l-195 60q40 143 154.5 223t297.5 80
q149 0 255 -51t155 -155q23 -49 30.5 -104.5zM632 171.5q65 30.5 104.5 79.5t52.5 104q20 58 22 169l-26 -4q-146 -21 -218.5 -34t-130.5 -30q-70 -24 -109.5 -62t-39.5 -98q0 -67 49.5 -111t145.5 -44q85 0 150 30.5z" />
    <glyph glyph-name="uni0431" unicode="&#x431;" horiz-adv-x="1187" 
d="M226.5 115.5q-128.5 145.5 -143.5 411.5q-2 26 -2 83q0 128 18 258t50 210q28 70 77.5 131t111.5 103q58 40 130.5 64.5t145.5 37.5t183 27q18 3 79 11t111 18l20 -187q-32 -7 -79.5 -13.5t-96.5 -12.5q-138 -15 -229.5 -34t-154.5 -58q-72 -45 -113 -131t-49 -194
q59 90 153 133.5t204 43.5q141 0 246.5 -67.5t162 -185t56.5 -265.5q0 -158 -65.5 -279t-184 -186.5t-273.5 -64.5q-229 1 -357.5 146.5zM811 253.5q75 87.5 75 238.5q0 152 -76.5 239t-214.5 87q-139 0 -214.5 -86.5t-75.5 -239.5q0 -155 75.5 -240.5t214.5 -85.5
q141 0 216 87.5z" />
    <glyph glyph-name="uni0432" unicode="&#x432;" horiz-adv-x="1103" 
d="M614 1080q105 0 177 -21q87 -25 142.5 -95.5t55.5 -178.5q0 -118 -75 -186q-31 -29 -70 -42q35 -6 73 -26q126 -65 126 -229q0 -109 -53 -182.5t-150 -100.5q-65 -19 -180 -19h-521v1080h475zM696 639q37 15 57 49.5t20 78.5q0 47 -21.5 82.5t-62.5 49.5q-40 13 -114 13
h-224v-289h234q72 0 111 16zM695 169q27 4 48 11q42 13 63 49t21 81q0 54 -29 89.5t-77 46.5q-28 9 -85 9h-285v-290h296q21 0 48 4z" />
    <glyph glyph-name="uni0433" unicode="&#x433;" horiz-adv-x="950" 
d="M140 1080h760v-197h-551v-883h-209v1080z" />
    <glyph glyph-name="uni0434" unicode="&#x434;" horiz-adv-x="1243" 
d="M154.5 193.5q35.5 25.5 57 81t37.5 155.5q20 122 31.5 271.5t22.5 378.5h774v-912h106v-408h-198v240h-726v-240h-199v408q59 0 94.5 25.5zM867 912h-378q-21 -367 -47 -521q-13 -87 -30.5 -137.5t-52.5 -85.5h508v744z" />
    <glyph glyph-name="uni0435" unicode="&#x435;" horiz-adv-x="1193" 
d="M395 248.5q78 -81.5 214 -81.5q97 0 169 44t112 128l205 -65q-62 -143 -190 -223.5t-286 -80.5q-160 0 -282 70.5t-189.5 198t-67.5 292.5q0 175 66 306t186 202t277 71q155 0 268 -69t173.5 -197.5t60.5 -303.5q0 -19 -2 -59h-805q13 -151 91 -232.5zM406.5 853.5
q-77.5 -71.5 -97.5 -209.5h586q-17 143 -85.5 212t-192.5 69q-133 0 -210.5 -71.5z" />
    <glyph glyph-name="uni0436" unicode="&#x436;" horiz-adv-x="1487" 
d="M436 540l-393 540h230l376 -527v527h188v-527l376 527h231l-393 -540l416 -540h-243l-387 527v-527h-188v527l-386 -527h-243z" />
    <glyph glyph-name="uni0437" unicode="&#x437;" horiz-adv-x="1031" 
d="M918.5 460q32.5 -67 32.5 -147q0 -106 -57 -183.5t-154 -118.5t-215 -41q-157 0 -281.5 66.5t-196.5 185.5l166 109q120 -164 307 -164q100 0 158.5 45t58.5 123q0 58 -32 88t-86.5 40t-139.5 10h-96v168h96q107 0 166 29.5t59 102.5q0 70 -52 105.5t-132 35.5
q-81 0 -160.5 -34t-140.5 -89l-122 143q87 84 198 130t236 46q106 0 194.5 -37t141 -109.5t52.5 -172.5q0 -130 -95 -225q62 -39 94.5 -106z" />
    <glyph glyph-name="uni0438" unicode="&#x438;" horiz-adv-x="1190" 
d="M1050 0h-201v751l-540 -751h-170v1080h201v-736l541 736h169v-1080z" />
    <glyph glyph-name="uni0439" unicode="&#x439;" horiz-adv-x="1190" 
d="M478 1243q-66 39 -105 105t-39 144h166q0 -50 36 -86t86 -36q51 0 86.5 36t35.5 86h166q0 -78 -39 -144t-105 -105t-144 -39t-144 39zM849 0v751l-540 -751h-170v1080h201v-736l541 736h169v-1080h-201z" />
    <glyph glyph-name="uni043A" unicode="&#x43a;" horiz-adv-x="1048" 
d="M140 1080h212v-520l424 520h266l-448 -540l494 -540h-284l-452 520v-520h-213z" />
    <glyph glyph-name="uni043B" unicode="&#x43b;" horiz-adv-x="1191" 
d="M85 172q39 0 62 18t35 52t23 93q23 128 39.5 311t30.5 434h776v-1080h-210v883h-378q-35 -459 -70 -636q-26 -137 -79 -199t-157 -62q-55 0 -117 14v177q28 -5 45 -5z" />
    <glyph glyph-name="uni043C" unicode="&#x43c;" horiz-adv-x="1427" 
d="M139 1080h175l399 -792l398 792h176v-1080h-202v652l-325 -652h-95l-325 652v-652h-201v1080z" />
    <glyph glyph-name="uni043D" unicode="&#x43d;" horiz-adv-x="1224" 
d="M139 1080h209v-441h527v441h209v-1080h-209v442h-527v-442h-209v1080z" />
    <glyph glyph-name="uni043E" unicode="&#x43e;" horiz-adv-x="1219" 
d="M330 42.5q-120 72.5 -185 202t-65 296.5q0 168 66 297t186 200.5t277 71.5q159 0 279.5 -72t185.5 -201.5t65 -295.5q0 -168 -65.5 -297.5t-185.5 -201.5t-279 -72t-279 72.5zM838 268.5q79 101.5 79 272.5q0 173 -79 272.5t-229 99.5q-152 0 -229.5 -100t-77.5 -272
q0 -174 79 -274t228 -100q150 0 229 101.5z" />
    <glyph glyph-name="uni043F" unicode="&#x43f;" horiz-adv-x="1190" 
d="M139 1080h911v-1080h-209v883h-493v-883h-209v1080z" />
    <glyph glyph-name="uni0440" unicode="&#x440;" horiz-adv-x="1216" 
d="M903.5 1036.5q111.5 -73.5 172 -203t60.5 -292.5q0 -162 -60 -292t-171 -204.5t-258 -74.5q-178 0 -298 106v-556h-210v1560h186v-97q59 61 139 94t179 33q149 0 260.5 -73.5zM781.5 209q66.5 50 99.5 136t33 196q0 109 -33 195t-101 135.5t-169 49.5
q-143 0 -214.5 -102.5t-71.5 -277.5q0 -177 72.5 -279.5t220.5 -102.5q97 0 163.5 50z" />
    <glyph glyph-name="uni0441" unicode="&#x441;" horiz-adv-x="1137" 
d="M322.5 43q-117.5 73 -179.5 202t-63 295q1 167 64.5 296.5t182 201.5t278.5 72q117 0 213.5 -40t162 -114t92.5 -175l-208 -60q-31 90 -101.5 141t-161.5 51q-148 0 -223.5 -101.5t-76.5 -271.5q1 -172 78 -272.5t222 -100.5q98 0 161.5 45.5t97.5 134.5l212 -50
q-53 -159 -175 -243t-296 -84q-162 0 -279.5 73z" />
    <glyph glyph-name="uni0442" unicode="&#x442;" horiz-adv-x="1047" 
d="M419 892h-369v188h947v-188h-369v-892h-209v892z" />
    <glyph glyph-name="uni0443" unicode="&#x443;" horiz-adv-x="1097" 
d="M869 1080h212l-596 -1560h-199l178 485l-437 1075h218l319 -812z" />
    <glyph glyph-name="uni0444" unicode="&#x444;" horiz-adv-x="1484" 
d="M558 -26q-137 0 -245.5 67t-170.5 195t-62 303t62 303.5t170.5 196t245.5 67.5q47 0 90 -7v327h188v-327q43 7 90 7q137 0 245.5 -67.5t170.5 -196t62 -303.5t-62 -303t-170.5 -195t-245.5 -67q-47 0 -90 7v-431h-188v431q-43 -7 -90 -7zM583 915q-89 0 -154 -44
t-100 -128.5t-35 -203.5q0 -118 36 -202t102 -128t154 -44q35 0 62 5v739q-35 6 -65 6zM900 164q87 0 152.5 43.5t101.5 128t36 203.5q0 120 -34.5 204.5t-99 128t-153.5 43.5q-32 0 -67 -6v-739q33 -6 64 -6z" />
    <glyph glyph-name="uni0445" unicode="&#x445;" horiz-adv-x="1090" 
d="M424 546l-395 534h248l269 -371l266 371h248l-395 -534l405 -546h-249l-275 383l-277 -383h-249z" />
    <glyph glyph-name="uni0446" unicode="&#x446;" horiz-adv-x="1281" 
d="M1052 0h-913v1080h209v-883h493v883h209v-892h211v-401h-209v213z" />
    <glyph glyph-name="uni0447" unicode="&#x447;" horiz-adv-x="1130" 
d="M647 330q-74 -17 -153 -17q-165 0 -266 74t-131 216q-17 83 -17 223v254h212v-254q0 -92 13 -151q19 -91 76 -134t161 -43q71 0 132 19t105 51v512h211v-1080h-211v376q-58 -29 -132 -46z" />
    <glyph glyph-name="uni0448" unicode="&#x448;" horiz-adv-x="1559" 
d="M139 1080h201v-892h339v892h201v-892h338v892h201v-1080h-1280v1080z" />
    <glyph glyph-name="uni0449" unicode="&#x449;" horiz-adv-x="1554" 
d="M1325 0h-1186v1080h201v-892h339v892h201v-892h338v892h201v-892h115v-401h-209v213z" />
    <glyph glyph-name="uni044A" unicode="&#x44a;" horiz-adv-x="1169" 
d="M40 912v168h363v-375h214q128 0 188 -12q284 -58 284 -342q0 -138 -71 -223t-200 -114q-62 -14 -195 -14h-429l-1 912h-153zM752 179q52 15 87.5 59.5t35.5 112.5q0 71 -36 116t-96 59q-43 11 -108 11h-232v-369h232q76 0 117 11z" />
    <glyph glyph-name="uni044B" unicode="&#x44b;" horiz-adv-x="1432" 
d="M349 1080v-375h142q129 0 189 -12q284 -58 284 -342q0 -137 -71.5 -222.5t-199.5 -114.5q-63 -14 -195 -14h-359v1080h210zM1292 1080v-1080h-209v1080h209zM627 179q52 15 87.5 59.5t35.5 112.5q0 71 -36.5 116t-95.5 59q-43 11 -108 11h-161v-369h161q76 0 117 11z" />
    <glyph glyph-name="uni044C" unicode="&#x44c;" horiz-adv-x="1115" 
d="M349 1080v-375h213q129 0 189 -12q136 -28 210 -112t74 -230q0 -138 -71.5 -223t-200.5 -114q-62 -14 -194 -14h-430v1080h210zM697 179q52 15 88 59.5t36 112.5q0 71 -36.5 116t-95.5 59q-44 11 -108 11h-232v-369h232q76 0 116 11z" />
    <glyph glyph-name="uni044D" unicode="&#x44d;" horiz-adv-x="1138" 
d="M240 54q-122 84 -175 243l212 50q34 -89 97.5 -134.5t161.5 -45.5q127 0 201 77t92 213h-401v168h401q-16 131 -89.5 209.5t-198.5 78.5q-95 0 -166 -50t-102 -142l-208 60q27 101 92.5 175t163 114t215.5 40q159 0 277 -72.5t181.5 -202t63.5 -296.5q0 -166 -62.5 -295
t-180.5 -201.5t-278 -72.5q-175 0 -297 84z" />
    <glyph glyph-name="uni044E" unicode="&#x44e;" horiz-adv-x="1662" 
d="M814 26q-105 56 -171 161t-84 248h-211v-435h-209v1080h209v-435h210q18 145 85 250t172.5 160t239.5 55q158 0 277.5 -72.5t184.5 -202t65 -293.5q0 -168 -65.5 -298t-186 -202t-278.5 -72q-133 0 -238 56zM1281 268q79 101 79 273q0 175 -79 273.5t-231 98.5
q-149 0 -227 -99t-78 -272q0 -175 78.5 -275t225.5 -100q153 0 232 101z" />
    <glyph glyph-name="uni044F" unicode="&#x44f;" horiz-adv-x="1147" 
d="M797 0v375h-214q-27 0 -42 1l-238 -376h-223l258 403q-105 34 -166 115.5t-61 206.5q0 137 74 225.5t197 114.5q45 10 91.5 12.5t103.5 2.5h429l1 -1080h-210zM797 543v369h-232q-73 0 -116 -13q-51 -15 -87.5 -60.5t-36.5 -111.5t37.5 -111.5t94.5 -60.5q46 -12 108 -12
h232z" />
    <glyph glyph-name="uni0450" unicode="&#x450;" horiz-adv-x="1193" 
d="M697 1240h-164l-143 350h164zM395 248.5q78 -81.5 214 -81.5q97 0 169 44t112 128l205 -65q-62 -143 -190 -223.5t-286 -80.5q-160 0 -282 70.5t-189.5 198t-67.5 292.5q0 175 66 306t186 202t277 71q155 0 268 -69t173.5 -197.5t60.5 -303.5q0 -19 -2 -59h-805
q13 -151 91 -232.5zM406.5 853.5q-77.5 -71.5 -97.5 -209.5h586q-17 143 -85.5 212t-192.5 69q-133 0 -210.5 -71.5z" />
    <glyph glyph-name="uni0451" unicode="&#x451;" horiz-adv-x="1193" 
d="M507 1461v-200h-200v200h200zM910 1461v-200h-200v200h200zM395 248.5q78 -81.5 214 -81.5q97 0 169 44t112 128l205 -65q-62 -143 -190 -223.5t-286 -80.5q-160 0 -282 70.5t-189.5 198t-67.5 292.5q0 175 66 306t186 202t277 71q155 0 268 -69t173.5 -197.5
t60.5 -303.5q0 -19 -2 -59h-805q13 -151 91 -232.5zM406.5 853.5q-77.5 -71.5 -97.5 -209.5h586q-17 143 -85.5 212t-192.5 69q-133 0 -210.5 -71.5z" />
    <glyph glyph-name="uni0452" unicode="&#x452;" 
d="M859 -438q-74 0 -134 17v154q36 -4 54 -4q56 0 87.5 31t31.5 115v656q0 159 -59 269.5t-214 110.5q-123 0 -198.5 -84t-75.5 -265v-562h-211v1173h-116v167h116v100h186v-100h221v-167h-221v-226q60 79 150.5 120.5t206.5 41.5q170 0 265.5 -85.5t128.5 -199.5t33 -224
v-781q0 -105 -44.5 -168t-130.5 -82q-35 -7 -76 -7z" />
    <glyph glyph-name="uni0453" unicode="&#x453;" horiz-adv-x="950" 
d="M380 1240l142 350h164l-142 -350h-164zM900 1080v-197h-551v-883h-209v1080h760z" />
    <glyph glyph-name="uni0454" unicode="&#x454;" horiz-adv-x="1138" 
d="M323 42.5q-118 72.5 -180.5 201.5t-62.5 295q0 167 63.5 296.5t181.5 202t277 72.5q118 0 215.5 -40t163 -114t92.5 -175l-208 -60q-31 92 -102 142t-166 50q-125 0 -198.5 -78.5t-89.5 -209.5h401v-168h-401q18 -136 92 -213t201 -77q98 0 161.5 45.5t97.5 134.5
l212 -50q-53 -159 -175 -243t-297 -84q-160 0 -278 72.5z" />
    <glyph glyph-name="uni0455" unicode="&#x455;" horiz-adv-x="1072" 
d="M232 58q-124 87 -152 245l214 33q20 -85 92.5 -133t180.5 -48q98 0 153.5 40t55.5 110q0 43 -20 67.5t-78.5 46.5t-191.5 58q-142 37 -221.5 78t-114.5 95.5t-35 135.5q0 97 52 170.5t147 113.5t221 40q123 0 221 -39t157.5 -111t71.5 -167l-214 -39q-12 80 -78.5 126
t-172.5 46q-88 0 -142 -35.5t-54 -93.5q0 -37 23 -61t86 -47t193 -56q138 -35 216.5 -77.5t113.5 -100t35 -142.5q0 -106 -52.5 -183t-151 -118t-234.5 -41q-197 0 -321 87z" />
    <glyph glyph-name="uni0456" unicode="&#x456;" horiz-adv-x="529" 
d="M160 1460h209v-203h-209v203zM160 1080h209v-1080h-209v1080z" />
    <glyph glyph-name="uni0457" unicode="&#x457;" horiz-adv-x="529" 
d="M-37 1461h200v-200h-200v200zM366 1461h200v-200h-200v200zM369 1080v-1080h-209v1080h209z" />
    <glyph glyph-name="uni0458" unicode="&#x458;" horiz-adv-x="551" 
d="M195 1460h210v-203h-210v203zM35 -282q82 0 121 40t39 123v1199h210v-1284q0 -132 -73 -204t-207 -72h-145v198h55z" />
    <glyph glyph-name="uni0459" unicode="&#x459;" horiz-adv-x="1699" 
d="M86 172q39 0 61.5 18t34.5 51.5t23 93.5q23 126 39 306.5t31 438.5h729v-375h143q65 0 106.5 -2t81.5 -10q129 -24 206.5 -109t77.5 -229q0 -142 -73.5 -229t-197.5 -112q-69 -14 -195 -14h-358l-1 883h-331q-35 -459 -70 -636q-26 -137 -79 -199t-157 -62q-55 0 -117 14
v177q28 -5 46 -5zM1282 179q52 15 87.5 59.5t35.5 115.5q0 70 -36.5 114t-95.5 58q-46 11 -108 11h-161v-369h161q75 0 117 11z" />
    <glyph glyph-name="uni045A" unicode="&#x45a;" horiz-adv-x="1649" 
d="M348 1080v-375h396v375h210v-375h143q65 0 106.5 -2t81.5 -10q129 -24 206.5 -109t77.5 -229q0 -142 -73.5 -229t-197.5 -112q-69 -14 -195 -14h-358l-1 537h-396v-537h-209v1080h209zM1232 179q52 15 87.5 59.5t35.5 115.5q0 70 -36.5 114t-95.5 58q-46 11 -108 11h-161
v-369h161q75 0 117 11z" />
    <glyph glyph-name="uni045B" unicode="&#x45b;" 
d="M948.5 1023.5q95.5 -85.5 128.5 -199.5t33 -224v-600h-212v531q0 159 -59 269.5t-214 110.5q-123 0 -198.5 -84t-75.5 -265v-562h-212v1173h-115v167h115v100h187v-100h221v-167h-221v-222q61 76 151 117t206 41q170 0 265.5 -85.5z" />
    <glyph glyph-name="uni045C" unicode="&#x45c;" horiz-adv-x="1048" 
d="M415 1240l143 350h164l-143 -350h-164zM352 1080v-520l424 520h266l-448 -540l494 -540h-284l-452 520v-520h-213l1 1080h212z" />
    <glyph glyph-name="uni045D" unicode="&#x45d;" horiz-adv-x="1190" 
d="M454 1590h164l142 -350h-164zM849 0v751l-540 -751h-170v1080h201v-736l541 736h169v-1080h-201z" />
    <glyph glyph-name="uni045E" unicode="&#x45e;" horiz-adv-x="1097" 
d="M433 1243q-66 39 -105 105t-39 144h166q0 -50 36 -86t86 -36q51 0 86.5 36t35.5 86h166q0 -78 -38.5 -144.5t-104.5 -105t-145 -38.5q-78 0 -144 39zM869 1080h212l-596 -1560h-199l178 485l-437 1075h218l319 -812z" />
    <glyph glyph-name="uni045F" unicode="&#x45f;" horiz-adv-x="1190" 
d="M507 0h-368v1080h209v-883h493v883h209v-1080h-334v-240h-209v240z" />
    <glyph glyph-name="uni0490" unicode="&#x490;" horiz-adv-x="1100" 
d="M140 1440h731v213h209v-410h-731v-1243h-209v1440z" />
    <glyph glyph-name="uni0491" unicode="&#x491;" horiz-adv-x="950" 
d="M140 1080h551v213h209v-410h-551v-883h-209v1080z" />
    <glyph glyph-name="uni04AE" unicode="&#x4ae;" horiz-adv-x="1186" 
d="M487 595l-487 845h244l349 -605l349 605h244l-487 -845v-595h-212v595z" />
    <glyph glyph-name="uni04AF" unicode="&#x4af;" horiz-adv-x="1076" 
d="M432 0l-392 1080h211l287 -818l287 818h211l-392 -1080v-360h-212v360z" />
    <glyph glyph-name="uni04BA" unicode="&#x4ba;" horiz-adv-x="1333" 
d="M1074 811q119 -146 119 -404v-407h-212v340q0 126 -25 216t-97 145.5t-205 55.5q-95 0 -173.5 -26.5t-129.5 -67.5v-663h-211v1440h211v-562q63 38 152.5 58.5t189.5 20.5q262 0 381 -146z" />
    <glyph glyph-name="uni04BB" unicode="&#x4bb;" horiz-adv-x="1143" 
d="M496 750q74 17 153 17q166 0 267 -74t130 -216q17 -83 17 -223v-254h-212v254q0 97 -12 151q-20 91 -77 134t-161 43q-71 0 -132 -19t-105 -51v-512h-211v1080h211v-376q58 29 132 46z" />
    <glyph glyph-name="uni04E8" unicode="&#x4e8;" horiz-adv-x="1521" 
d="M1106.5 1376q153.5 -94 234 -263.5t80.5 -392.5t-80.5 -392.5t-234 -263.5t-365.5 -94t-366 94t-234.5 263.5t-80.5 392.5t80.5 392.5t234.5 263.5t366 94t365.5 -94zM426.5 1154q-115.5 -119 -138.5 -329h905q-22 208 -137 326.5t-315 119.5q-199 2 -314.5 -117z
M1055.5 286q115.5 119 137.5 329h-906q23 -208 138.5 -326.5t315.5 -119.5q199 -2 314.5 117z" />
    <glyph glyph-name="uni04E9" unicode="&#x4e9;" horiz-adv-x="1219" 
d="M888.5 1038q120.5 -72 185.5 -201.5t65 -295.5q0 -168 -65.5 -297.5t-185.5 -201.5t-279 -72t-279 72.5t-185 202t-65 296.5q0 168 66 297t186 200.5t277 71.5q159 0 279.5 -72zM401 836.5q-76 -76.5 -94 -211.5h605q-18 136 -95.5 212t-207.5 76q-132 0 -208 -76.5z
M816.5 244.5q76.5 77.5 95.5 212.5h-605q18 -137 95 -213.5t207 -76.5q131 0 207.5 77.5z" />
    <glyph glyph-name="Wgrave" unicode="&#x1e80;" horiz-adv-x="1925" 
d="M727 1950h164l142 -350h-164zM246 1440l303 -1089l303 1088l220 1l303 -1089l303 1089h220l-419 -1440h-208l-309 1077l-309 -1077h-208l-418 1440h219z" />
    <glyph glyph-name="wgrave" unicode="&#x1e81;" horiz-adv-x="1581" 
d="M555 1590h164l143 -350h-164zM247 1080l226 -741l228 741h180l228 -741l226 741h206l-330 -1080h-168l-252 782l-253 -782h-168l-330 1081z" />
    <glyph glyph-name="Wacute" unicode="&#x1e82;" horiz-adv-x="1925" 
d="M891 1600l143 350h164l-143 -350h-164zM246 1440l303 -1089l303 1088l220 1l303 -1089l303 1089h220l-419 -1440h-208l-309 1077l-309 -1077h-208l-418 1440h219z" />
    <glyph glyph-name="wacute" unicode="&#x1e83;" horiz-adv-x="1581" 
d="M720 1240l142 350h164l-142 -350h-164zM247 1080l226 -741l228 741h180l228 -741l226 741h206l-330 -1080h-168l-252 782l-253 -782h-168l-330 1081z" />
    <glyph glyph-name="Wdieresis" unicode="&#x1e84;" horiz-adv-x="1925" 
d="M662 1821h200v-200h-200v200zM1065 1821h200v-200h-200v200zM246 1440l303 -1089l303 1088l220 1l303 -1089l303 1089h220l-419 -1440h-208l-309 1077l-309 -1077h-208l-418 1440h219z" />
    <glyph glyph-name="wdieresis" unicode="&#x1e85;" horiz-adv-x="1581" 
d="M489 1461h200v-200h-200v200zM892 1461h200v-200h-200v200zM247 1080l226 -741l228 741h180l228 -741l226 741h206l-330 -1080h-168l-252 782l-253 -782h-168l-330 1081z" />
    <glyph glyph-name="uni1E9E" unicode="&#x1e9e;" horiz-adv-x="1472" 
d="M691 0v205q81 -28 178 -28q124 0 201 63t76 184q-1 128 -97.5 193.5t-249.5 67.5l-33 138l235 389q-113 59 -242 59q-149 0 -248.5 -69t-134.5 -193q-24 -93 -24 -241v-768h-213v831q0 172 34 271q61 189 214.5 278.5t355.5 89.5q118 0 214 -24.5t163.5 -58.5t144.5 -84
l-270 -470q98 -18 179 -70.5t129.5 -140.5t48.5 -204q0 -137 -54 -238t-156.5 -155.5t-246.5 -54.5q-123 0 -204 30z" />
    <glyph glyph-name="uni1EA0" unicode="&#x1ea0;" horiz-adv-x="1317" 
d="M1277 0h-217l-107 325h-591l-105 -325h-217l468 1440h301zM426 521h463l-233 710zM548 -387v203h221v-203h-221z" />
    <glyph glyph-name="uni1EA1" unicode="&#x1ea1;" horiz-adv-x="1139" 
d="M1011.5 799.5q7.5 -55.5 7.5 -134.5v-665h-185v157q-67 -95 -162.5 -141t-226.5 -46q-116 0 -198 43.5t-124.5 117t-42.5 163.5q0 239 255 320q77 23 174.5 39.5t270.5 40.5l33 4q-5 114 -62 166.5t-182 52.5q-91 0 -160 -42t-95 -128l-195 60q40 143 154.5 223t297.5 80
q149 0 255 -51t155 -155q23 -49 30.5 -104.5zM632 171.5q65 30.5 104.5 79.5t52.5 104q20 58 22 169l-26 -4q-146 -21 -218.5 -34t-130.5 -30q-70 -24 -109.5 -62t-39.5 -98q0 -67 49.5 -111t145.5 -44q85 0 150 30.5zM462 -387v203h221v-203h-221z" />
    <glyph glyph-name="uni1EA2" unicode="&#x1ea2;" horiz-adv-x="1317" 
d="M618 1898q-24 0 -49 -10t-46 -27l-58 105q35 32 79.5 49.5t90.5 17.5q57 0 104 -28.5t74 -86.5q21 -48 21 -92q0 -55 -28 -100.5t-73.5 -75.5t-95.5 -40l-45 89q47 16 76.5 46t29.5 67q0 18 -11 42q-22 44 -69 44zM1060 0l-107 325h-591l-105 -325h-217l468 1440h301
l468 -1440h-217zM426 521h463l-233 710z" />
    <glyph glyph-name="uni1EA3" unicode="&#x1ea3;" horiz-adv-x="1139" 
d="M558 1543q-23 0 -48 -10t-47 -27l-57 105q35 32 79.5 50t90.5 18q57 0 104 -29t74 -87q21 -48 21 -91q0 -55 -28 -100.5t-73.5 -76t-95.5 -40.5l-46 89q47 16 76.5 46t29.5 66q0 22 -11 43q-22 44 -69 44zM1011.5 799.5q7.5 -55.5 7.5 -134.5v-665h-185v157
q-67 -95 -162.5 -141t-226.5 -46q-116 0 -198 43.5t-124.5 117t-42.5 163.5q0 239 255 320q77 23 174.5 39.5t270.5 40.5l33 4q-5 114 -62 166.5t-182 52.5q-91 0 -160 -42t-95 -128l-195 60q40 143 154.5 223t297.5 80q149 0 255 -51t155 -155q23 -49 30.5 -104.5z
M632 171.5q65 30.5 104.5 79.5t52.5 104q20 58 22 169l-26 -4q-146 -21 -218.5 -34t-130.5 -30q-70 -24 -109.5 -62t-39.5 -98q0 -67 49.5 -111t145.5 -44q85 0 150 30.5z" />
    <glyph glyph-name="uni1EA4" unicode="&#x1ea4;" horiz-adv-x="1317" 
d="M1270 2160l-143 -350h-164l143 350h164zM656 1777l-149 -177h-200l258 300h181l258 -300h-200zM1060 0l-107 325h-591l-105 -325h-217l468 1440h301l468 -1440h-217zM426 521h463l-233 710z" />
    <glyph glyph-name="uni1EA5" unicode="&#x1ea5;" horiz-adv-x="1139" 
d="M1042 1800h164l-143 -350h-164zM592 1417l-149 -177h-200l258 300h181l258 -300h-200zM826 1059q106 -51 155 -155q23 -49 30.5 -104.5t7.5 -134.5v-665h-185v157q-67 -95 -162.5 -141t-226.5 -46q-116 0 -198 43.5t-124.5 117t-42.5 163.5q0 239 255 320
q77 23 174.5 39.5t270.5 40.5l33 4q-5 114 -62 166.5t-182 52.5q-91 0 -160 -42t-95 -128l-195 60q40 143 154.5 223t297.5 80q149 0 255 -51zM632 171.5q65 30.5 104.5 79.5t52.5 104q20 58 22 169l-26 -4q-146 -21 -218.5 -34t-130.5 -30q-70 -24 -109.5 -62t-39.5 -98
q0 -67 49.5 -111t145.5 -44q85 0 150 30.5z" />
    <glyph glyph-name="uni1EA6" unicode="&#x1ea6;" horiz-adv-x="1317" 
d="M1135 1810h-164l-143 350h164zM656 1777l-149 -177h-200l258 300h181l258 -300h-200zM1060 0l-107 325h-591l-105 -325h-217l468 1440h301l468 -1440h-217zM426 521h463l-233 710z" />
    <glyph glyph-name="uni1EA7" unicode="&#x1ea7;" horiz-adv-x="1139" 
d="M1069 1450h-164l-143 350h164zM590 1417l-149 -177h-200l258 300h181l258 -300h-200zM826 1059q106 -51 155 -155q23 -49 30.5 -104.5t7.5 -134.5v-665h-185v157q-67 -95 -162.5 -141t-226.5 -46q-116 0 -198 43.5t-124.5 117t-42.5 163.5q0 239 255 320
q77 23 174.5 39.5t270.5 40.5l33 4q-5 114 -62 166.5t-182 52.5q-91 0 -160 -42t-95 -128l-195 60q40 143 154.5 223t297.5 80q149 0 255 -51zM632 171.5q65 30.5 104.5 79.5t52.5 104q20 58 22 169l-26 -4q-146 -21 -218.5 -34t-130.5 -30q-70 -24 -109.5 -62t-39.5 -98
q0 -67 49.5 -111t145.5 -44q85 0 150 30.5z" />
    <glyph glyph-name="uni1EA8" unicode="&#x1ea8;" horiz-adv-x="1317" 
d="M1074 1898q-23 0 -48 -10t-47 -27l-57 105q35 32 79.5 49.5t90.5 17.5q57 0 104 -28.5t74 -86.5q21 -48 21 -92q0 -55 -28 -100.5t-73.5 -75.5t-95.5 -40l-45 89q47 16 76 46t29 66q0 22 -11 43q-22 44 -69 44zM657 1777l-149 -177h-200l258 300h181l258 -300h-200z
M508 1440h301l468 -1440h-217l-107 325h-591l-105 -325h-217zM426 521h463l-233 710z" />
    <glyph glyph-name="uni1EA9" unicode="&#x1ea9;" horiz-adv-x="1139" 
d="M1210 1466q0 -55 -28 -100.5t-73.5 -75.5t-95.5 -40l-46 89q47 16 76.5 46t29.5 66q0 22 -11 43q-22 44 -69 44q-23 0 -48 -10t-47 -27l-57 105q35 32 79.5 49.5t89.5 17.5q57 0 104.5 -28.5t74.5 -86.5q21 -48 21 -92zM575 1417l-148 -177h-200l258 300h181l258 -300
h-200zM826 1059q106 -51 155 -155q23 -49 30.5 -104.5t7.5 -134.5v-665h-185v157q-67 -95 -162.5 -141t-226.5 -46q-116 0 -198 43.5t-124.5 117t-42.5 163.5q0 239 255 320q77 23 174.5 39.5t270.5 40.5l33 4q-5 114 -62 166.5t-182 52.5q-91 0 -160 -42t-95 -128l-195 60
q40 143 154.5 223t297.5 80q149 0 255 -51zM632 171.5q65 30.5 104.5 79.5t52.5 104q20 58 22 169l-26 -4q-146 -21 -218.5 -34t-130.5 -30q-70 -24 -109.5 -62t-39.5 -98q0 -67 49.5 -111t145.5 -44q85 0 150 30.5z" />
    <glyph glyph-name="uni1EAA" unicode="&#x1eaa;" horiz-adv-x="1317" 
d="M339 1973q-11 46 -11 82q0 82 45.5 132t129.5 50q45 0 88 -20t98 -56q44 -28 70.5 -41.5t49.5 -13.5q24 0 37.5 18t13.5 48q0 21 -6 43h136q10 -40 10 -82q0 -82 -45.5 -132.5t-129.5 -50.5q-44 0 -85.5 19.5t-99.5 56.5q-43 28 -70 41.5t-51 13.5q-25 0 -38 -17.5
t-13 -46.5q0 -23 7 -44h-136zM655 1777l-149 -177h-200l258 300h181l258 -300h-200zM1060 0l-107 325h-591l-105 -325h-217l468 1440h301l468 -1440h-217zM426 521h463l-233 710z" />
    <glyph glyph-name="uni1EAB" unicode="&#x1eab;" horiz-adv-x="1139" 
d="M258 1613q-11 46 -11 82q0 82 45.5 132t129.5 50q45 0 86.5 -19.5t99.5 -56.5q43 -28 70.5 -41.5t50.5 -13.5q24 0 37.5 18t13.5 48q0 21 -7 43h136q11 -46 11 -82q0 -82 -45.5 -132.5t-129.5 -50.5q-45 0 -88 20t-98 56q-44 28 -70.5 41.5t-49.5 13.5q-25 0 -38.5 -18
t-13.5 -47q0 -17 7 -43h-136zM574 1417l-149 -177h-200l259 300h180l259 -300h-200zM1011.5 799.5q7.5 -55.5 7.5 -134.5v-665h-185v157q-67 -95 -162.5 -141t-226.5 -46q-116 0 -198 43.5t-124.5 117t-42.5 163.5q0 239 255 320q77 23 174.5 39.5t270.5 40.5l33 4
q-5 114 -62 166.5t-182 52.5q-91 0 -160 -42t-95 -128l-195 60q40 143 154.5 223t297.5 80q149 0 255 -51t155 -155q23 -49 30.5 -104.5zM632 171.5q65 30.5 104.5 79.5t52.5 104q20 58 22 169l-26 -4q-146 -21 -218.5 -34t-130.5 -30q-70 -24 -109.5 -62t-39.5 -98
q0 -67 49.5 -111t145.5 -44q85 0 150 30.5z" />
    <glyph glyph-name="uni1EAC" unicode="&#x1eac;" horiz-adv-x="1317" 
d="M657 1777l-149 -177h-200l258 300h181l258 -300h-200zM1277 0h-217l-107 325h-591l-105 -325h-217l468 1440h301zM426 521h463l-233 710zM548 -387v203h221v-203h-221z" />
    <glyph glyph-name="uni1EAD" unicode="&#x1ead;" horiz-adv-x="1139" 
d="M583 1417l-148 -177h-200l258 300h181l258 -300h-200zM1011.5 799.5q7.5 -55.5 7.5 -134.5v-665h-185v157q-67 -95 -162.5 -141t-226.5 -46q-116 0 -198 43.5t-124.5 117t-42.5 163.5q0 239 255 320q77 23 174.5 39.5t270.5 40.5l33 4q-5 114 -62 166.5t-182 52.5
q-91 0 -160 -42t-95 -128l-195 60q40 143 154.5 223t297.5 80q149 0 255 -51t155 -155q23 -49 30.5 -104.5zM632 171.5q65 30.5 104.5 79.5t52.5 104q20 58 22 169l-26 -4q-146 -21 -218.5 -34t-130.5 -30q-70 -24 -109.5 -62t-39.5 -98q0 -67 49.5 -111t145.5 -44
q85 0 150 30.5zM462 -387v203h221v-203h-221z" />
    <glyph glyph-name="uni1EAE" unicode="&#x1eae;" horiz-adv-x="1317" 
d="M885 2280l-143 -350h-164l143 350h164zM514 1603q-66 39 -105 105t-39 144h166q0 -50 36 -86t86 -36q51 0 86.5 36t35.5 86h166q0 -78 -38.5 -144.5t-104.5 -105t-145 -38.5q-78 0 -144 39zM1060 0l-107 325h-591l-105 -325h-217l468 1440h301l468 -1440h-217zM426 521
h463l-233 710z" />
    <glyph glyph-name="uni1EAF" unicode="&#x1eaf;" horiz-adv-x="1139" 
d="M806 1920l-143 -350h-164l143 350h164zM435 1243q-66 39 -105 105t-39 144h166q0 -50 36 -86t86 -36q51 0 86.5 36t35.5 86h166q0 -78 -39 -144t-105 -105t-144 -39t-144 39zM1011.5 799.5q7.5 -55.5 7.5 -134.5v-665h-185v157q-67 -95 -162.5 -141t-226.5 -46
q-116 0 -198 43.5t-124.5 117t-42.5 163.5q0 239 255 320q77 23 174.5 39.5t270.5 40.5l33 4q-5 114 -62 166.5t-182 52.5q-91 0 -160 -42t-95 -128l-195 60q40 143 154.5 223t297.5 80q149 0 255 -51t155 -155q23 -49 30.5 -104.5zM632 171.5q65 30.5 104.5 79.5t52.5 104
q20 58 22 169l-26 -4q-146 -21 -218.5 -34t-130.5 -30q-70 -24 -109.5 -62t-39.5 -98q0 -67 49.5 -111t145.5 -44q85 0 150 30.5z" />
    <glyph glyph-name="uni1EB0" unicode="&#x1eb0;" horiz-adv-x="1317" 
d="M738 1930h-164l-142 350h164zM514 1603q-66 39 -105 105t-39 144h166q0 -50 35.5 -86t86.5 -36t86.5 36t35.5 86h166q0 -78 -38.5 -144.5t-104.5 -105t-145 -38.5q-78 0 -144 39zM1060 0l-107 325h-591l-105 -325h-217l468 1440h301l468 -1440h-217zM426 521h463
l-233 710z" />
    <glyph glyph-name="uni1EB1" unicode="&#x1eb1;" horiz-adv-x="1139" 
d="M664 1570h-164l-142 350h164zM440 1243q-66 39 -105 105t-39 144h166q0 -50 35.5 -86t86.5 -36t86.5 36t35.5 86h166q0 -78 -38.5 -144.5t-104.5 -105t-145 -38.5q-78 0 -144 39zM1011.5 799.5q7.5 -55.5 7.5 -134.5v-665h-185v157q-67 -95 -162.5 -141t-226.5 -46
q-116 0 -198 43.5t-124.5 117t-42.5 163.5q0 239 255 320q77 23 174.5 39.5t270.5 40.5l33 4q-5 114 -62 166.5t-182 52.5q-91 0 -160 -42t-95 -128l-195 60q40 143 154.5 223t297.5 80q149 0 255 -51t155 -155q23 -49 30.5 -104.5zM632 171.5q65 30.5 104.5 79.5t52.5 104
q20 58 22 169l-26 -4q-146 -21 -218.5 -34t-130.5 -30q-70 -24 -109.5 -62t-39.5 -98q0 -67 49.5 -111t145.5 -44q85 0 150 30.5z" />
    <glyph glyph-name="uni1EB2" unicode="&#x1eb2;" horiz-adv-x="1317" 
d="M595 2205q-24 0 -49 -10t-46 -27l-58 105q35 32 79.5 49.5t90.5 17.5q57 0 104 -28.5t74 -86.5q21 -48 21 -92q0 -55 -28 -100.5t-73.5 -75.5t-95.5 -40l-45 89q47 16 76.5 46t29.5 67q0 18 -11 42q-22 44 -69 44zM514 1603q-66 39 -105 105t-39 144h166q0 -50 36 -86
t86 -36q51 0 86.5 36t35.5 86h166q0 -78 -38.5 -144.5t-104.5 -105t-145 -38.5q-78 0 -144 39zM1060 0l-107 325h-591l-105 -325h-217l468 1440h301l468 -1440h-217zM426 521h463l-233 710z" />
    <glyph glyph-name="uni1EB3" unicode="&#x1eb3;" horiz-adv-x="1139" 
d="M543 1845q-24 0 -49 -10t-46 -27l-58 105q35 32 79.5 49.5t90.5 17.5q57 0 104 -28.5t74 -86.5q21 -48 21 -92q0 -55 -28 -100.5t-73.5 -75.5t-95.5 -40l-45 89q47 16 76.5 46t29.5 67q0 18 -11 42q-22 44 -69 44zM462 1243q-66 39 -105 105t-39 144h166q0 -50 36 -86
t86 -36q51 0 86.5 36t35.5 86h166q0 -78 -38.5 -144.5t-104.5 -105t-145 -38.5q-78 0 -144 39zM1011.5 799.5q7.5 -55.5 7.5 -134.5v-665h-185v157q-67 -95 -162.5 -141t-226.5 -46q-116 0 -198 43.5t-124.5 117t-42.5 163.5q0 239 255 320q77 23 174.5 39.5t270.5 40.5
l33 4q-5 114 -62 166.5t-182 52.5q-91 0 -160 -42t-95 -128l-195 60q40 143 154.5 223t297.5 80q149 0 255 -51t155 -155q23 -49 30.5 -104.5zM632 171.5q65 30.5 104.5 79.5t52.5 104q20 58 22 169l-26 -4q-146 -21 -218.5 -34t-130.5 -30q-70 -24 -109.5 -62t-39.5 -98
q0 -67 49.5 -111t145.5 -44q85 0 150 30.5z" />
    <glyph glyph-name="uni1EB4" unicode="&#x1eb4;" horiz-adv-x="1317" 
d="M316 1940q-11 46 -11 82q0 82 45.5 131.5t129.5 49.5q45 0 88 -20t98 -56q46 -29 71.5 -41.5t48.5 -12.5q24 0 37.5 18t13.5 48q0 20 -6 42h136q10 -40 10 -81q0 -82 -45.5 -132.5t-129.5 -50.5q-44 0 -85 19t-100 56q-43 28 -70 41.5t-51 13.5q-25 0 -38 -17.5
t-13 -46.5q0 -22 7 -43h-136zM724.5 1766q35.5 36 35.5 86h166q0 -78 -39 -144t-105 -105t-144 -39t-144 39t-105 105t-39 144h166q0 -50 36 -86t86 -36q51 0 86.5 36zM1060 0l-107 325h-591l-105 -325h-217l468 1440h301l468 -1440h-217zM426 521h463l-233 710z" />
    <glyph glyph-name="uni1EB5" unicode="&#x1eb5;" horiz-adv-x="1139" 
d="M248 1580q-11 46 -11 82q0 82 45.5 131.5t129.5 49.5q45 0 88 -20t98 -56q46 -29 71.5 -41.5t48.5 -12.5q24 0 37.5 18t13.5 48q0 20 -6 42h136q10 -40 10 -81q0 -82 -45.5 -132.5t-129.5 -50.5q-44 0 -85 19t-100 56q-43 28 -70 41.5t-51 13.5q-25 0 -38 -17.5
t-13 -46.5q0 -22 7 -43h-136zM656.5 1406q35.5 36 35.5 86h166q0 -78 -39 -144t-105 -105t-144 -39t-144 39t-105 105t-39 144h166q0 -50 36 -86t86 -36q51 0 86.5 36zM1011.5 799.5q7.5 -55.5 7.5 -134.5v-665h-185v157q-67 -95 -162.5 -141t-226.5 -46q-116 0 -198 43.5
t-124.5 117t-42.5 163.5q0 239 255 320q77 23 174.5 39.5t270.5 40.5l33 4q-5 114 -62 166.5t-182 52.5q-91 0 -160 -42t-95 -128l-195 60q40 143 154.5 223t297.5 80q149 0 255 -51t155 -155q23 -49 30.5 -104.5zM632 171.5q65 30.5 104.5 79.5t52.5 104q20 58 22 169
l-26 -4q-146 -21 -218.5 -34t-130.5 -30q-70 -24 -109.5 -62t-39.5 -98q0 -67 49.5 -111t145.5 -44q85 0 150 30.5z" />
    <glyph glyph-name="uni1EB6" unicode="&#x1eb6;" horiz-adv-x="1317" 
d="M515 1603q-66 39 -105 105t-39 144h166q0 -50 36 -86t86 -36q51 0 86.5 36t35.5 86h166q0 -78 -38.5 -144.5t-104.5 -105t-145 -38.5q-78 0 -144 39zM1277 0h-217l-107 325h-591l-105 -325h-217l468 1440h301zM426 521h463l-233 710zM548 -387v203h221v-203h-221z" />
    <glyph glyph-name="uni1EB7" unicode="&#x1eb7;" horiz-adv-x="1139" 
d="M437 1243q-66 39 -105 105t-39 144h166q0 -50 36 -86t86 -36q51 0 86.5 36t35.5 86h166q0 -78 -38.5 -144.5t-104.5 -105t-145 -38.5q-78 0 -144 39zM1011.5 799.5q7.5 -55.5 7.5 -134.5v-665h-185v157q-67 -95 -162.5 -141t-226.5 -46q-116 0 -198 43.5t-124.5 117
t-42.5 163.5q0 239 255 320q77 23 174.5 39.5t270.5 40.5l33 4q-5 114 -62 166.5t-182 52.5q-91 0 -160 -42t-95 -128l-195 60q40 143 154.5 223t297.5 80q149 0 255 -51t155 -155q23 -49 30.5 -104.5zM632 171.5q65 30.5 104.5 79.5t52.5 104q20 58 22 169l-26 -4
q-146 -21 -218.5 -34t-130.5 -30q-70 -24 -109.5 -62t-39.5 -98q0 -67 49.5 -111t145.5 -44q85 0 150 30.5zM462 -387v203h221v-203h-221z" />
    <glyph glyph-name="uni1EB8" unicode="&#x1eb8;" horiz-adv-x="1200" 
d="M1060 1440v-197h-711v-404h591v-197h-591v-445h711v-197h-920v1440h920zM489 -184h222v-203h-222v203z" />
    <glyph glyph-name="uni1EB9" unicode="&#x1eb9;" horiz-adv-x="1193" 
d="M395 248.5q78 -81.5 214 -81.5q97 0 169 44t112 128l205 -65q-62 -143 -190 -223.5t-286 -80.5q-160 0 -282 70.5t-189.5 198t-67.5 292.5q0 175 66 306t186 202t277 71q155 0 268 -69t173.5 -197.5t60.5 -303.5q0 -19 -2 -59h-805q13 -151 91 -232.5zM406.5 853.5
q-77.5 -71.5 -97.5 -209.5h586q-17 143 -85.5 212t-192.5 69q-133 0 -210.5 -71.5zM513 -387v203h221v-203h-221z" />
    <glyph glyph-name="uni1EBA" unicode="&#x1eba;" horiz-adv-x="1160" 
d="M508.5 2015.5q44.5 17.5 90.5 17.5q57 0 104 -28.5t74 -86.5q21 -48 21 -92q0 -55 -28 -100.5t-73.5 -75.5t-95.5 -40l-45 89q47 16 76 46t29 66q0 22 -11 43q-22 44 -69 44q-23 0 -48 -10t-47 -27l-57 105q35 32 79.5 49.5zM1060 1440v-197h-711v-404h591v-197h-591
v-445h711v-197h-920v1440h920z" />
    <glyph glyph-name="uni1EBB" unicode="&#x1ebb;" horiz-adv-x="1200" 
d="M588 1543q-23 0 -48 -10t-47 -27l-57 105q35 32 79.5 50t90.5 18q57 0 104 -29t74 -87q21 -48 21 -91q0 -55 -28 -100.5t-73.5 -76t-95.5 -40.5l-46 89q47 16 76.5 46t29.5 66q0 22 -11 43q-22 44 -69 44zM395 248.5q78 -81.5 214 -81.5q97 0 169 44t112 128l205 -65
q-62 -143 -190 -223.5t-286 -80.5q-160 0 -282 70.5t-189.5 198t-67.5 292.5q0 175 66 306t186 202t277 71q155 0 268 -69t173.5 -197.5t60.5 -303.5q0 -19 -2 -59h-805q13 -151 91 -232.5zM406.5 853.5q-77.5 -71.5 -97.5 -209.5h586q-17 143 -85.5 212t-192.5 69
q-133 0 -210.5 -71.5z" />
    <glyph glyph-name="uni1EBC" unicode="&#x1ebc;" horiz-adv-x="1160" 
d="M660 1624q-43 20 -98 56q-44 28 -70.5 41.5t-49.5 13.5q-25 0 -38.5 -18t-13.5 -47q0 -17 7 -43h-136q-11 46 -11 82q0 82 45.5 132t129.5 50q45 0 86.5 -19.5t99.5 -56.5q43 -28 70.5 -41.5t50.5 -13.5q24 0 37.5 18t13.5 48q0 21 -7 43h136q11 -46 11 -82
q0 -82 -45.5 -132.5t-129.5 -50.5q-45 0 -88 20zM1060 1440v-197h-711v-404h591v-197h-591v-445h711v-197h-920v1440h920z" />
    <glyph glyph-name="uni1EBD" unicode="&#x1ebd;" horiz-adv-x="1193" 
d="M297 1267q-10 40 -10 81q0 83 45 133t129 50q45 0 86.5 -19.5t99.5 -56.5q43 -28 70.5 -41.5t50.5 -13.5q24 0 37.5 18.5t13.5 48.5q0 20 -6 42h136q10 -40 10 -82q0 -82 -45.5 -132.5t-129.5 -50.5q-44 0 -85.5 19.5t-99.5 56.5q-43 28 -70 41.5t-51 13.5q-25 0 -38 -18
t-13 -47q0 -20 6 -43h-136zM395 248.5q78 -81.5 214 -81.5q97 0 169 44t112 128l205 -65q-62 -143 -190 -223.5t-286 -80.5q-160 0 -282 70.5t-189.5 198t-67.5 292.5q0 175 66 306t186 202t277 71q155 0 268 -69t173.5 -197.5t60.5 -303.5q0 -19 -2 -59h-805
q13 -151 91 -232.5zM406.5 853.5q-77.5 -71.5 -97.5 -209.5h586q-17 143 -85.5 212t-192.5 69q-133 0 -210.5 -71.5z" />
    <glyph glyph-name="uni1EBE" unicode="&#x1ebe;" horiz-adv-x="1160" 
d="M906 1810l142 350h164l-142 -350h-164zM508 1900h181l258 -300h-200l-149 177l-148 -177h-200zM1060 1440v-197h-711v-404h591v-197h-591v-445h711v-197h-920v1440h920z" />
    <glyph glyph-name="uni1EBF" unicode="&#x1ebf;" horiz-adv-x="1193" 
d="M1232 1800l-143 -350h-164l143 350h164zM618 1417l-149 -177h-200l259 300h180l259 -300h-200zM877 1041q113 -69 173.5 -197.5t60.5 -303.5q0 -19 -2 -59h-805q13 -151 91 -232.5t214 -81.5q97 0 169 44t112 128l205 -65q-62 -143 -190 -223.5t-286 -80.5
q-160 0 -282 70.5t-189.5 198t-67.5 292.5q0 175 66 306t186 202t277 71q155 0 268 -69zM406.5 853.5q-77.5 -71.5 -97.5 -209.5h586q-17 143 -85.5 212t-192.5 69q-133 0 -210.5 -71.5z" />
    <glyph glyph-name="uni1EC0" unicode="&#x1ec0;" horiz-adv-x="1160" 
d="M803 2160h164l142 -350h-164zM540 1900h180l259 -300h-200l-149 177l-149 -177h-200zM1060 1440v-197h-711v-404h591v-197h-591v-445h711v-197h-920v1440h920z" />
    <glyph glyph-name="uni1EC1" unicode="&#x1ec1;" horiz-adv-x="1193" 
d="M1085 1450h-164l-143 350h164zM606 1417l-149 -177h-200l258 300h181l258 -300h-200zM395 248.5q78 -81.5 214 -81.5q97 0 169 44t112 128l205 -65q-62 -143 -190 -223.5t-286 -80.5q-160 0 -282 70.5t-189.5 198t-67.5 292.5q0 175 66 306t186 202t277 71q155 0 268 -69
t173.5 -197.5t60.5 -303.5q0 -19 -2 -59h-805q13 -151 91 -232.5zM406.5 853.5q-77.5 -71.5 -97.5 -209.5h586q-17 143 -85.5 212t-192.5 69q-133 0 -210.5 -71.5z" />
    <glyph glyph-name="uni1EC2" unicode="&#x1ec2;" horiz-adv-x="1200" 
d="M951.5 2015.5q44.5 17.5 90.5 17.5q57 0 104 -28.5t74 -86.5q21 -48 21 -92q0 -55 -28 -100.5t-73.5 -75.5t-95.5 -40l-45 89q47 16 76.5 46t29.5 67q0 18 -11 42q-22 44 -69 44q-24 0 -49 -10t-46 -27l-58 105q35 32 79.5 49.5zM517 1900h180l259 -300h-200l-149 177
l-149 -177h-200zM1060 1440v-197h-711v-404h591v-197h-591v-445h711v-197h-920v1440h920z" />
    <glyph glyph-name="uni1EC3" unicode="&#x1ec3;" horiz-adv-x="1193" 
d="M1246 1466q0 -55 -28 -100.5t-73.5 -75.5t-95.5 -40l-46 89q47 16 76.5 46t29.5 66q0 22 -11 43q-22 44 -69 44q-23 0 -48 -10t-47 -27l-57 105q35 32 79.5 49.5t89.5 17.5q57 0 104.5 -28.5t74.5 -86.5q21 -48 21 -92zM611 1417l-148 -177h-200l258 300h181l258 -300
h-200zM877 1041q113 -69 173.5 -197.5t60.5 -303.5q0 -19 -2 -59h-805q13 -151 91 -232.5t214 -81.5q97 0 169 44t112 128l205 -65q-62 -143 -190 -223.5t-286 -80.5q-160 0 -282 70.5t-189.5 198t-67.5 292.5q0 175 66 306t186 202t277 71q155 0 268 -69zM406.5 853.5
q-77.5 -71.5 -97.5 -209.5h586q-17 143 -85.5 212t-192.5 69q-133 0 -210.5 -71.5z" />
    <glyph glyph-name="uni1EC4" unicode="&#x1ec4;" horiz-adv-x="1160" 
d="M680.5 1969.5q-41.5 19.5 -99.5 56.5q-43 28 -70 41.5t-51 13.5q-25 0 -38 -17.5t-13 -46.5q0 -23 7 -44h-136q-11 46 -11 82q0 82 45.5 132t129.5 50q45 0 88 -20t98 -56q44 -28 70.5 -41.5t49.5 -13.5q24 0 37.5 18t13.5 48q0 21 -6 43h136q10 -40 10 -82
q0 -82 -45.5 -132.5t-129.5 -50.5q-44 0 -85.5 19.5zM505 1900h181l258 -300h-200l-148 177l-149 -177h-200zM1060 1440v-197h-711v-404h591v-197h-591v-445h711v-197h-920v1440h920z" />
    <glyph glyph-name="uni1EC5" unicode="&#x1ec5;" horiz-adv-x="1193" 
d="M293 1613q-11 46 -11 82q0 82 45.5 132t129.5 50q45 0 86.5 -19.5t99.5 -56.5q43 -28 70.5 -41.5t50.5 -13.5q24 0 37.5 18t13.5 48q0 21 -7 43h136q11 -46 11 -82q0 -82 -45.5 -132.5t-129.5 -50.5q-45 0 -88 20t-98 56q-44 28 -70.5 41.5t-49.5 13.5q-25 0 -38.5 -18
t-13.5 -47q0 -17 7 -43h-136zM609 1417l-149 -177h-200l259 300h180l259 -300h-200zM395 248.5q78 -81.5 214 -81.5q97 0 169 44t112 128l205 -65q-62 -143 -190 -223.5t-286 -80.5q-160 0 -282 70.5t-189.5 198t-67.5 292.5q0 175 66 306t186 202t277 71q155 0 268 -69
t173.5 -197.5t60.5 -303.5q0 -19 -2 -59h-805q13 -151 91 -232.5zM406.5 853.5q-77.5 -71.5 -97.5 -209.5h586q-17 143 -85.5 212t-192.5 69q-133 0 -210.5 -71.5z" />
    <glyph glyph-name="uni1EC6" unicode="&#x1ec6;" horiz-adv-x="1160" 
d="M678 1900l258 -300h-200l-149 177l-148 -177h-200l258 300h181zM1060 1243h-711v-404h591v-197h-591v-445h711v-197h-920v1440h920v-197zM489 -184h222v-203h-222v203z" />
    <glyph glyph-name="uni1EC7" unicode="&#x1ec7;" horiz-adv-x="1193" 
d="M606 1417l-149 -177h-200l259 300h180l259 -300h-200zM395 248.5q78 -81.5 214 -81.5q97 0 169 44t112 128l205 -65q-62 -143 -190 -223.5t-286 -80.5q-160 0 -282 70.5t-189.5 198t-67.5 292.5q0 175 66 306t186 202t277 71q155 0 268 -69t173.5 -197.5t60.5 -303.5
q0 -19 -2 -59h-805q13 -151 91 -232.5zM406.5 853.5q-77.5 -71.5 -97.5 -209.5h586q-17 143 -85.5 212t-192.5 69q-133 0 -210.5 -71.5zM485 -387v203h221v-203h-221z" />
    <glyph glyph-name="uni1EC8" unicode="&#x1ec8;" horiz-adv-x="529" 
d="M139.5 2015.5q44.5 17.5 90.5 17.5q57 0 104 -28.5t74 -86.5q21 -48 21 -92q0 -55 -28 -100.5t-73.5 -75.5t-95.5 -40l-45 89q47 16 76 46t29 66q0 22 -11 43q-22 44 -69 44q-23 0 -48 -10t-47 -27l-57 105q35 32 79.5 49.5zM369 1440v-1440h-209v1440h209z" />
    <glyph glyph-name="uni1EC9" unicode="&#x1ec9;" horiz-adv-x="529" 
d="M141.5 1661q44.5 18 90.5 18q57 0 104 -29t74 -87q21 -48 21 -91q0 -55 -28 -100.5t-73.5 -76t-95.5 -40.5l-46 89q47 16 76.5 46t29.5 66q0 22 -11 43q-22 44 -69 44q-23 0 -48 -10t-47 -27l-57 105q35 32 79.5 50zM369 1080v-1080h-209v1080h209z" />
    <glyph glyph-name="uni1ECA" unicode="&#x1eca;" horiz-adv-x="529" 
d="M369 1440v-1440h-209v1440h209zM154 -184h221v-203h-221v203z" />
    <glyph glyph-name="uni1ECB" unicode="&#x1ecb;" horiz-adv-x="529" 
d="M369 1460v-203h-209v203h209zM369 1080v-1080h-209v1080h209zM154 -184h221v-203h-221v203z" />
    <glyph glyph-name="uni1ECC" unicode="&#x1ecc;" horiz-adv-x="1481" 
d="M375 64q-154 94 -234.5 263.5t-80.5 392.5t80.5 392.5t234.5 263.5t366 94t365.5 -94t234 -263.5t80.5 -392.5t-80.5 -392.5t-234 -263.5t-365.5 -94t-366 94zM993.5 236q102.5 68 154 192.5t51.5 291.5t-51.5 290.5t-154 191.5t-252.5 69t-252.5 -67t-154 -192.5
t-52.5 -291.5t51 -290.5t155 -191.5t253 -69t252.5 67zM622 -184h221v-203h-221v203z" />
    <glyph glyph-name="uni1ECD" unicode="&#x1ecd;" horiz-adv-x="1219" 
d="M330 42.5q-120 72.5 -185 202t-65 296.5q0 168 66 297t186 200.5t277 71.5q159 0 279.5 -72t185.5 -201.5t65 -295.5q0 -168 -65.5 -297.5t-185.5 -201.5t-279 -72t-279 72.5zM838 268.5q79 101.5 79 272.5q0 173 -79 272.5t-229 99.5q-152 0 -229.5 -100t-77.5 -272
q0 -174 79 -274t228 -100q150 0 229 101.5zM499 -184h221v-203h-221v203z" />
    <glyph glyph-name="uni1ECE" unicode="&#x1ece;" horiz-adv-x="1481" 
d="M669.5 2015.5q44.5 17.5 90.5 17.5q57 0 104 -28.5t74 -86.5q21 -48 21 -92q0 -55 -28 -100.5t-73.5 -75.5t-95.5 -40l-45 89q47 16 76.5 46t29.5 67q0 18 -11 42q-22 44 -69 44q-24 0 -49 -10t-46 -27l-58 105q35 32 79.5 49.5zM375 64q-154 94 -234.5 263.5
t-80.5 392.5t80.5 392.5t234.5 263.5t366 94t365.5 -94t234 -263.5t80.5 -392.5t-80.5 -392.5t-234 -263.5t-365.5 -94t-366 94zM993.5 236q102.5 68 154 192.5t51.5 291.5t-51.5 290.5t-154 191.5t-252.5 69t-252.5 -67t-154 -192.5t-52.5 -291.5t51 -290.5t155 -191.5
t253 -69t252.5 67z" />
    <glyph glyph-name="uni1ECF" unicode="&#x1ecf;" horiz-adv-x="1219" 
d="M515.5 1661q44.5 18 90.5 18q57 0 104 -29t74 -87q21 -48 21 -91q0 -55 -28 -100.5t-73.5 -76t-95.5 -40.5l-46 89q47 16 76.5 46t29.5 66q0 22 -11 43q-22 44 -69 44q-23 0 -48 -10t-47 -27l-57 105q35 32 79.5 50zM330 42.5q-120 72.5 -185 202t-65 296.5q0 168 66 297
t186 200.5t277 71.5q159 0 279.5 -72t185.5 -201.5t65 -295.5q0 -168 -65.5 -297.5t-185.5 -201.5t-279 -72t-279 72.5zM838 268.5q79 101.5 79 272.5q0 173 -79 272.5t-229 99.5q-152 0 -229.5 -100t-77.5 -272q0 -174 79 -274t228 -100q150 0 229 101.5z" />
    <glyph glyph-name="uni1ED0" unicode="&#x1ed0;" horiz-adv-x="1481" 
d="M1062 1810l143 350h164l-143 -350h-164zM665 1900h180l259 -300h-200l-149 177l-149 -177h-200zM375 64q-154 94 -234.5 263.5t-80.5 392.5t80.5 392.5t234.5 263.5t366 94t365.5 -94t234 -263.5t80.5 -392.5t-80.5 -392.5t-234 -263.5t-365.5 -94t-366 94zM993.5 236
q102.5 68 154 192.5t51.5 291.5t-51.5 290.5t-154 191.5t-252.5 69t-252.5 -67t-154 -192.5t-52.5 -291.5t51 -290.5t155 -191.5t253 -69t252.5 67z" />
    <glyph glyph-name="uni1ED1" unicode="&#x1ed1;" horiz-adv-x="1219" 
d="M927 1450l143 350h164l-143 -350h-164zM530 1540h180l259 -300h-200l-149 177l-149 -177h-200zM330 42.5q-120 72.5 -185 202t-65 296.5q0 168 66 297t186 200.5t277 71.5q159 0 279.5 -72t185.5 -201.5t65 -295.5q0 -168 -65.5 -297.5t-185.5 -201.5t-279 -72t-279 72.5
zM838 268.5q79 101.5 79 272.5q0 173 -79 272.5t-229 99.5q-152 0 -229.5 -100t-77.5 -272q0 -174 79 -274t228 -100q150 0 229 101.5z" />
    <glyph glyph-name="uni1ED2" unicode="&#x1ed2;" horiz-adv-x="1481" 
d="M911 2160h164l143 -350h-164zM648 1900h181l258 -300h-200l-149 177l-148 -177h-200zM375 64q-154 94 -234.5 263.5t-80.5 392.5t80.5 392.5t234.5 263.5t366 94t365.5 -94t234 -263.5t80.5 -392.5t-80.5 -392.5t-234 -263.5t-365.5 -94t-366 94zM993.5 236
q102.5 68 154 192.5t51.5 291.5t-51.5 290.5t-154 191.5t-252.5 69t-252.5 -67t-154 -192.5t-52.5 -291.5t51 -290.5t155 -191.5t253 -69t252.5 67z" />
    <glyph glyph-name="uni1ED3" unicode="&#x1ed3;" horiz-adv-x="1219" 
d="M798 1800h164l142 -350h-164zM535 1540h180l259 -300h-200l-149 177l-149 -177h-200zM330 42.5q-120 72.5 -185 202t-65 296.5q0 168 66 297t186 200.5t277 71.5q159 0 279.5 -72t185.5 -201.5t65 -295.5q0 -168 -65.5 -297.5t-185.5 -201.5t-279 -72t-279 72.5z
M838 268.5q79 101.5 79 272.5q0 173 -79 272.5t-229 99.5q-152 0 -229.5 -100t-77.5 -272q0 -174 79 -274t228 -100q150 0 229 101.5z" />
    <glyph glyph-name="uni1ED4" unicode="&#x1ed4;" horiz-adv-x="1481" 
d="M1094.5 2015.5q44.5 17.5 90.5 17.5q57 0 104 -28.5t74 -86.5q21 -48 21 -92q0 -55 -28 -100.5t-73.5 -75.5t-95.5 -40l-45 89q47 16 76 46t29 66q0 22 -11 43q-22 44 -69 44q-23 0 -48 -10t-47 -27l-57 105q35 32 79.5 49.5zM659 1900h181l258 -300h-200l-148 177
l-149 -177h-200zM375 64q-154 94 -234.5 263.5t-80.5 392.5t80.5 392.5t234.5 263.5t366 94t365.5 -94t234 -263.5t80.5 -392.5t-80.5 -392.5t-234 -263.5t-365.5 -94t-366 94zM993.5 236q102.5 68 154 192.5t51.5 291.5t-51.5 290.5t-154 191.5t-252.5 69t-252.5 -67
t-154 -192.5t-52.5 -291.5t51 -290.5t155 -191.5t253 -69t252.5 67z" />
    <glyph glyph-name="uni1ED5" unicode="&#x1ed5;" horiz-adv-x="1219" 
d="M951.5 1655.5q44.5 17.5 89.5 17.5q57 0 104.5 -28.5t74.5 -86.5q21 -48 21 -92q0 -55 -28 -100.5t-73.5 -75.5t-95.5 -40l-46 89q47 16 76.5 46t29.5 66q0 22 -11 43q-22 44 -69 44q-23 0 -48 -10t-47 -27l-57 105q35 32 79.5 49.5zM516 1540h181l258 -300h-200
l-149 177l-148 -177h-200zM330 42.5q-120 72.5 -185 202t-65 296.5q0 168 66 297t186 200.5t277 71.5q159 0 279.5 -72t185.5 -201.5t65 -295.5q0 -168 -65.5 -297.5t-185.5 -201.5t-279 -72t-279 72.5zM838 268.5q79 101.5 79 272.5q0 173 -79 272.5t-229 99.5
q-152 0 -229.5 -100t-77.5 -272q0 -174 79 -274t228 -100q150 0 229 101.5z" />
    <glyph glyph-name="uni1ED6" unicode="&#x1ed6;" horiz-adv-x="1481" 
d="M814 1970q-43 20 -98 56q-44 28 -70.5 41.5t-49.5 13.5q-25 0 -38.5 -18t-13.5 -47q0 -17 7 -43h-136q-11 46 -11 82q0 82 45.5 132t129.5 50q45 0 86.5 -19.5t99.5 -56.5q43 -28 70.5 -41.5t50.5 -13.5q24 0 37.5 18t13.5 48q0 21 -7 43h136q11 -46 11 -82
q0 -82 -45.5 -132.5t-129.5 -50.5q-45 0 -88 20zM641 1900h180l259 -300h-200l-149 177l-149 -177h-200zM375 64q-154 94 -234.5 263.5t-80.5 392.5t80.5 392.5t234.5 263.5t366 94t365.5 -94t234 -263.5t80.5 -392.5t-80.5 -392.5t-234 -263.5t-365.5 -94t-366 94z
M993.5 236q102.5 68 154 192.5t51.5 291.5t-51.5 290.5t-154 191.5t-252.5 69t-252.5 -67t-154 -192.5t-52.5 -291.5t51 -290.5t155 -191.5t253 -69t252.5 67z" />
    <glyph glyph-name="uni1ED7" unicode="&#x1ed7;" horiz-adv-x="1219" 
d="M714.5 1609.5q-41.5 19.5 -99.5 56.5q-43 28 -70 41.5t-51 13.5q-25 0 -38 -18t-13 -47q0 -20 6 -43h-136q-10 40 -10 81q0 83 45 133t129 50q45 0 86.5 -19.5t99.5 -56.5q43 -28 70.5 -41.5t50.5 -13.5q24 0 37.5 18.5t13.5 48.5q0 20 -6 42h136q10 -40 10 -82
q0 -82 -45.5 -132.5t-129.5 -50.5q-44 0 -85.5 19.5zM539 1540h181l258 -300h-200l-149 177l-148 -177h-200zM330 42.5q-120 72.5 -185 202t-65 296.5q0 168 66 297t186 200.5t277 71.5q159 0 279.5 -72t185.5 -201.5t65 -295.5q0 -168 -65.5 -297.5t-185.5 -201.5t-279 -72
t-279 72.5zM838 268.5q79 101.5 79 272.5q0 173 -79 272.5t-229 99.5q-152 0 -229.5 -100t-77.5 -272q0 -174 79 -274t228 -100q150 0 229 101.5z" />
    <glyph glyph-name="uni1ED8" unicode="&#x1ed8;" horiz-adv-x="1481" 
d="M648 1900h180l259 -300h-200l-149 177l-149 -177h-200zM375 64q-154 94 -234.5 263.5t-80.5 392.5t80.5 392.5t234.5 263.5t366 94t365.5 -94t234 -263.5t80.5 -392.5t-80.5 -392.5t-234 -263.5t-365.5 -94t-366 94zM993.5 236q102.5 68 154 192.5t51.5 291.5
t-51.5 290.5t-154 191.5t-252.5 69t-252.5 -67t-154 -192.5t-52.5 -291.5t51 -290.5t155 -191.5t253 -69t252.5 67zM630 -184h221v-203h-221v203z" />
    <glyph glyph-name="uni1ED9" unicode="&#x1ed9;" horiz-adv-x="1219" 
d="M698 1540l258 -300h-200l-149 177l-148 -177h-200l258 300h181zM330 42.5q-120 72.5 -185 202t-65 296.5q0 168 66 297t186 200.5t277 71.5q159 0 279.5 -72t185.5 -201.5t65 -295.5q0 -168 -65.5 -297.5t-185.5 -201.5t-279 -72t-279 72.5zM838 268.5q79 101.5 79 272.5
q0 173 -79 272.5t-229 99.5q-152 0 -229.5 -100t-77.5 -272q0 -174 79 -274t228 -100q150 0 229 101.5zM514 -184h221v-203h-221v203z" />
    <glyph glyph-name="uni1EDA" unicode="&#x1eda;" horiz-adv-x="1481" 
d="M978 1950l-143 -350h-164l143 350h164zM1356 1077.5q65 -157.5 65 -357.5q0 -223 -80.5 -392.5t-234 -263.5t-365.5 -94t-366 94t-234.5 263.5t-80.5 392.5t80.5 392.5t234.5 263.5t366 94q109 0 200 -25q43 -10 69 -10t53 11q39 19 53 53t14 84q0 24 -1 36l163 1
q5 -32 5 -74q0 -147 -98 -200q-13 -6 -31 -13q123 -98 188 -255.5zM993.5 236q102.5 68 154 192.5t51.5 291.5t-51.5 290.5t-154 191.5t-252.5 69t-252.5 -67t-154 -192.5t-52.5 -291.5t51 -290.5t155 -191.5t253 -69t252.5 67z" />
    <glyph glyph-name="uni1EDB" unicode="&#x1edb;" horiz-adv-x="1236" 
d="M835 1590l-143 -350h-164l143 350h164zM1098.5 780q40.5 -109 40.5 -239q0 -168 -65.5 -297.5t-185.5 -201.5t-279 -72t-279 72.5t-185 202t-65 296.5q0 168 66 297t186 200.5t277 71.5q89 0 167 -23q51 -12 76 -12q27 0 52 11q39 19 53 52.5t14 82.5q0 25 -1 38l163 1
q5 -32 5 -74q0 -147 -98 -200q-27 -14 -58 -21q76 -76 116.5 -185zM838 268.5q79 101.5 79 272.5q0 173 -79 272.5t-229 99.5q-152 0 -229.5 -100t-77.5 -272q0 -174 79 -274t228 -100q150 0 229 101.5z" />
    <glyph glyph-name="uni1EDC" unicode="&#x1edc;" horiz-adv-x="1481" 
d="M807 1600h-164l-143 350h164zM1356 1077.5q65 -157.5 65 -357.5q0 -223 -80.5 -392.5t-234 -263.5t-365.5 -94t-366 94t-234.5 263.5t-80.5 392.5t80.5 392.5t234.5 263.5t366 94q109 0 200 -25q43 -10 69 -10t53 11q39 19 53 53t14 84q0 24 -1 36l163 1q5 -32 5 -74
q0 -147 -98 -200q-13 -6 -31 -13q123 -98 188 -255.5zM993.5 236q102.5 68 154 192.5t51.5 291.5t-51.5 290.5t-154 191.5t-252.5 69t-252.5 -67t-154 -192.5t-52.5 -291.5t51 -290.5t155 -191.5t253 -69t252.5 67z" />
    <glyph glyph-name="uni1EDD" unicode="&#x1edd;" horiz-adv-x="1236" 
d="M680 1240h-164l-142 350h164zM1098.5 780q40.5 -109 40.5 -239q0 -168 -65.5 -297.5t-185.5 -201.5t-279 -72t-279 72.5t-185 202t-65 296.5q0 168 66 297t186 200.5t277 71.5q89 0 167 -23q51 -12 76 -12q27 0 52 11q39 19 53 52.5t14 82.5q0 25 -1 38l163 1
q5 -32 5 -74q0 -147 -98 -200q-27 -14 -58 -21q76 -76 116.5 -185zM838 268.5q79 101.5 79 272.5q0 173 -79 272.5t-229 99.5q-152 0 -229.5 -100t-77.5 -272q0 -174 79 -274t228 -100q150 0 229 101.5z" />
    <glyph glyph-name="uni1EDE" unicode="&#x1ede;" horiz-adv-x="1481" 
d="M743 1898q-24 0 -49 -10t-46 -27l-58 105q35 32 79.5 49.5t90.5 17.5q57 0 104 -28.5t74 -86.5q21 -48 21 -92q0 -55 -28 -100.5t-73.5 -75.5t-95.5 -40l-45 89q47 16 76.5 46t29.5 67q0 18 -11 42q-22 44 -69 44zM1356 1077.5q65 -157.5 65 -357.5q0 -223 -80.5 -392.5
t-234 -263.5t-365.5 -94t-366 94t-234.5 263.5t-80.5 392.5t80.5 392.5t234.5 263.5t366 94q109 0 200 -25q43 -10 69 -10t53 11q39 19 53 53t14 84q0 24 -1 36l163 1q5 -32 5 -74q0 -147 -98 -200q-13 -6 -31 -13q123 -98 188 -255.5zM993.5 236q102.5 68 154 192.5
t51.5 291.5t-51.5 290.5t-154 191.5t-252.5 69t-252.5 -67t-154 -192.5t-52.5 -291.5t51 -290.5t155 -191.5t253 -69t252.5 67z" />
    <glyph glyph-name="uni1EDF" unicode="&#x1edf;" horiz-adv-x="1219" 
d="M588 1543q-23 0 -48 -10t-47 -27l-57 105q35 32 79.5 50t90.5 18q57 0 104 -29t74 -87q21 -48 21 -91q0 -55 -28 -100.5t-73.5 -76t-95.5 -40.5l-46 89q47 16 76.5 46t29.5 66q0 22 -11 43q-22 44 -69 44zM1098.5 780q40.5 -109 40.5 -239q0 -168 -65.5 -297.5
t-185.5 -201.5t-279 -72t-279 72.5t-185 202t-65 296.5q0 168 66 297t186 200.5t277 71.5q89 0 167 -23q51 -12 76 -12q27 0 52 11q39 19 53 52.5t14 82.5q0 25 -1 38l163 1q5 -32 5 -74q0 -147 -98 -200q-27 -14 -58 -21q76 -76 116.5 -185zM838 268.5q79 101.5 79 272.5
q0 173 -79 272.5t-229 99.5q-152 0 -229.5 -100t-77.5 -272q0 -174 79 -274t228 -100q150 0 229 101.5z" />
    <glyph glyph-name="uni1EE0" unicode="&#x1ee0;" horiz-adv-x="1481" 
d="M414 1627q-11 46 -11 82q0 82 45.5 132t129.5 50q45 0 88 -20t98 -56q44 -28 70.5 -41.5t49.5 -13.5q24 0 37.5 18t13.5 48q0 21 -6 43h136q10 -40 10 -82q0 -82 -45.5 -132.5t-129.5 -50.5q-44 0 -85.5 19.5t-99.5 56.5q-43 28 -70 41.5t-51 13.5q-25 0 -38 -17.5
t-13 -46.5q0 -23 7 -44h-136zM1356 1077.5q65 -157.5 65 -357.5q0 -223 -80.5 -392.5t-234 -263.5t-365.5 -94t-366 94t-234.5 263.5t-80.5 392.5t80.5 392.5t234.5 263.5t366 94q109 0 200 -25q43 -10 69 -10t53 11q39 19 53 53t14 84q0 24 -1 36l163 1q5 -32 5 -74
q0 -147 -98 -200q-13 -6 -31 -13q123 -98 188 -255.5zM993.5 236q102.5 68 154 192.5t51.5 291.5t-51.5 290.5t-154 191.5t-252.5 69t-252.5 -67t-154 -192.5t-52.5 -291.5t51 -290.5t155 -191.5t253 -69t252.5 67z" />
    <glyph glyph-name="uni1EE1" unicode="&#x1ee1;" horiz-adv-x="1219" 
d="M297 1267q-10 40 -10 81q0 83 45 133t129 50q45 0 86.5 -19.5t99.5 -56.5q43 -28 70.5 -41.5t50.5 -13.5q24 0 37.5 18.5t13.5 48.5q0 20 -6 42h136q10 -40 10 -82q0 -82 -45.5 -132.5t-129.5 -50.5q-44 0 -85.5 19.5t-99.5 56.5q-43 28 -70 41.5t-51 13.5q-25 0 -38 -18
t-13 -47q0 -20 6 -43h-136zM1098.5 780q40.5 -109 40.5 -239q0 -168 -65.5 -297.5t-185.5 -201.5t-279 -72t-279 72.5t-185 202t-65 296.5q0 168 66 297t186 200.5t277 71.5q89 0 167 -23q51 -12 76 -12q27 0 52 11q39 19 53 52.5t14 82.5q0 25 -1 38l163 1q5 -32 5 -74
q0 -147 -98 -200q-27 -14 -58 -21q76 -76 116.5 -185zM838 268.5q79 101.5 79 272.5q0 173 -79 272.5t-229 99.5q-152 0 -229.5 -100t-77.5 -272q0 -174 79 -274t228 -100q150 0 229 101.5z" />
    <glyph glyph-name="uni1EE2" unicode="&#x1ee2;" horiz-adv-x="1481" 
d="M1356 1077.5q65 -157.5 65 -357.5q0 -223 -80.5 -392.5t-234 -263.5t-365.5 -94t-366 94t-234.5 263.5t-80.5 392.5t80.5 392.5t234.5 263.5t366 94q109 0 200 -25q43 -10 69 -10t53 11q39 19 53 53t14 84q0 24 -1 36l163 1q5 -32 5 -74q0 -147 -98 -200q-13 -6 -31 -13
q123 -98 188 -255.5zM993.5 236q102.5 68 154 192.5t51.5 291.5t-51.5 290.5t-154 191.5t-252.5 69t-252.5 -67t-154 -192.5t-52.5 -291.5t51 -290.5t155 -191.5t253 -69t252.5 67zM646 -387v203h221v-203h-221z" />
    <glyph glyph-name="uni1EE3" unicode="&#x1ee3;" horiz-adv-x="1219" 
d="M1098.5 780q40.5 -109 40.5 -239q0 -168 -65.5 -297.5t-185.5 -201.5t-279 -72t-279 72.5t-185 202t-65 296.5q0 168 66 297t186 200.5t277 71.5q89 0 167 -23q51 -12 76 -12q27 0 52 11q39 19 53 52.5t14 82.5q0 25 -1 38l163 1q5 -32 5 -74q0 -147 -98 -200
q-27 -14 -58 -21q76 -76 116.5 -185zM838 268.5q79 101.5 79 272.5q0 173 -79 272.5t-229 99.5q-152 0 -229.5 -100t-77.5 -272q0 -174 79 -274t228 -100q150 0 229 101.5zM513 -387v203h221v-203h-221z" />
    <glyph glyph-name="uni1EE4" unicode="&#x1ee4;" horiz-adv-x="1428" 
d="M415.5 39.5q-130.5 69.5 -203 196.5t-72.5 294v909l212 1v-899q0 -117 51.5 -202t134.5 -128.5t176 -43.5t176 44t134.5 129t51.5 201v899h212v-910q0 -167 -72.5 -294t-203 -196.5t-298.5 -69.5t-298.5 69.5zM630 -184h221v-203h-221v203z" />
    <glyph glyph-name="uni1EE5" unicode="&#x1ee5;" 
d="M1090 1080v-1080h-186v129q-61 -76 -151 -117t-206 -41q-170 0 -265.5 85.5t-128.5 199.5t-33 224v600h212v-531q0 -159 59 -269.5t214 -110.5q123 0 198.5 84t75.5 265v562h211zM503 -387v203h221v-203h-221z" />
    <glyph glyph-name="uni1EE6" unicode="&#x1ee6;" horiz-adv-x="1428" 
d="M630.5 2015.5q44.5 17.5 90.5 17.5q57 0 104 -28.5t74 -86.5q21 -48 21 -92q0 -55 -28 -100.5t-73.5 -75.5t-95.5 -40l-45 89q47 16 76.5 46t29.5 67q0 18 -11 42q-22 44 -69 44q-24 0 -49 -10t-46 -27l-58 105q35 32 79.5 49.5zM415.5 39.5q-130.5 69.5 -203 196.5
t-72.5 294v909l212 1v-899q0 -117 51.5 -202t134.5 -128.5t176 -43.5t176 44t134.5 129t51.5 201v899h212v-910q0 -167 -72.5 -294t-203 -196.5t-298.5 -69.5t-298.5 69.5z" />
    <glyph glyph-name="uni1EE7" unicode="&#x1ee7;" 
d="M588 1543q-23 0 -48 -10t-47 -27l-57 105q35 32 79.5 50t90.5 18q57 0 104 -29t74 -87q21 -48 21 -91q0 -55 -28 -100.5t-73.5 -76t-95.5 -40.5l-46 89q47 16 76.5 46t29.5 66q0 22 -11 43q-22 44 -69 44zM1090 1080v-1080h-186v129q-61 -76 -151 -117t-206 -41
q-170 0 -265.5 85.5t-128.5 199.5t-33 224v600h212v-531q0 -159 59 -269.5t214 -110.5q123 0 198.5 84t75.5 265v562h211z" />
    <glyph glyph-name="uni1EE8" unicode="&#x1ee8;" horiz-adv-x="1428" 
d="M930 1950l-143 -350h-164l143 350h164zM1520 1550q0 -141 -97 -201q-55 -32 -135 -35v-784q0 -167 -72.5 -294t-203 -196.5t-298.5 -69.5t-298.5 69.5t-203 196.5t-72.5 294v909l212 1v-899q0 -117 51.5 -202t134.5 -128.5t176 -43.5t176 44t134.5 129t51.5 201v899h89
q58 0 86 5q65 12 84.5 57t16.5 117l163 1q5 -42 5 -70z" />
    <glyph glyph-name="uni1EE9" unicode="&#x1ee9;" 
d="M821 1590l-143 -350h-164l143 350h164zM1282 1190q0 -141 -97 -201q-39 -23 -95 -31v-958h-186v129q-61 -76 -151 -117t-206 -41q-170 0 -265.5 85.5t-128.5 199.5t-33 224v600h212v-531q0 -159 59 -269.5t214 -110.5q123 0 198.5 84t75.5 265v562h48q58 0 86 5
q65 12 84.5 57t16.5 117l163 1q5 -42 5 -70z" />
    <glyph glyph-name="uni1EEA" unicode="&#x1eea;" horiz-adv-x="1428" 
d="M815 1600h-164l-143 350h164zM1520 1550q0 -141 -97 -201q-55 -32 -135 -35v-784q0 -167 -72.5 -294t-203 -196.5t-298.5 -69.5t-298.5 69.5t-203 196.5t-72.5 294v909l212 1v-899q0 -117 51.5 -202t134.5 -128.5t176 -43.5t176 44t134.5 129t51.5 201v899h89q58 0 86 5
q65 12 84.5 57t16.5 117l163 1q5 -42 5 -70z" />
    <glyph glyph-name="uni1EEB" unicode="&#x1eeb;" 
d="M694 1240h-164l-142 350h164zM1282 1189q0 -141 -97 -201q-41 -24 -95 -32v-956h-186v129q-61 -76 -151 -117t-206 -41q-170 0 -265.5 85.5t-128.5 199.5t-33 224v600h212v-531q0 -159 59 -269.5t214 -110.5q123 0 198.5 84t75.5 265v562h105q20 2 29 4q65 12 84.5 57
t16.5 117l163 1q5 -42 5 -70z" />
    <glyph glyph-name="uni1EEC" unicode="&#x1eec;" horiz-adv-x="1428" 
d="M704 1898q-24 0 -49 -10t-46 -27l-58 105q35 32 79.5 49.5t90.5 17.5q57 0 104 -28.5t74 -86.5q21 -48 21 -92q0 -55 -28 -100.5t-73.5 -75.5t-95.5 -40l-45 89q47 16 76.5 46t29.5 67q0 18 -11 42q-22 44 -69 44zM1520 1550q0 -141 -97 -201q-55 -32 -135 -35v-784
q0 -167 -72.5 -294t-203 -196.5t-298.5 -69.5t-298.5 69.5t-203 196.5t-72.5 294v909l212 1v-899q0 -117 51.5 -202t134.5 -128.5t176 -43.5t176 44t134.5 129t51.5 201v899h89q58 0 86 5q65 12 84.5 57t16.5 117l163 1q5 -42 5 -70z" />
    <glyph glyph-name="uni1EED" unicode="&#x1eed;" 
d="M588 1543q-23 0 -48 -10t-47 -27l-57 105q35 32 79.5 50t90.5 18q57 0 104 -29t74 -87q21 -48 21 -91q0 -55 -28 -100.5t-73.5 -76t-95.5 -40.5l-46 89q47 16 76.5 46t29.5 66q0 22 -11 43q-22 44 -69 44zM1282 1190q0 -141 -97 -201q-39 -23 -95 -31v-958h-186v129
q-61 -76 -151 -117t-206 -41q-170 0 -265.5 85.5t-128.5 199.5t-33 224v600h212v-531q0 -159 59 -269.5t214 -110.5q123 0 198.5 84t75.5 265v562h48q58 0 86 5q65 12 84.5 57t16.5 117l163 1q5 -42 5 -70z" />
    <glyph glyph-name="uni1EEE" unicode="&#x1eee;" horiz-adv-x="1428" 
d="M408 1627q-10 40 -10 81q0 83 45 133t129 50q45 0 86.5 -19.5t99.5 -56.5q43 -28 70.5 -41.5t50.5 -13.5q24 0 37.5 18.5t13.5 48.5q0 20 -6 42h136q10 -40 10 -82q0 -82 -45.5 -132.5t-129.5 -50.5q-44 0 -85.5 19.5t-99.5 56.5q-43 28 -70 41.5t-51 13.5q-25 0 -38 -18
t-13 -47q0 -20 6 -43h-136zM1520 1550q0 -141 -97 -201q-55 -32 -135 -35v-784q0 -167 -72.5 -294t-203 -196.5t-298.5 -69.5t-298.5 69.5t-203 196.5t-72.5 294v909l212 1v-899q0 -117 51.5 -202t134.5 -128.5t176 -43.5t176 44t134.5 129t51.5 201v899h89q58 0 86 5
q65 12 84.5 57t16.5 117l163 1q5 -42 5 -70z" />
    </font>
</defs>
</svg>
